<svg width="900" height="600" xmlns="http://www.w3.org/2000/svg">
  <path fill="#124086" d="M0 0h900v600H0z"/>
  <path fill="#71d4ed" d="M0 0h900v300H0z"/>
  <circle cx="450" cy="300" r="210" fill="#fcd116" stroke="#007a4d" stroke-width="30"/>
  <path fill="#0f0f0f" d="M354.342 191.1c-9.059 0-16.834 7.834-16.834 16.96v120.762c0 9.127 7.775 16.96 16.834 16.96h54.637v46.157c0 9.127 7.775 16.96 16.834 16.96h119.859c9.058 0 16.836-7.833 16.836-16.96v-31.162h-31.01v13.002c0 2.418-1.446 3.877-3.846 3.877h-83.816c-2.4 0-3.848-1.459-3.848-3.877v-27.998h34.213c9.058 0 16.836-7.832 16.836-16.959V297.66h-31.01v13.002c0 2.418-1.445 3.877-3.845 3.877h-16.194v-25.201c0-2.418 1.448-3.879 3.848-3.879h83.816c2.4 0 3.846 1.46 3.846 3.879v13.002h31.01v-31.16c0-9.127-7.778-16.963-16.836-16.963h-119.86c-9.058 0-16.833 7.836-16.833 16.963v43.36h-36.612c-2.4 0-3.85-1.46-3.85-3.878V226.22c0-2.418 1.45-3.877 3.85-3.877h83.815c2.4 0 3.845 1.459 3.845 3.877v13.004h31.01V208.06c0-9.127-7.777-16.961-16.836-16.961H354.342z"/>
</svg>
