<?xml version="1.0" standalone="no"?>
<!DOCTYPE svg PUBLIC "-//W3C//DTD SVG 1.1//EN" "http://www.w3.org/Graphics/SVG/1.1/DTD/svg11.dtd" >
<svg xmlns="http://www.w3.org/2000/svg">
<metadata>Generated by IcoMoon</metadata>
<defs>
<font id="icomoon3" horiz-adv-x="1024">
<font-face units-per-em="1024" ascent="960" descent="-64" />
<missing-glyph horiz-adv-x="1024" />
<glyph unicode="&#x20;" horiz-adv-x="512" d="" />
<glyph unicode="&#xe900;" glyph-name="px" d="M838.375 549.375c-106.375 0-169.25-100.875-173.25-100.875s-66.5 100.875-173.75 100.875c-107.125 0-137.75-100.875-141-100.875s-27.875 82.75-120.5 82.75c-75 0-85.5-34.5-91.875-34.5 0 0 5.625 37 16.875 102.875h185v72.375h-250.25l-42.25-242.375h81c0 0 18.5 34.125 67.625 34.125s79-37.75 79-80.375c0-42.5-33-89.125-79-89.125-45.875 0-72.5 39.375-72.5 66.625-37.875 0-90.25 0-90.25 0 0-24.125 19.375-136.875 162.75-136.875 116.875 0 154.375 87.125 154.375 97.5 0-8.75 45.125-97.5 141.125-97.5 111.25 0 167.25 97.5 173.625 97.5 6.5 0 72.625-97.5 173.375-97.5s152.375 88.75 152.375 163.5c-0.125 74.75-46 161.875-152.5 161.875zM611.375 386h-0.125c-0.625-0.875-62.25-75.625-119.375-75.625-57.375 0-68 57.125-68 75.625s10.625 75.625 68 75.625c57.125 0 118.75-74.75 119.375-75.625zM907.125 386c0-18.5-10.625-75.75-68-75.75-57 0-118.625 74.75-119.375 75.625v0.125c0.75 0.875 62.375 75.625 119.375 75.625 57.375 0 68-57.25 68-75.625z" />
<glyph unicode="&#xe901;" glyph-name="accessible-icon" d="M768 832c-52.625 0-96-43.375-96-96s43.375-96 96-96c52.625 0 96 43.375 96 96s-43.375 96-96 96zM768 768c18 0 32-14 32-32s-14-32-32-32c-18 0-32 14-32 32s14 32 32 32zM594 671l-115-13c-18.25-2.125-33.5-13-44-28l-1 1-1-2-74-98 50-38 76 99 2 2 70 8-54-123c-72.125-2.875-136.125-39.375-175-95h89c26.625 19.875 59.375 32 95 32 88.25 0 160-71.75 160-160s-71.75-160-160-160c-52.125 0-97.75 25.375-127 64h-75c36-75.5 112.875-128 202-128 123.5 0 224 100.5 224 224 0 10.875-1.5 21.5-3 32h63l-49-184 62-16 53 199 2 7-1 8c-6.375 29.25-33.125 50-63 50h-86c-9.375 19.625-21.625 37-36 53l52 109 1 2v1c16.125 44.625-3.25 94.625-45 117l-54 30v-1c-11.5 6.125-25.125 9.5-38 8zM623 596l33-18c14.25-7.625 20.5-23.875 15-39l-44-91c-17.875 10.75-37.25 18.5-58 24zM224 352v-64h224v64zM128 256v-64h416v64z" />
<glyph unicode="&#xe902;" glyph-name="accusoft" d="M599.687 768c-16.704 0-190.721-0.71-206.625-1.062-31.84 0-54.627 0.33-31.875-25.75 12.864-14.24 401.871-455.85 411.375-466.25 21.984-24.704 34.515-20.17 51.188-14.25 5.28 1.728 191.411 72.295 195.187 74.375 13.248 6.592-2.662 25.381-11.75 35.813-3.424 3.456-340.036 373.465-343.812 377.625-15.936 18.432-23.496 19.5-63.688 19.5zM430.562 544c0 0-19.209-2.476-39.625-23.5-14.528-14.016-384.824-348.246-387-351.062-11.264-15.424 2.597-10.525 25.125-2.813 1.088 0 151.75 47.438 151.75 47.438 1.088 1.056-0.025 0.358 1.063 1.062-0.704 7.712-1.086 39.888-1.438 42-1.088 8.064 3.322 10.552 10.938 13.688l177.125 62.562c1.088 1.056 140.972 110.098 143.5 112.562v1.75l-81.438 96.313zM504.813 320c-4.832-0.352-15.567-1.426-23.375-4.562-7.776-3.136-235.653-71.466-243.813-74.25-8.16-3.136-18.571-5.58-18.187-11.5 0.384-3.84 3.364-4.217 7.812-5.625 4.064-1.024 488.355-116.693 499.875-119.125 25.248-4.864 62.333-16.038 86.813-2.438 3.712 1.76 201.172 130.358 204.5 132.438 8.544 6.272 7.016 10.42-3 12.5-3.712 0.352-39.674 4.722-61.562 8.562 0 0-186.685-74.522-190.813-76.25-25.952-11.168-43.791 4.935-59.375 22.375l-92.75 103.562c-8.928 1.376-97.965 14.665-106.125 14.313z" />
<glyph unicode="&#xe903;" glyph-name="acquisitions-incorporated" d="M231.938 864c-6.016 0-8.84-1.809-7.688-8.625 3.68-21.44-1.344-1.275 10.688-73.563 105.824 0 119.858-1.484 169.938-0.812 20.544 0.32 61.754-5.73 62.938-35.938 0.672-18.528-1.83-18.321-54.438-141.938-89.824-210.848-84.663-195.45-112.375-261.562-2.816-6.656-5.937-8.438-12.625-8.438-14.176 0.32-28.422 0.453-42.438-0.187-3.168-0.16-8.676-2.916-9.188-5.187-2.464-12.96-3.618-26.022-5.25-39.75h184.5v44.187c-11.52 0-49.679-0.656-52.687 4.688 8.832 19.968 17.355 39.657 26.187 59.625 27.2-6.496 56.979-12.664 83.187-19 5.664-1.472 7.688-4.886 7.688-11.062-0.16-69.696 0.152-139.554 0.312-209.25 0-16.576-9.195-31.066-24.875-37.562-10.848-4.384-9.223-5.507-206.375-3.875-8.832 0-11.856-3.287-12.688-11.063-2.496-20.96-4.792-42.040-8.312-63-1.344-8.128 2.156-9.25 8.812-9.25 305.824-0.96-51.296 0 562.688 0-4.16 24.352-7.352 47.706-11 70.938-1.984 12.544-2.144 12.375-16 12.375-166.592-0.32-192.996 3.93-194.5 4.25-20.544 2.752-34.39 17.082-35.062 37.562-0.16 2.592-0.344 116.279-1.688 209.687-0.16 7.648 2.675 10.396 9.875 12.188 20.864 4.864 47.983 9.926 68.687 15.75 7.168 2.112 11.344 0.329 14-5.687 7.52-16.736 14.703-33.451 22.063-50.187 2.656-6.016 0.136-7.125-5.688-7.125-16.704 0.32-25.218 0.125-42.562 0.125v-43.875h185.5c-2.336 15.424-4.511 29.423-6.687 44.687-11.68 0-23.054-0.675-34.062 0.125-37.728 2.592-30.586 7.192-140.25 257.688-14.688 32.64-46.57 100.843-60.938 144.875-7.328 22.752 9.194 41.236 31.562 43.188 31.040 2.752 62.581 2.578 93.813 3.25 34.4 0.64 68.787 0.652 103.187 0.812 5.184 0 6.708 2.296 7.188 7 2.016 15.904 4.511 31.694 6.687 47.438 1.344 8.608 2.656 17.357 4 26.125l-566.125 0.375zM506.375 677.188c12.512-3.904 13.191 1.312 15.687 0 15.52-36.544 30.182-97.636 45.062-134.5 11.008-27.136 21.738-54.431 32.938-82.687-2.080-1.28-4.26-2.414-6.5-3.438-21.856-6.336-44.117-12.184-65.812-19-9.984-3.392-20.798-3.392-30.75 0-22.208 6.816-44.386 13.305-66.562 20.313-3.328 1.344-6.584 2.895-9.687 4.687 28.704 71.968 57.081 143.137 85.625 214.625z" />
<glyph unicode="&#xe904;" glyph-name="address-book" d="M192 832v-160h-32v-64h96v160h512v-640h-512v96h-64v-160h640v768zM512 640c-70.375 0-128-57.625-128-128 0-35.625 15.25-67.75 39-91-42.625-28.875-71-78.125-71-133h64c0 53 43 96 96 96s96-43 96-96h64c0 54.875-28.375 104.125-71 133 23.75 23.25 39 55.375 39 91 0 70.375-57.625 128-128 128zM192 576v-64h-32v-64h96v128zM512 576c35.75 0 64-28.25 64-64s-28.25-64-64-64c-35.75 0-64 28.25-64 64s28.25 64 64 64zM192 416v-64h-32v-64h96v128z" />
<glyph unicode="&#xe905;" glyph-name="address-book-solid" d="M192 832v-160h-32v-64h96v160h512v-640h-512v96h-64v-160h640v768zM512 640c-70.375 0-128-57.625-128-128 0-35.625 15.25-67.75 39-91-42.625-28.875-71-78.125-71-133h64c0 53 43 96 96 96s96-43 96-96h64c0 54.875-28.375 104.125-71 133 23.75 23.25 39 55.375 39 91 0 70.375-57.625 128-128 128zM192 576v-64h-32v-64h96v128zM512 576c35.75 0 64-28.25 64-64s-28.25-64-64-64c-35.75 0-64 28.25-64 64s28.25 64 64 64zM192 416v-64h-32v-64h96v128z" />
<glyph unicode="&#xe906;" glyph-name="address-card" d="M96 768v-640h832v640zM160 704h704v-512h-109c-2.5 4.375-1.375 10.375-5 14-12.125 12.125-29.25 18-46 18s-33.875-5.875-46-18c-3.625-3.625-2.5-9.625-5-14h-282c-2.5 4.375-1.375 10.375-5 14-12.125 12.125-29.25 18-46 18s-33.875-5.875-46-18c-3.625-3.625-2.5-9.625-5-14h-109zM384 640c-70.375 0-128-57.625-128-128 0-35.625 15.25-67.75 39-91-42.625-28.875-71-78.125-71-133h64c0 53 43 96 96 96s96-43 96-96h64c0 54.875-28.375 104.125-71 133 23.75 23.25 39 55.375 39 91 0 70.375-57.625 128-128 128zM384 576c35.75 0 64-28.25 64-64s-28.25-64-64-64c-35.75 0-64 28.25-64 64s28.25 64 64 64zM608 544v-64h192v64zM608 416v-64h192v64z" />
<glyph unicode="&#xe907;" glyph-name="address-card-solid" d="M96 768v-640h832v640zM160 704h704v-512h-109c-2.5 4.375-1.375 10.375-5 14-12.125 12.125-29.25 18-46 18s-33.875-5.875-46-18c-3.625-3.625-2.5-9.625-5-14h-282c-2.5 4.375-1.375 10.375-5 14-12.125 12.125-29.25 18-46 18s-33.875-5.875-46-18c-3.625-3.625-2.5-9.625-5-14h-109zM384 640c-70.375 0-128-57.625-128-128 0-35.625 15.25-67.75 39-91-42.625-28.875-71-78.125-71-133h64c0 53 43 96 96 96s96-43 96-96h64c0 54.875-28.375 104.125-71 133 23.75 23.25 39 55.375 39 91 0 70.375-57.625 128-128 128zM384 576c35.75 0 64-28.25 64-64s-28.25-64-64-64c-35.75 0-64 28.25-64 64s28.25 64 64 64zM608 544v-64h192v64zM608 416v-64h192v64z" />
<glyph unicode="&#xe908;" glyph-name="adjust-solid" d="M512 832c-211.75 0-384-172.25-384-384s172.25-384 384-384c211.75 0 384 172.25 384 384s-172.25 384-384 384zM512 768v-640c-177.125 0-320 142.875-320 320s142.875 320 320 320z" />
<glyph unicode="&#xe909;" glyph-name="adn" d="M512 832c-211.75 0-384-172.25-384-384s172.25-384 384-384c211.75 0 384 172.25 384 384s-172.25 384-384 384zM512 768c177.125 0 320-142.875 320-320s-142.875-320-320-320c-177.125 0-320 142.875-320 320s142.875 320 320 320zM512 642l-211-317h51l49 74h222l50-74h51zM512 565l91-136h-182z" />
<glyph unicode="&#xe90a;" glyph-name="adobe" d="M128 768v-640l284.813 640h-284.813zM611.187 768l284.813-640v640h-284.813zM512 531.187l-124.813-275.187h131.125l51.187-128h121.687l-179.187 403.187z" />
<glyph unicode="&#xe90b;" glyph-name="ad-solid" d="M64 736v-576h896v576h-896zM128 672h768v-448h-768v448zM375 608l-7-22-79-247-1-5v-46h64v32h96v-32h64v46l-1 5-79 247-7 22h-50zM672 608v-128h-48c-43.744 0-80-36.256-80-80v-32c0-43.744 36.256-80 80-80h112v320h-64zM400 475l29-91h-58l29 91zM624 416h48v-64h-48c-9.12 0-16 6.88-16 16v32c0 9.12 6.88 16 16 16z" />
<glyph unicode="&#xe90c;" glyph-name="adversal" d="M171.062 800c-34.336 0-43.062-8.879-43.062-43.375v-585.312c0-34.912 8.726-43.313 43.062-43.313h680.062c36.608 0 44.875 7.826 44.875 44.562v582.125c0 36.928-8.107 45.312-44.875 45.312h-680.062zM797.813 733.25c4.544 0 9.706-0.576 14.25 0 14.816 1.152 19.938-6.41 19.938-20.938-0.16-0.288-0.187-0.462-0.187-0.75h0.187v-427.062c0-8.352-1.214-20.375-12.062-20.375-18.208 0.576-40.298-10.468-52.938 8.188-8.512 12.768-11.498 5.846-18.25 1.75-78.368-43.584-187.971-10.394-211.875 125.062-8.96 49.024-1.064 98.462 23 146.75 17.312 35.072 83.526 111.662 199.75 44.75v104.188c0 38.464-0.116 38.438 38.188 38.438zM347.125 618.375c30.744 1.028 61.639-5.045 92.375-17.813 60.064-24.64 40.5-86.834 40.5-188.562 3.968-37.856-6.281-85.577 13.687-130.313 2.784-6.464 0.544-11.559-4-15.687-12.32-9.824-47.467-3.267-58.187 10.813-2.784 3.232-2.678 5.317-5.75 9.125-5.28 5.728-10.686 3.204-17.438-1.5-84.224-53.408-205.894-31.382-215.75 63.562-4.544 43.008 18.158 83.803 58.062 104.187 56.064 28.608 158.532 17.343 161.188 45.375 1.632 15.008-2.77 29.502-16.563 40.062-40.352 29.632-99.677 12.792-117.437-34.312-6.304-16.288-13.655-13.948-25.688-12.188-14.24 2.208-25.224 4.702-33 8.062-42.272 16.736 12.564 81.159 36.5 94.375 30.16 15.696 60.756 23.785 91.5 24.813zM681.875 543.875c-22.828-1.136-44.705-13.808-56.625-38-23.232-47.232-22.642-96.736-0.562-144 25.024-54.048 103.113-60.177 131.625 7.375 9.92 23.424 18.269 102.606-11.875 143.438-15.936 21.92-39.734 32.324-62.562 31.188zM411.75 415.562c-1.608 0.557-3.863 0.571-7.063-0.125-35.136-6.72-70.989-12.244-106.125-20.5-17.28-3.904-29.076-16.638-28.5-36.062 0.992-34.24 37.716-37.051 48.5-38.875 59.744-0.544 99.391 36.075 97.375 82.187-0.432 5.352 0.637 11.704-4.187 13.375zM201.375 223.813c5.1 0.808 11.352-1 16.312-1 198.464 0.608 390.973 0.795 589.437 0.187 10.176 0 24.875 6.627 24.875-14.813 0-22.656-16.639-14.875-26.687-14.875l-586.563-0.25c-11.104 0-27.296-7.202-26.688 16.062 0.304 10.432 4.213 13.88 9.313 14.688z" />
<glyph unicode="&#xe90d;" glyph-name="affiliatetheme" d="M387.313 800c-59.735-0.5-151.271-62.388-226.125-158.562-92.128-118.368-124.476-243.336-72.188-279.687 52.288-36.032 169.684 30.789 261.813 149.125 92.128 118.368 124.475 243.28 72.187 279.312-9.804 6.756-21.902 9.928-35.687 9.812zM959.5 608c-121.632-203.488-316.672-305.332-436-232.5-41.088 25.152-66.375 78.42-75.687 136.5-63.232-117.12-185.157-220.896-319.813-256 85.792-102.016 218.83-160 362.062-160 258.784 0 468.687 211.898 468.688 473.562 0.32 14.688 2.126 24.454 0.75 38.438z" />
<glyph unicode="&#xe90e;" glyph-name="airbnb" d="M512.625 832c-39.008 0-75.176-17.162-102.312-48.938-11.648-14.368-20.047-29.594-27.375-42.938l-1.438-2.875c-5.216-10.464-10.728-21.344-17-33.312l-1.375-3.062c-61.824-122.336-115.14-233.444-163.812-341.188l-3.062-6.625c-2.080-4.512-4.146-9.153-5.938-13.312l-2.625-5.688c-1.92-4.224-3.838-8.505-5.438-12.312-3.744-8.512-7.529-17.37-11.625-28.25-10.016-29.664-12.872-56.582-9-85.062 8.672-58.784 47.638-109.285 101.75-131.813 20.64-8.512 41.511-12.625 63.687-12.625 4.896 0 12.215 0.38 20.375 1.5 26.752 3.456 52.81 12.513 76.938 26.625 28.14 15.871 55.803 38.725 86.562 71.562l1.25-1.687 0.5 0.687c28.763-30.782 56.65-53.932 84.938-70.312 24.576-14.368 50.605-23.39 76.813-26.75 8.544-1.216 15.97-1.625 21.25-1.625 21.888 0 42.997 4.138 63.125 12.938v-0.062c53.568 21.504 92.375 70.972 101.687 129.5l0.938 5.25c5.056 24.928 2.578 51.498-7.438 80.938-1.28 3.808-2.917 7.582-3.813 9.438-2.464 6.624-5.136 12.854-7.312 17.75-1.888 4.736-3.984 9.18-6 13.5l-5.062 11.438c-1.696 3.84-3.27 7.631-5.062 11.375l-2.063 4c-52.608 116.064-107.42 230.166-162.812 339.063l-2.688 5.375c-5.888 10.88-11.822 22.732-18.062 35.5l-1.812 3.5c-6.56 11.872-13.294 24.060-23.438 36.188l-1.5 1.937c-25.344 32.512-61.494 50.375-101.75 50.375zM511.75 767.312c18.916 0.296 37.553-7.474 50.625-23.25l3.375-4.25c6.72-7.68 11.468-16.308 16.812-25.812l1.938-4.188c5.92-11.808 12.146-24.313 17.938-34.937l2.313-4.688c55.072-108.224 109.442-221.448 161.25-335.688l4.562-10.125 0.375-0.375c0.704-1.6 1.421-3.181 2.125-4.813l5.75-12.875c1.536-3.36 3.109-6.761 5.125-11.625 1.984-4.512 4.216-9.547 7-16.875 0.832-1.92 1.766-3.861 2.438-5.813l0.062-0.187c6.688-19.52 8.14-35.292 4.812-49.5l-0.812-4.75c-5.472-36.896-29.428-68.074-64.5-82.25-10.368-4.704-23.586-7.313-37.25-7.313-3.008 0-7.217 0.262-12.625 1.062-18.144 2.304-36.064 8.545-53.312 18.625-25.169 14.573-50.658 36.459-77.813 66.75l2.062 2.687c43.776 57.152 71.167 109.394 81.375 155.25l0.062 0.25c4.928 22.72 5.882 44.118 2.938 63.062-2.432 18.4-9.039 36-19.375 52-22.24 35.264-62.2 56.313-107 56.313-42.944 0-82.576-20.417-106-54.625l-1.75-2.938c-9.952-15.872-16.228-32.88-18.5-50-3.168-20.352-2.242-41.231 2.75-63.375 9.824-46.24 38.106-100.282 81.562-156.25l1.313-1.688-0.062-0.062c-29.088-32.128-53.981-53.454-78.813-67.438-17.12-9.984-35.001-16.287-53.625-18.687-4.864-0.704-9.029-0.938-11.813-0.938-13.888 0-26.387 2.47-39.187 7.75-33.408 13.888-57.531 45.335-62.875 81.687-2.496 18.208-0.526 35.302 5.938 54.438 3.264 8.704 6.605 16.532 10.125 24.5 1.568 3.744 3.274 7.445 4.938 11.125l2.938 6.625c1.792 4.128 3.644 8.218 5.5 12.25l3.875 8.625c47.584 105.248 100.548 215.438 162.5 338.062l1.062 2.5c5.664 10.784 11.372 22.12 16.812 33l0.813 1.688c5.824 10.528 12.416 22.468 20 31.812 14.144 16.576 33.334 24.954 52.25 25.25zM512 480c22.688 0 42.41-9.854 52.938-26.75 5.472-8.448 8.75-16.959 10.062-26.687 1.824-11.616 1.075-25.561-2.125-40.313-7.552-33.824-28.038-73.663-61.062-118.687-32.608 44.064-53.549 84.917-60.813 119.125-3.296 14.592-4.016 27.635-2 40.562 1.248 9.056 4.466 17.552 9.938 26l0.625 1.063c11.616 16.128 31.094 25.687 52.438 25.687z" />
<glyph unicode="&#xe90f;" glyph-name="air-freshener-solid" d="M512 896c-52.928 0-96-43.072-96-96 0-27.326 11.609-51.874 30-69.375l-156.188-218.625h66.437l-128-192h251.75v-64h-192v-192h448v192h-192v64h251.75l-128 192h66.437l-156.125 218.625c18.37 17.499 29.938 42.066 29.938 69.375 0 52.928-43.072 96-96 96zM512 832c17.664 0 32-14.368 32-32 0-12.919-7.812-23.954-18.875-29l-2.438-0.875c-3.377-1.215-6.894-2.125-10.687-2.125s-7.31 0.91-10.687 2.125l-2.438 0.875c-11.063 5.046-18.875 16.081-18.875 29 0 17.632 14.336 32 32 32zM505.813 704.25c1.224-0.085 2.456 0.035 3.687 0 0.851-0.022 1.644-0.25 2.5-0.25s1.649 0.228 2.5 0.25c1.253 0.034 2.505-0.087 3.75 0l91.563-128.25h-61.563l128-192h-328.5l128 192h-61.563l91.625 128.25zM352 192h320v-64h-320v64z" />
<glyph unicode="&#xe910;" glyph-name="algolia" d="M160 800v-704h704v704h-704zM224 736h576v-576h-576v576zM480 704c-17.664 0-32-14.336-32-32v-41.438c20.288 6.080 41.76 9.438 64 9.438s43.712-3.358 64-9.438v41.438c0 17.664-14.336 32-32 32h-64zM342.625 640c-8.188 0-16.385-3.182-22.625-9.438l-22.625-22.562c-12.512-12.512-12.512-32.77 0-45.25l26.125-26.188c17.472 27.232 40.643 50.403 67.875 67.875l-26.125 26.125c-6.256 6.256-14.437 9.438-22.625 9.438zM512 608c-106.048 0-192-85.952-192-192s85.952-192 192-192c106.048 0 192 85.952 192 192s-85.952 192-192 192zM512 544c70.592 0 128-57.408 128-128s-57.408-128-128-128c-70.592 0-128 57.408-128 128s57.408 128 128 128zM512 512v-96l83 47.438c-16.576 28.896-47.32 48.562-83 48.562z" />
<glyph unicode="&#xe911;" glyph-name="align-center-solid" d="M96 736v-64h832v64zM224 608v-64h576v64zM96 480v-64h832v64zM224 352v-64h576v64zM96 224v-64h832v64z" />
<glyph unicode="&#xe912;" glyph-name="align-justify-solid" d="M96 736v-64h832v64zM96 608v-64h832v64zM96 480v-64h832v64zM96 352v-64h832v64zM96 224v-64h832v64z" />
<glyph unicode="&#xe913;" glyph-name="align-left-solid" d="M96 736v-64h832v64zM96 608v-64h576v64zM96 480v-64h832v64zM96 352v-64h576v64zM96 224v-64h832v64z" />
<glyph unicode="&#xe914;" glyph-name="align-right-solid" d="M96 736v-64h832v64zM352 608v-64h576v64zM96 480v-64h832v64zM352 352v-64h576v64zM96 224v-64h832v64z" />
<glyph unicode="&#xe915;" glyph-name="alipay" d="M160 800v-704h704v704h-704zM224 736h576v-576h-576v576zM480 672h64v-160h-64v160zM320 608h352v-32h-352v32zM623.936 512h-271.936v32h288zM583.296 409.28c-4.256 3.072-10.048 6.72-9.824 6.912l-0.864 1.6c-0.544 1.152-1.024 2.4-1.344 3.84-0.64 2.944-1.504 5.728-2.464 8.256-2.272 4.544-6.752 5.28-10.272 7.552-7.424 3.904-14.944 7.52-22.56 10.944-15.136 7.008-30.848 12.576-46.912 16.864-32.064 8.8-65.12 13.824-98.208 14.72-8.288 0.224-16.576-0.128-24.832-0.192-9.088-0.448-18.432-1.248-27.36-3.84-17.984-4.64-34.592-14.208-47.552-27.232-27.104-25.536-38.24-63.744-33.568-100.224 4-37.632 33.12-72.128 69.504-84.512 17.6-6.688 38.272-9.216 54.752-7.392 8.672 0.192 17.312 0.8 25.952 2.464 8.672 1.216 17.28 2.656 25.696 5.28 34.016 8.672 65.952 25.856 91.808 49.024 12.928 11.584 24.736 24.192 35.296 37.728 4.992 6.976 10.432 13.664 14.432 21.344 1.888 3.904 4.128 7.584 5.152 12 0.544 2.208 1.376 4.224 1.664 6.528l0.448 3.552c0.192 0.864-0.096 0.576 0.448 2.368 1.472 3.84 1.664 8.864 0.608 12.416zM487.584 356.96c-19.2-18.912-41.856-34.368-67.68-44.8-6.4-2.816-13.184-4.512-20.032-6.112-6.784-2.048-13.792-3.168-20.896-3.936-14.848-2.752-26.688-2.432-39.456 0.608-24.8 5.504-46.624 25.12-50.368 51.36-4.96 26.048 6.72 54.464 26.848 68.608 9.824 7.424 21.088 11.584 32.352 13.6 5.696 1.12 11.36 0.96 17.312 0.8l21.856-1.504c29.152-2.72 57.568-10.336 85.6-18.88 13.92-4.608 27.712-9.76 41.376-15.136 2.912-1.184 5.728-2.56 8.608-3.84-2.624-3.68-5.216-7.36-8.032-10.944-8.32-10.784-18.016-20.192-27.488-29.824zM579.712 432.448l273.408-97.152-45.312-84.992-248.608 135.168zM640 544c-5.152-53.28-20.768-105.152-50.72-149.6l-49.28 27.648c23.52 33.088 37.888 77.216 42.464 121.952h57.536z" />
<glyph unicode="&#xe916;" glyph-name="allergies-solid" d="M512 896c-44.256 0-80.992-31.008-92-72-11.264 4.64-23.136 8-36 8-52.64 0-96-43.36-96-96v-344l-28 28c-37.248 37.248-98.752 37.248-136 0s-37.248-98.752 0-136l217-217c37.632-37.504 89.624-67 151-67h148c123.36 0 224 100.64 224 224v384c0 52.64-43.36 96-96 96-11.264 0-21.888-2.352-32-6v38c0 52.64-43.36 96-96 96-12.864 0-24.736-3.36-36-8-11.008 40.992-47.744 72-92 72zM512 832c18.112 0 32-13.888 32-32v-320h64v256c0 18.112 13.888 32 32 32s32-13.888 32-32v-256h64v128c0 18.112 13.888 32 32 32s32-13.888 32-32v-384c0-88.736-71.264-160-160-160h-148c-40.736 0-75.752 19.88-105 49l-218 216c-12.736 12.736-12.736 33.232 0 46 12.736 12.736 33.232 12.736 46 0l82-83 55-55v499c0 18.112 13.888 32 32 32s32-13.888 32-32v-256h64v320c0 18.112 13.888 32 32 32zM512 416c-17.673 0-32-14.327-32-32s14.327-32 32-32v0c17.673 0 32 14.327 32 32s-14.327 32-32 32v0zM704 416c-17.673 0-32-14.327-32-32s14.327-32 32-32v0c17.673 0 32 14.327 32 32s-14.327 32-32 32v0zM576 320c-17.673 0-32-14.327-32-32s14.327-32 32-32v0c17.673 0 32 14.327 32 32s-14.327 32-32 32v0zM448 288c-17.673 0-32-14.327-32-32s14.327-32 32-32v0c17.673 0 32 14.327 32 32s-14.327 32-32 32v0zM704 288c-17.673 0-32-14.327-32-32s14.327-32 32-32v0c17.673 0 32 14.327 32 32s-14.327 32-32 32v0zM576 192c-17.673 0-32-14.327-32-32s14.327-32 32-32v0c17.673 0 32 14.327 32 32s-14.327 32-32 32v0z" />
<glyph unicode="&#xe917;" glyph-name="amazon" d="M518.4 832c-105.6 0-220.8-38.4-246.4-169.6-3.2-12.8 6.4-22.4 16-22.4l105.6-9.6c9.6 0 19.2 9.6 19.2 19.2 9.6 44.8 48 67.2 89.6 67.2 22.4 0 48-9.6 60.8-28.8 16-22.4 12.8-54.4 12.8-80v-16c-64-6.4-147.2-12.8-208-38.4-70.4-28.8-118.4-89.6-118.4-182.4 0-115.2 73.6-172.8 166.4-172.8 80 0 121.6 19.2 182.4 80 19.2-28.8 28.8-44.8 64-73.6 9.6-3.2 19.2-3.2 25.6 3.2v0c22.4 19.2 64 54.4 86.4 73.6 9.6 6.4 6.4 19.2 0 28.8-19.2 28.8-41.6 51.2-41.6 102.4v172.8c0 73.6 6.4 140.8-48 192-41.6 41.6-112 54.4-166.4 54.4zM547.2 502.4c9.6 0 19.2 0 28.8 0v-25.6c0-41.6 3.2-80-19.2-118.4-16-32-44.8-51.2-76.8-51.2-41.6 0-67.2 32-67.2 80 0 86.4 64 108.8 134.4 115.2zM854.4 243.2c-28.8 0-60.8-6.4-86.4-25.6-6.4-6.4-6.4-12.8 3.2-12.8 28.8 3.2 89.6 12.8 102.4-3.2s-12.8-73.6-22.4-99.2c-3.2-6.4 3.2-9.6 9.6-6.4 48 38.4 60.8 121.6 51.2 134.4-6.4 9.6-28.8 12.8-57.6 12.8zM118.4 230.4c-6.4 0-9.6-9.6-3.2-12.8 105.6-96 243.2-150.4 396.8-150.4 108.8 0 236.8 35.2 326.4 99.2 16 9.6 3.2 28.8-12.8 22.4-99.2-41.6-204.8-60.8-304-60.8-144 0-281.6 38.4-396.8 105.6-3.2-6.4-6.4-3.2-6.4-3.2z" />
<glyph unicode="&#xe918;" glyph-name="amazon-pay" d="M283.875 704l-6.688-1.125c-20.928-2.624-41.107-10.453-57.875-23.125-3.744-2.24-7.1-5.242-10.812-8.25-0.384 0.736-0.75 1.514-0.75 2.25-0.768 4.128-1.139 8.56-1.875 12.688-1.12 6.72-4.843 10.125-11.563 10.125h-17.562c-10.816 0-12.688-2.286-12.688-12.75v-324c0.384-4.864 3.342-7.429 7.438-7.813h32.5c4.48 0 7.086 2.949 7.438 7.813 0.384 1.504 0.375 2.996 0.375 4.5v112.562c1.504-1.504 2.639-2.264 3.375-3 27.264-22.784 58.632-30.22 93-23.5 31.36 6.336 52.988 25.375 66.812 53.375 10.816 21.28 15.241 42.917 15.625 66.437 0.736 25.76-1.496 50.557-12.312 74.813-12.704 29.856-34.333 49.655-66.813 56.375-4.864 1.12-10.074 1.514-14.938 2.25-4.48 0.384-8.591 0.375-12.687 0.375zM532.562 704c-1.504-0.384-2.934-0.75-4.438-0.75-14.944-0.736-29.534-2.6-44.062-6.312-9.344-2.24-18.29-5.587-27.25-8.562-5.6-1.856-8.25-5.986-8.25-11.938 0.384-4.864 0-10.074 0-14.938 0.384-7.456 3.396-9.388 10.5-7.5 11.936 2.976 23.877 6.322 35.813 8.562 18.656 3.36 37.71 4.874 56.75 2.25 10.080-1.856 19.414-4.486 25.75-13.062 5.6-7.104 7.866-16.040 8.25-25 0.384-12.704 0.375-22.766 0.375-35.438 0-0.736 0.009-1.461-0.375-1.813h-1.875c-16.064 4.096-32.459 6.318-48.875 7.438-17.184 0.736-34.334-0.016-50.75-6-19.776-6.72-35.875-18.638-45.187-38.062-7.104-14.944-8.24-30.656-6-46.688 3.36-21.664 13.835-38.068 32.875-48.5 18.304-10.080 37.715-11.163 57.875-8.187 23.136 3.36 43.643 13.056 61.562 28 0.736 0.736 1.514 1.077 2.25 1.813 1.12-5.984 1.88-11.597 3-16.813 0.736-4.864 3.77-7.803 8.25-8.187h25c3.744 0 7.125 3.342 7.125 7.438 0.384 1.12 0.375 2.653 0.375 4.125v159.312c-0.096 6.368-0.505 13.102-1.625 19.438-2.976 19.776-11.205 36.224-29.125 46.688-10.080 5.984-21.251 8.956-33.187 10.812-5.6 0.768-10.838 1.139-16.438 1.875h-18.313zM662 703.938c-3.744 0-5.611-3.318-4.875-7.062 0.736-3.008 1.88-6.399 3-9.375 29.856-73.92 60.073-147.79 90.313-222.062 2.624-6.336 2.976-11.602 0-17.938-4.832-11.168-8.971-22.738-14.188-33.938-4.48-10.080-11.925-17.586-23.125-20.562-7.456-1.888-15.66-2.62-23.5-1.5-3.744 0.384-7.506 1.116-11.25 1.5-5.248 0.384-7.804-1.838-8.188-7.438v-15c0.384-8.608 2.986-12.308 11.563-13.812 8.224-1.472 16.79-2.554 25.75-2.938 26.112-0.352 46.685 10.028 60.125 32.812 5.6 8.96 10.092 18.304 14.188 28 36.192 91.456 72.035 182.535 107.875 274.375 1.12 2.624 1.804 5.274 2.188 8.25 0.736 4.48-1.498 6.689-5.562 6.625h-30.188c-5.216 0.384-10.082-2.949-11.938-7.813-0.736-2.24-1.514-4.072-2.25-6.312l-53.375-152.688c-3.744-10.816-7.881-22.002-11.625-33.938-0.768 1.888-1.116 2.63-1.5 3.75-19.776 54.496-39.162 108.942-58.938 163.437-2.976 8.96-6.327 17.612-9.687 26.188-1.472 4.128-4.886 7.062-9.75 7.062-11.584 0.384-23.126 0.375-35.062 0.375zM283.5 665.188c22.784-1.856 41.429-13.066 51.125-39.563 5.984-16.416 7.5-32.254 7.5-49.438 0-16.064-1.106-30.266-5.938-45.562-10.464-32.48-34.376-45.159-65-43.687-21.664 1.12-39.941 9.377-57.125 21.312-1.856 1.12-2.977 2.925-2.625 4.813v126.75c-0.352 2.24 0.769 4.067 2.625 5.187 20.896 14.56 44.030 22.044 69.438 20.188zM525.687 564.375c6.392 0.56 12.836 0.439 19.188-0.313 12.704-1.12 25.421-3.331 38.125-5.187 2.624-0.384 3.313-1.51 3.313-3.75-0.384-7.488 0-14.574 0-22.062 0-7.456-0.375-14.199-0.375-21.687 0.384-1.856-0.746-3.318-2.25-4.438-17.184-12.32-35.845-20.573-57.125-22.813-8.576-0.736-17.183-0.735-25.375 2.625-9.344 3.36-16.376 11.218-19 20.562-2.976 9.696-2.967 19.772-0.375 29.5 4.096 12.704 13.032 19.747 25 23.875 6.16 1.872 12.483 3.128 18.875 3.688zM929.313 319.938c-29.868-0.416-65.123-7.107-91.875-25.875-8.256-5.728-6.809-13.681 2.375-12.625 30.080 3.616 97.032 11.734 109-3.562 12-15.296-13.27-78.401-24.438-106.625-3.456-8.416 3.85-11.9 11.562-5.5 50.048 41.92 63.053 129.797 52.813 142.437-5.136 6.32-29.57 12.166-59.438 11.75zM38.938 287.938c-6.978-0.96-9.984-9.805-2.688-16.813 125.344-117.568 290.971-175.125 474.875-175.125 131.168 0 283.442 42.798 388.562 123.438 17.376 13.408 2.574 33.498-15.25 25.562-117.856-52-245.863-77.062-362.375-77.062-172.672 0-339.83 36.050-475.062 117.938-2.96 1.792-5.736 2.382-8.062 2.062z" />
<glyph unicode="&#xe919;" glyph-name="ambulance-solid" d="M576 864c-35.375 0-64-28.625-64-64v-32h-480v-608h101c14.25-55 63.75-96 123-96s108.75 41 123 96h266c14.25-55 63.75-96 123-96s108.75 41 123 96h101v364l-8 9-192 224-9 11h-143v32c0 35.375-28.625 64-64 64zM96 704h657l175-204v-276h-37c-14.25 55-63.75 96-123 96s-108.75-41-123-96h-266c-14.25 55-63.75 96-123 96s-108.75-41-123-96h-37zM448 608v-96h-96v-64h96v-96h64v96h96v64h-96v96zM256 256c35.75 0 64-28.25 64-64s-28.25-64-64-64c-35.75 0-64 28.25-64 64s28.25 64 64 64zM768 256c35.75 0 64-28.25 64-64s-28.25-64-64-64c-35.75 0-64 28.25-64 64s28.25 64 64 64z" />
<glyph unicode="&#xe91a;" glyph-name="american-sign-language-interpreting-solid" d="M295 724l-82-98-1-8-20-87v141h-64v-224l-32-32v-192l140 31 72-29 6-2h26l7 5 86 51 8 6 5 9 32 77-60 24-28-67-50-31c-24.5 5.75-84 26.125-84 86 0 74.625 64 96 64 96h50l55-55 46 46-64 64-10 9h-59l6 9 81 50-34 54-88-54-6-3-36-54 12 52 72 86zM684 672l-7-5-86-51-8-6-5-9-32-77 60-24 28 67 50 31c24.5-5.75 84-26.125 84-86 0-74.625-64-96-64-96h-50l-55 55-46-46 64-64 10-9h59l-6-9-81-50 34-54 88 54 6 3 36 54-12-52-72-86 50-40 82 98 1 8 20 87v-141h64v224l32 32v192l-140-31-72 29-6 2z" />
<glyph unicode="&#xe91b;" glyph-name="amilia" d="M525.75 768c-88.416 0-183.454-8.992-258.75-64-7.296-4.416-13-13.128-10.312-27.688 1.568-7.296 7.298-39.185 14.562-56.625 5.856-14.56 20.296-14.543 29-8.687 46.464 31.84 144.663 61 224.375 61 82.72 0 84.125-48.598 84.125-112.438v-55c-124.864-16.128-328.008-49.402-373-68.25-50.72-23.296-43.375-122.669-43.375-148.813 0-40.512 21.733-159.5 178.438-159.5 68.288 0 187.206 29.565 243.75 60.125v-44.25c0-4.288 3.054-11.658 8.75-12.938 4.416-1.44 61.223-2.875 74.375-2.875s89.272-0.408 95 1c5.856 1.44 7.313 8.712 7.313 13v431.688c-0.128 114.688-82.698 194.25-274.25 194.25zM608.625 423.313v-163.125c-30.56-18.848-87.076-34.812-130.5-34.812-75.424 0-95.31 58.5-95.438 74.5 0 17.44-4.307 60.97 26.125 75.562 34.72 18.848 135.94 42.019 199.812 47.875z" />
<glyph unicode="&#xe91c;" glyph-name="anchor-solid" d="M512 832c-70.375 0-128-57.625-128-128 0-59.25 41-108.75 96-123v-69h-96v-64h96v-255c-77.625 6.125-129.25 34.5-166 67-28 24.75-46.75 52-60 75l51 25-128 58-34-138 53 26c15.125-27.125 38.625-61.875 75-94 46.5-41.25 115.125-75.375 209-82v-2l32-32 32 32v2c93.875 6.625 162.5 40.75 209 82 36.375 32.125 59.875 66.875 75 94l53-26-34 138-128-58 51-25c-13.25-23-32-50.25-60-75-36.75-32.5-88.375-60.875-166-67v255h96v64h-96v69c55 14.25 96 63.75 96 123 0 70.375-57.625 128-128 128zM512 768c35.75 0 64-28.25 64-64s-28.25-64-64-64c-35.75 0-64 28.25-64 64s28.25 64 64 64z" />
<glyph unicode="&#xe91d;" glyph-name="android" d="M337 848c-5.375-1.375-9.625-5.5-11.25-10.75-1.625-5.375-0.375-11.125 3.25-15.25l47-68c-53.375-41-88-105.75-88-178v-320c0-22.5 14.125-38.5 32-50v-94c0-43.75 36.25-80 80-80s80 36.25 80 80v80h64v-80c0-43.75 36.25-80 80-80s80 36.25 80 80v94c17.875 11.5 32 27.5 32 50v320c0 72.25-34.625 137-88 178l47 68c3.875 4.875 4.625 11.625 1.875 17.125-2.875 5.625-8.625 9.125-14.875 8.875-1 0.125-2 0.125-3 0-4.25-1.125-7.875-4-10-8l-48-68c-32.25 18-69.625 28-109 28s-76.75-10-109-28l-48 68c-2.75 4.75-7.625 7.75-13 8-1 0.125-2 0.125-3 0-0.625 0-1.375 0-2 0zM512 736c77.625 0 142.125-54.875 157-128h-314c14.875 73.125 79.375 128 157 128zM448 704c-17.625 0-32-14.375-32-32s14.375-32 32-32c17.625 0 32 14.375 32 32s-14.375 32-32 32zM576 704c-17.625 0-32-14.375-32-32s14.375-32 32-32c17.625 0 32 14.375 32 32s-14.375 32-32 32zM192 608v-320h64v320zM768 608v-320h64v320zM352 544h320v-288h-32v-144c0-9.125-6.875-16-16-16s-16 6.875-16 16v144h-192v-144c0-9.125-6.875-16-16-16s-16 6.875-16 16v144h-32z" />
<glyph unicode="&#xe91e;" glyph-name="angellist" d="M410 832c-10 0.625-20.25-1.125-30-5-18.5-7.5-31.125-23.875-37-40s-7.5-32.625-7-50c0.875-34.75 9.625-73.5 20-111 8.5-30.75 18.25-59.5 27-84-5.25 1-10.625 1.25-16 1-11.5-0.625-22.75-4.375-33-11-25-16.125-40.125-41.75-43-66-2.625-21.75 2.5-41.5 9-59-17.25-1.75-34.125-7.5-47-20-20.625-20.125-29-49.5-29-84 0-113.625 60.5-180.25 125-210s132.25-29 158-29c28 0 92.625 2.375 152 43s109 121 109 256c0 11.625 8.75 63.75-24 108-7 9.5-16.5 18-27 26 6.375 20.875 21.625 71.25 34 134 7.625 38.75 13.625 78.125 13 112-0.375 17-1.875 32.625-8 48s-20.875 32.625-41 37c-20.375 4.5-41.375 0.375-58-9s-28.875-22.875-40-38c-22.125-30.375-38.5-68.625-51-107-4.25-13.125-7.5-26.125-11-39-5.5 15.5-11.375 31-18 47-16 38.75-34.75 76.875-58 106-11.625 14.625-24.375 27.5-41 36-8.375 4.25-18 7.375-28 8zM405 769c0.75-0.125 1.875-0.875 4-2 4.25-2.125 11.875-8.875 20-19 16.125-20.25 34.125-54.125 49-90 19-45.625 31.875-85.25 40-114-0.75 0-1.25 0-2 0-22.375 0-42.875-9.25-57-23-7.375 18-26.125 64.625-42 122-9.625 34.875-16.375 70-17 95-0.375 12.5 1.375 22.5 3 27 0.75 2.25 1.125 2.75 1 3 0.375 0.125 0.625 1 1 1zM693 764c1.5 0 2.75 0 4 0 1.25-4.5 2.75-11.375 3-22 0.5-25.125-4.875-61.5-12-98-10-50.75-21.375-91.75-29-118-17.625 5.5-37.875 10-61 13 4.875 26.625 13.375 67 29 115 11.375 35 26 68.5 41 89 7.5 10.25 14.625 17 20 20 1.75 1 3.5 1 5 1zM516 480c118 0 161.375-27 177-48s11-42.75 11-69c0-120.125-38.75-174.125-81-203s-92.75-32-116-32c-25.5 0-82.875 0.75-131 23s-88 59-88 152c0 24 6.5 35.5 10 39s7 4.875 19 2c19.375-4.625 53.375-28 85-70 7.375-9.75 14.125-20.25 21-32-2-2.375-8-6-12-6-4.875 0-9.5 1.5-18 9s-18.875 21.875-30 39l-54-35c12.5-19.375 25.125-36.75 41-51s37.25-26 61-26c24.5 0 46.125 11.375 61 29 3.875 4.5 4.5 11.125 7 17 4.625-13.125 10-25.125 16-34 13.5-19.875 30-30 30-30l35 53c0 0-4.75 2.25-12 13s-15 28.25-15 56c0 10 1.5 18.125 5 25 5.75 11.25 15.875 19 27 26 17.875 11.25 36 15 36 15 14.25 3.125 24.625 15.625 25.125 30.25s-9.125 27.625-23.125 31.75c0 0-50.75 15.125-91 27-2.5 0.75-5 2.25-7 4-0.75 0.625-1.375 1.25-2 2-1.375 2.25-2.5 4.75-4 7-1.75 4.625-2.5 10.25-2 16 0.625 6.875 3.25 12 6 15s5 5 13 5zM368 479c1.375 0.875 1.5 0.875 9-2s19.5-10.625 32-23c25-24.75 51.875-66.125 69-110 4-10.25 3.125-12.75 2-15s-4.25-5.375-10-8c-5.75-2.625-14-4.125-19-4s-4.25 4.25 2-4l-2-1c-19.125 26.375-38.75 47.875-60 64 0 0-19.625 23.375-30 49-5.25 12.875-7 25.75-6 34s2.125 13 13 20z" />
<glyph unicode="&#xe91f;" glyph-name="angle-double-down-solid" d="M167 746l-46-45 391-391 391 391-46 45-345-345zM167 522l-46-45 391-391 391 391-46 45-345-345z" />
<glyph unicode="&#xe920;" glyph-name="angle-double-left-solid" d="M509 807l-359-359 359-359 45 46-313 313 313 313zM733 807l-359-359 359-359 45 46-313 313 313 313z" />
<glyph unicode="&#xe921;" glyph-name="angle-double-right-solid" d="M291 807l-45-46 313-313-313-313 45-46 359 359zM515 807l-45-46 313-313-313-313 45-46 359 359z" />
<glyph unicode="&#xe922;" glyph-name="angle-double-up-solid" d="M512 810l-391-391 46-45 345 345 345-345 46 45zM512 586l-391-391 46-45 345 345 345-345 46 45z" />
<glyph unicode="&#xe923;" glyph-name="angle-down-solid" d="M135 615l-46-46 400-400 23-22 23 22 400 400-46 46-377-377z" />
<glyph unicode="&#xe924;" glyph-name="angle-left-solid" d="M609 823l-352-352-22-23 22-23 352-352 46 46-329 329 329 329z" />
<glyph unicode="&#xe925;" glyph-name="angle-right-solid" d="M415 823l-46-46 329-329-329-329 46-46 352 352 22 23-22 23z" />
<glyph unicode="&#xe926;" glyph-name="angle-up-solid" d="M512 749l-23-22-400-400 46-46 377 377 377-377 46 46-400 400z" />
<glyph unicode="&#xe927;" glyph-name="angry" d="M512 832c-211.75 0-384-172.25-384-384s172.25-384 384-384c211.75 0 384 172.25 384 384s-172.25 384-384 384zM512 768c177.125 0 320-142.875 320-320s-142.875-320-320-320c-177.125 0-320 142.875-320 320s142.875 320 320 320zM342 576c-13.5-13.625-22-32.25-22-53 0-41.375 33.625-75 75-75 20.625 0 39.5 8.375 53 22zM682 576l-106-106c13.5-13.625 32.375-22 53-22 41.375 0 75 33.625 75 75 0 20.625-8.375 39.5-22 53zM594 389c-4.625-0.125-9.5-0.375-14-1-35.875-5.375-63-25-87-41s-45.125-28.5-61-31c-15.875-2.5-30.125 0-57 27l-46-46c36.25-36.5 77.5-49.625 113-44s62.125 25.125 86 41c23.875 15.875 44.375 27.5 61 30s33 0.375 61-27l44 46c-32.75 32-67.625 46.5-100 46z" />
<glyph unicode="&#xe928;" glyph-name="angrycreative" d="M928 672l-49.625-3.5-36.75-72-20.812 68.125-51.563-3.5 7.063-18.875c-13.44 15.040-37.778 16.975-57.938 15.375l-63-4.187-5.125-50.562c-1.6 1.6-20.797 52.167-85.437 47.687-65.28-4.16-89.91-53.435-101.75-74.875l6.375 64.938-45.75-2.875-10.25-104.938-60.5 100.125-43.188-2.875-16-165.125-48.938 161-38.437-2.562-91.188-192.313 51.188 3.187 12.812 28.813 63.375 4.125 7.062-27.5 90.875 5.75 9.875 104.313 60.187-99.813 40 2.562 6.375 63.687c15.68-45.76 46.767-64.692 88.687-61.812 64 3.84 84.753 45.155 95.313 59.875l-5.125-49.625 45.437 2.875 6.438 60.5 30.688-58.25 58.25 3.875-40.312 61.438c36.48 14.72 52.787 42.862 51.187 78.062l25.313-67.875-7.688-69.75 45.438 2.875 7.687 69.812 69.75 123.813zM696.625 614.75c19.84 0.96 31.053-0.050 36.813-3.25 4.48-2.56 6.398-7.985 5.438-16.625-0.96-8.96-5.085-15.035-12.125-18.875-6.72-3.52-18.243-5.79-34.563-6.75l4.438 45.5zM561.938 604.187c6.4 0.32 13.1-1.315 19.5-3.875 5.12-2.56 11.225-7.053 17.625-12.813l49.875 3.25-1.875-18.938-100.813-6.688-3.875-37.75 54.75 3.5c-7.36-9.92-15.352-17.895-24.312-22.375-6.72-3.84-13.765-6.11-21.125-6.75-13.76-0.96-25.29 3.22-34.25 12.5-9.28 9.6-13.1 21.773-11.5 36.813 1.6 15.68 8.332 28.447 20.813 38.688 10.56 8.64 22.387 13.797 35.187 14.437zM220.188 563.187l13.437-59.187-38.125-2.562 24.688 61.75zM1024 476.187l-149.125-9.938-50.562-129.937-21.75 125.438-48.625-3.188 38.062-185.938 51.187 3.188 75.563 182.125-20.188-178.562 103.375 6.375 4.813 41.312-55.063-3.562 3.813 31.687 55.062 3.563 5.125 44.437-55.375-3.812 3.187 28.812 55.375 3.5 5.125 44.5zM748.813 458.25l-45.438-3.187-20.5-189.125 45.125 2.875 20.813 189.437zM695.687 454.375l-120-7.625-4.5-44.188 35.563 2.25-14.125-135.062-51.5 174.437-38.062-2.25-88-185 3.5 32.687-58.25-3.562 3.187 31.375 58.25 3.5 4.187 44.187-58.25-3.5 2.875 28.125 58.25 3.875 4.125 43.813-103.688-6.375-4.125-42.25c-6.080 31.68-35.875 39.677-67.875 37.437l-62.375-3.875-4.5-48.625c-5.76 8.96-21.715 49.277-81.875 45.437-65.28-4.16-104.028-56.92-108.188-103-5.12-58.88 37.77-95.075 90.25-91.875 40 2.24 73.588 27.832 91.188 56.312l-4.5-45.75 45.125 2.562 5.812 58.875 31-56.625 201.937 12.125 12.813 25.625 63 4.187 6.75-24.687 92.813 5.813 15.687 144.937 38.688 2.562 4.812 44.125zM255.562 382.75c16.425-0.42 23.94-4.828 22.5-20.188-2.24-22.080-23.342-24.033-46.062-25.313l4.188 44.813c7.44 0.48 13.9 0.827 19.375 0.688zM515.813 381.438l12.5-59.5-37.75-2.562 25.25 62.062zM104 372.813c18.88 1.28 31.378-5.48 41.938-25l42.25 2.562-4.188-47-43.188-2.562c-12.16-16.32-25.958-28.79-46.437-29.75-34.24-2.24-47.99 23.978-45.75 48.938 1.92 24.96 24.975 50.893 55.375 52.813zM320.938 345.625l-9.25-94.75-35.188 52.812c21.12 8.64 36.438 20.498 44.438 41.938z" />
<glyph unicode="&#xe929;" glyph-name="angry-solid" d="M512 832c-211.75 0-384-172.25-384-384s172.25-384 384-384c211.75 0 384 172.25 384 384s-172.25 384-384 384zM512 768c177.125 0 320-142.875 320-320s-142.875-320-320-320c-177.125 0-320 142.875-320 320s142.875 320 320 320zM342 576c-13.5-13.625-22-32.25-22-53 0-41.375 33.625-75 75-75 20.625 0 39.5 8.375 53 22zM682 576l-106-106c13.5-13.625 32.375-22 53-22 41.375 0 75 33.625 75 75 0 20.625-8.375 39.5-22 53zM594 389c-4.625-0.125-9.5-0.375-14-1-35.875-5.375-63-25-87-41s-45.125-28.5-61-31c-15.875-2.5-30.125 0-57 27l-46-46c36.25-36.5 77.5-49.625 113-44s62.125 25.125 86 41c23.875 15.875 44.375 27.5 61 30s33 0.375 61-27l44 46c-32.75 32-67.625 46.5-100 46z" />
<glyph unicode="&#xe92a;" glyph-name="angular" d="M512 834.062l-372.438-135.438 66.813-501.5 305.625-169.75 305.625 169.812 66.813 501.438-372.438 135.438zM512 765.938l302.187-109.875-55.812-418.562-246.375-136.875-246.375 136.875-55.812 418.562 302.188 109.875zM512 704l-192-448h64l41.25 96h173.5l41.25-96h64l-192 448zM512 558.375l0.625-1.875 22.438-56 36.125-84.5h-118.375l36.125 84.5 22.438 56 0.625 1.875z" />
<glyph unicode="&#xe92b;" glyph-name="ankh-solid" d="M512 896c-88 0-160-72-160-160 0-62.625 35.625-124 69-174 4.25-6.5 8.75-12 13-18h-178v-101l37 5 184 26-29-440-2-34h132l-2 34-29 440 184-26 37-5v101h-178c4.25 6 8.75 11.5 13 18 33.375 50 69 111.375 69 174 0 88-72 160-160 160zM512 832c53.375 0 96-42.625 96-96 0-34.5-28.375-93.25-59-139-18.625-28-25.25-34.75-37-49-11.75 14.25-18.375 21-37 49-30.625 45.75-59 104.5-59 139 0 53.375 42.625 96 96 96z" />
<glyph unicode="&#xe92c;" glyph-name="apper" d="M99.5 575.375c-43.52 0-62.035-4.795-73.875-18.875-6.72-8.32-8.672-16.662-9.313-39.062h61.75c1.28 16.64 6.073 20.5 24.313 20.5 20.8 0 28.5-6.448 28.5-24.688v-36.437h-1.25c-7.040 18.88-17.917 23.375-53.437 23.375-47.68 0-67.563-16.992-67.563-57.312 0-43.52 17.297-58.875 65.937-58.875 34.88 0 48.305 6.727 56.625 31.687h1.625l-1.937-30.438h61.125v121.938c0 13.12-3.175 31.022-6.375 38.062-10.88 22.080-33.325 30.125-86.125 30.125zM345.25 575.375c-34.56 0-45.405-6.113-60.125-33.313h-1.312l2.563 33h-61.438v-270.438h63.375v112.313h1.312c7.36-24.96 21.423-32.938 54.062-32.938 26.88 0 42.245 3.535 53.125 15.375 14.4 15.68 19.187 36.438 19.187 84.438 0 44.48-4.82 63.365-20.5 77.125-10.88 9.6-27.21 14.438-50.25 14.438zM568.313 575.375c-34.56 0-45.405-6.113-60.125-33.313h-1.312l2.562 33h-61.438v-270.438h63.062v112.313h1.25c7.68-24.96 21.797-32.938 54.438-32.938 26.88 0 42.182 3.535 53.062 15.375 14.72 15.68 19.562 36.438 19.562 84.438 0 44.48-4.82 63.365-20.5 77.125-10.88 9.6-27.522 14.438-50.562 14.438zM753.25 575.375c-36.48 0-57.92-5.13-72-18.25-14.4-12.8-19.812-32.672-19.812-73.312 0-47.040 4.49-67.49 18.25-81.25 14.4-14.4 36.778-18.562 80.938-18.562 39.36 0 59.23 5.133 70.75 20.813 7.040 9.28 10.875 23.695 10.875 39.375v3.813h-59.875c0-17.6-6.35-22.375-28.75-22.375-24.96 0-32 7.988-32 35.188 0 1.28-0.007 4.487 0.313 7.687h120.625v17.562c0 68.8-20.833 89.313-89.313 89.313zM971.187 575.375c-24.64 0-36.807-8.313-47.687-32.313h-0.938l2.875 32h-61.438v-189.813h61.125v108.813c0 12.8 0.025 15.075 1.625 19.875 3.84 9.6 10.822 14.687 21.062 14.687 13.12 0 16.375-6.36 16.375-31 0-0.96-0.055-3.558-0.375-6.438h56c-0.32 7.040-0.313 12.502-0.313 15.062 0 31.36-2.555 42.535-10.875 54.375-7.040 9.6-20.158 14.75-37.438 14.75zM752 531.813c25.92 0 31.375-3.473 31.375-23.313 0-0.64-0.008-3.245 0.312-6.125h-61.125l0.313 5.438c1.6 19.2 6.085 24 29.125 24zM321.25 529.938c27.84 0 33.313-8.028 33.313-52.187 0-38.4-6.072-47.375-32.313-47.375-28.48 0-33.937 8.638-33.937 53.438 0 38.080 6.058 46.125 32.937 46.125zM544.625 529.938c27.84 0 33-8.028 33-52.187 0-38.4-6.135-47.375-32.375-47.375-28.48 0-33.875 8.638-33.875 53.438 0 38.080 6.050 46.125 33.25 46.125zM99.188 463.062c24.32 0 31.375-3.842 31.375-18.562 0-16.64-6.067-21.438-27.187-21.438-26.88 0-33 4.11-33 20.75 0 14.4 7.692 19.25 28.812 19.25z" />
<glyph unicode="&#xe92d;" glyph-name="apple" d="M667 896c-52.5 0-105.5-27.25-141-69v-1c-25.25-31.375-52.625-80.875-44-138-4.125 1.625-4.375 1.125-9 3-22.125 9-49.5 19-82 19-127.375 0-224-115.375-224-267 0-98.125 33-190.125 77-259 22-34.5 47-62.875 73-84s53.25-36 84-36c30.75 0 53.75 10.375 71 18s30.625 14 56 14c22.875 0 34.5-6.25 52-14s41.375-18 73-18c34.25 0 63.375 16.75 87 38s43.5 48.625 60 75c16.5 26.375 29.5 52.25 39 73 4.75 10.375 8.25 19 11 26s4.125 9 6 17l6 26-24 11c-5.625 2.5-28 13.625-48 34s-37 48.25-37 91c0 41.375 15.875 69.125 33 89 8.5 9.875 17.375 18 24 23 3.375 2.5 6 3.75 8 5s1.625 0.875 5 3l27 17-18 27c-52.25 80.375-135.875 91-169 91-15.375 0-26.25-5.375-40-8 7.75 7.25 17.75 11.75 24 20 0.125 0.125-0.125 0.875 0 1 0.375 0.375 0.75 0.625 1 1h1c34.125 38.125 53 89.375 50 142l-2 30zM629 822c-5.5-21.125-14.5-41.25-29-57l-2-2c-12.25-16.5-31.125-28.75-50-36 5.25 20.875 14.375 42 27 58 0.25 0.375 0.75 0.625 1 1 14 16 33.375 28 53 36zM391 646c17.875 0 37.5-6.75 58-15s39.625-19 67-19c27.25 0 47.875 10.75 72 19s49.875 15 75 15c16.75 0 58.125-10.625 93-43-6.125-5.5-11.5-9.5-18-17-24.375-28.25-49-72.25-49-131 0-61 26.625-106.875 55-136 17.625-18 28.5-22.25 42-30-1.75-4-2.75-7.125-5-12-8.625-18.75-20.5-42.75-35-66s-32.125-45.875-49-61c-16.875-15.125-32-22-44-22-18.125 0-28.75 5-47 13s-43.375 19-78 19c-36.375 0-63.25-10.75-82-19s-28.5-13-45-13c-7.875 0-24.875 6.375-44 22s-40.125 39.375-59 69c-37.875 59.25-67 140.625-67 224 0 126.125 70.375 203 160 203z" />
<glyph unicode="&#xe92e;" glyph-name="apple-alt-solid" d="M332 833c-9.375-0.125-15-1-15-1l-33-3 4-33c0 0 7.875-73.125 60-127-105.75-16.375-188-103.625-188-210 0-114.75 51.125-205.75 111-267 29.875-30.625 61.625-53.75 92-70s58.25-26 85-26c17.5 0 34.5 3 50 8 9.375 3 18.625 3 28 0 15.5-5 32.5-8 50-8 29 0 56.875 12.25 87 31s61.5 44.75 91 77c59 64.375 110 153.75 110 255 0 118.125-101.625 213-224 213-32.875 0-63.25-8-91-21-0.125 0.875-0.75 2.375-1 4 16.375 85.375 76 117 76 117l-32 56c0 0-45.125-27.125-78-85-10.375 15.875-24.125 31.5-41 45-50.75 40.5-113 45.25-141 45zM363 765c22.125-3.375 49.5-10.625 70-27 20.875-16.625 34.875-41 43-62-22.25 3.25-50.125 11.375-71 28-20.625 16.5-33.875 40.125-42 61zM384 608c41.625 0 78.625-15.125 107-39l21-17 21 17c28.375 23.875 65.375 39 107 39 89.75 0 160-67.625 160-149 0-79.375-41.625-156-93-212-25.625-28-53.5-49.875-78-65s-46.75-22-53-22c-10.5 0-20.375 1.875-30 5-22 7.125-46 7.125-68 0-9.625-3.125-19.5-5-30-5-8.625 0-30.75 5-55 18s-51.75 33.125-77 59c-50.5 51.75-92 126-92 222 0 81.375 70.25 149 160 149z" />
<glyph unicode="&#xe92f;" glyph-name="apple-pay" d="M282.5 672c-18.72 0-40.429-10.722-54.125-26.562-10.752-13.088-22.317-33.55-18.125-54.062 19.296-2.336 40.189 9.567 52.125 25.375 13.728 14.656 21.309 34.738 20.125 55.25zM153.562 586.875c-50.72 0-89.562-44.070-89.562-107.75 0-83.2 58.404-159.125 94.5-159.125 22.080 0 30.261 14.438 59.125 14.438 26.848 0 35.236-14.438 58.5-14.438 43.232 0 79.063 88.151 80.375 93.687-7.104 3.136-48.75 23.136-48.75 70.688 0 45.888 38.025 66.57 39.625 67.562-20.672 31.232-54.113 34.938-66.625 34.938-29.024 0-54.71-15.813-68.438-15.813-14.336 0-35.262 15.813-58.75 15.813zM416 576v-256h64v96h16c31.388 0 53.567 21.354 66.625 48h13.375v32c0 43.81-36.19 80-80 80h-80zM647.125 576l-71.125-218.938v-37.062h64v26.938l1.625 5.062h60.75l1.625-5.062v-26.938h64v37.062l-71.125 218.938h-49.75zM768 576v-41.5l64-98.438v-116.062h64v116.062l64 98.438v41.5h-64v-22.5l-32-49.25-32 49.25v22.5h-64zM480 512h16c9.182 0 16-6.818 16-16s-6.818-16-16-16h-16v32zM672 445.438l9.562-29.438h-19.125l9.562 29.438z" />
<glyph unicode="&#xe930;" glyph-name="app-store" d="M512 864c-229.375 0-416-186.625-416-416s186.625-416 416-416c229.375 0 416 186.625 416 416s-186.625 416-416 416zM512 800c194.75 0 352-157.25 352-352s-157.25-352-352-352c-194.75 0-352 157.25-352 352s157.25 352 352 352zM511 696c-2.5-0.375-5.625-1.625-8-3l-16-9c-9.375-5.5-12.5-17.5-7-27l137-235 50 29-137 235c-4.125 7-11.375 11-19 10zM469 618c-7.625 1-15.875-2.875-20-10l-17-30 52-30 17 30c5.5 9.5 2.375 21.5-7 27l-18 10c-2.375 1.375-4.5 2.625-7 3zM428 571l-121-207 51-30 121 207zM256 477v-58h73l34 58zM450 477l-32-58h187l-32 58zM664 477l31-58h72v58zM673 441l-50-29 29-50 50 29zM699 378c-1.625-0.25-3.25-1-5-2-8.125-4.625-19.875-11.75-27-16-13.375-8-3-31.875 0-37 17.375-29.125 35.5-25.375 49-46 7.375-11.25 4.625-16.25 7-20 0.875-1.375 3.875-2.625 5-1 20.875 28.875 15.125 79 0 101-6.125 9-17.25 23-29 21zM300 353l-25-94c-0.5-1.75 0.5-4.125 2-5s3.75-0.25 5 1l70 68z" />
<glyph unicode="&#xe931;" glyph-name="app-store-ios" d="M160 800v-704h704v704h-704zM224 736h576v-576h-576v576zM511.75 671.688c-2.624 0.64-4.884 0.312-7.188-1-4.928-2.624-7.616-8.572-5.313-13.5 15.488-36.224 69.81-161.063 115.25-245.063l42.187 22.75c-43.104 83.68-117.912 199.892-139 232.5-1.312 2.304-3.633 3.64-5.937 4.312zM487.938 599.562c-11.2 1.312-22.080-3.292-28-13.5l48.438-28.625c7.584 13.472 2.934 31.221-10.25 39.125-3.296 1.632-6.891 2.328-10.187 3zM455.938 579.125l-26-44.5 49.438-27.625 25 43.125-48.438 29zM427 529.75l-102.75-179.188 48.438-28 102.75 178.188-48.438 29zM288 480v-64h61.75l37.437 64h-99.187zM474.875 480l-36.813-64h162.562c-8.96 17.6-22.72 45.12-32 64h-93.75zM644.187 480c8-14.72 18.55-34.85 21.75-41.25 0.64-0.64 2.547-4.533 3.187-5.813l7.062-16.938h59.813v64h-91.813zM660 428.625l-42.125-22.75 31.625-49.375 32.875 18.75-22.375 53.375zM685.687 367l-30.937-16.5 32.875-78.375c5.92-13.824 21.754-20.419 34.938-13.187 13.184 6.944 17.474 24.426 9.25 36.938l-46.125 71.125zM319.938 344.313l-17.438-83.375 4.312-1.938 62.563 56.625-49.438 28.688z" />
<glyph unicode="&#xe932;" glyph-name="archive-solid" d="M128 800v-192h32v-512h704v512h32v192zM192 736h640v-64h-640zM224 608h576v-448h-576zM410 544c-17.625-1.625-30.625-17.375-29-35s17.375-30.625 35-29h192c11.5-0.125 22.25 5.875 28.125 15.875 5.75 10 5.75 22.25 0 32.25-5.875 10-16.625 16-28.125 15.875h-192c-1 0-2 0-3 0s-2 0-3 0z" />
<glyph unicode="&#xe933;" glyph-name="archway-solid" d="M96 768v-192h64v-384h-64v-64h320v224c0 52.928 43.072 96 96 96s96-43.072 96-96v-224h320v64h-64v384h64v192h-832zM160 704h704v-64h-704v64zM224 576h576v-384h-128v160c0 88.224-71.776 160-160 160s-160-71.776-160-160v-160h-128v384z" />
<glyph unicode="&#xe934;" glyph-name="arrow-alt-circle-down" d="M512 864c-229.375 0-416-186.625-416-416s186.625-416 416-416c229.375 0 416 186.625 416 416s-186.625 416-416 416zM512 800c194.75 0 352-157.25 352-352s-157.25-352-352-352c-194.75 0-352 157.25-352 352s157.25 352 352 352zM480 672v-320h-96l128-128 128 128h-96v320z" />
<glyph unicode="&#xe935;" glyph-name="arrow-alt-circle-down-solid" d="M512 864c-229.375 0-416-186.625-416-416s186.625-416 416-416c229.375 0 416 186.625 416 416s-186.625 416-416 416zM512 800c194.75 0 352-157.25 352-352s-157.25-352-352-352c-194.75 0-352 157.25-352 352s157.25 352 352 352zM480 672v-320h-96l128-128 128 128h-96v320z" />
<glyph unicode="&#xe936;" glyph-name="arrow-alt-circle-left" d="M512 864c-229.375 0-416-186.625-416-416s186.625-416 416-416c229.375 0 416 186.625 416 416s-186.625 416-416 416zM512 800c194.75 0 352-157.25 352-352s-157.25-352-352-352c-194.75 0-352 157.25-352 352s157.25 352 352 352zM416 576l-128-128 128-128v96h320v64h-320z" />
<glyph unicode="&#xe937;" glyph-name="arrow-alt-circle-left-solid" d="M512 864c-229.375 0-416-186.625-416-416s186.625-416 416-416c229.375 0 416 186.625 416 416s-186.625 416-416 416zM512 800c194.75 0 352-157.25 352-352s-157.25-352-352-352c-194.75 0-352 157.25-352 352s157.25 352 352 352zM416 576l-128-128 128-128v96h320v64h-320z" />
<glyph unicode="&#xe938;" glyph-name="arrow-alt-circle-right" d="M512 864c-229.375 0-416-186.625-416-416s186.625-416 416-416c229.375 0 416 186.625 416 416s-186.625 416-416 416zM512 800c194.75 0 352-157.25 352-352s-157.25-352-352-352c-194.75 0-352 157.25-352 352s157.25 352 352 352zM608 576v-96h-320v-64h320v-96l128 128z" />
<glyph unicode="&#xe939;" glyph-name="arrow-alt-circle-right-solid" d="M512 864c-229.375 0-416-186.625-416-416s186.625-416 416-416c229.375 0 416 186.625 416 416s-186.625 416-416 416zM512 800c194.75 0 352-157.25 352-352s-157.25-352-352-352c-194.75 0-352 157.25-352 352s157.25 352 352 352zM608 576v-96h-320v-64h320v-96l128 128z" />
<glyph unicode="&#xe93a;" glyph-name="arrow-alt-circle-up" d="M512 864c-229.375 0-416-186.625-416-416s186.625-416 416-416c229.375 0 416 186.625 416 416s-186.625 416-416 416zM512 800c194.75 0 352-157.25 352-352s-157.25-352-352-352c-194.75 0-352 157.25-352 352s157.25 352 352 352zM512 672l-128-128h96v-320h64v320h96z" />
<glyph unicode="&#xe93b;" glyph-name="arrow-alt-circle-up-solid" d="M512 864c-229.375 0-416-186.625-416-416s186.625-416 416-416c229.375 0 416 186.625 416 416s-186.625 416-416 416zM512 800c194.75 0 352-157.25 352-352s-157.25-352-352-352c-194.75 0-352 157.25-352 352s157.25 352 352 352zM512 672l-128-128h96v-320h64v320h96z" />
<glyph unicode="&#xe93c;" glyph-name="arrow-circle-down-solid" d="M512 864c-229.375 0-416-186.625-416-416s186.625-416 416-416c229.375 0 416 186.625 416 416s-186.625 416-416 416zM512 800c194.75 0 352-157.25 352-352s-157.25-352-352-352c-194.75 0-352 157.25-352 352s157.25 352 352 352zM480 672v-329l-128 128-45-46 205-205 205 205-45 46-128-128v329z" />
<glyph unicode="&#xe93d;" glyph-name="arrow-circle-left-solid" d="M512 864c-229.375 0-416-186.625-416-416s186.625-416 416-416c229.375 0 416 186.625 416 416s-186.625 416-416 416zM512 800c194.75 0 352-157.25 352-352s-157.25-352-352-352c-194.75 0-352 157.25-352 352s157.25 352 352 352zM489 653l-205-205 205-205 46 45-128 128h329v64h-329l128 128z" />
<glyph unicode="&#xe93e;" glyph-name="arrow-circle-right-solid" d="M512 864c-229.375 0-416-186.625-416-416s186.625-416 416-416c229.375 0 416 186.625 416 416s-186.625 416-416 416zM512 800c194.75 0 352-157.25 352-352s-157.25-352-352-352c-194.75 0-352 157.25-352 352s157.25 352 352 352zM535 653l-46-45 128-128h-329v-64h329l-128-128 46-45 205 205z" />
<glyph unicode="&#xe93f;" glyph-name="arrow-circle-up-solid" d="M512 864c-229.375 0-416-186.625-416-416s186.625-416 416-416c229.375 0 416 186.625 416 416s-186.625 416-416 416zM512 800c194.75 0 352-157.25 352-352s-157.25-352-352-352c-194.75 0-352 157.25-352 352s157.25 352 352 352zM512 676l-205-205 45-46 128 128v-329h64v329l128-128 45 46z" />
<glyph unicode="&#xe940;" glyph-name="arrow-down-solid" d="M480 832v-642l-217 217-46-46 272-272 23-22 23 22 272 272-46 46-217-217v642z" />
<glyph unicode="&#xe941;" glyph-name="arrow-left-solid" d="M425 743l-272-272-22-23 22-23 272-272 46 46-217 217h642v64h-642l217 217z" />
<glyph unicode="&#xe942;" glyph-name="arrow-right-solid" d="M599 743l-46-46 217-217h-642v-64h642l-217-217 46-46 272 272 22 23-22 23z" />
<glyph unicode="&#xe943;" glyph-name="arrows-alt-h-solid" d="M297 743l-272-272-22-23 22-23 272-272 46 46-217 217h772l-217-217 46-46 272 272 22 23-22 23-272 272-46-46 217-217h-772l217 217z" />
<glyph unicode="&#xe944;" glyph-name="arrows-alt-solid" d="M512 909.25l-182.625-182.625 45.25-45.25 105.375 105.375v-306.75h-306.75l105.375 105.375-45.25 45.25-182.625-182.625 182.625-182.625 45.25 45.25-105.375 105.375h306.75v-306.75l-105.375 105.375-45.25-45.25 182.625-182.625 182.625 182.625-45.25 45.25-105.375-105.375v306.75h306.75l-105.375-105.375 45.25-45.25 182.625 182.625-182.625 182.625-45.25-45.25 105.375-105.375h-306.75v306.75l105.375-105.375 45.25 45.25-182.625 182.625z" />
<glyph unicode="&#xe945;" glyph-name="arrows-alt-v-solid" d="M512 893l-23-22-256-256 46-46 201 201v-644l-201 201-46-46 256-256 23-22 23 22 256 256-46 46-201-201v644l201-201 46 46-256 256z" />
<glyph unicode="&#xe946;" glyph-name="arrow-up-solid" d="M512 829l-23-22-272-272 46-46 217 217v-642h64v642l217-217 46 46-272 272z" />
<glyph unicode="&#xe947;" glyph-name="artstation" d="M439.375 800l392.625-704 63.813 144.375c14.816 29.632 13.31 64.806-3.938 93.062l-248.813 420.625c-17.44 28.512-48.498 45.938-81.938 45.938h-121.75zM368.375 730.312l-188.188-346.312h381.312l-193.125 346.312zM128 288l69.5-138.938c16.256-32.512 49.46-53.062 85.812-53.062h438.812l-107.062 192h-487.062z" />
<glyph unicode="&#xe948;" glyph-name="assistive-listening-systems-solid" d="M792 916l-35-53c50-32.375 91.5-76.875 121-130l56 31c-34.5 62.125-83.25 114-142 152zM738 836l-36-53c38.5-26.625 70.125-57.875 93-98l55 32c-28.25 49.5-67.375 88.125-112 119zM544 800c-141.75 0-256-114.25-256-256h64c0 107.875 84.125 192 192 192s192-84.125 192-192c0-71.875-20.875-111.125-44-150s-52-79.375-52-138c0-53-43-96-96-96v-64c87.875 0 160 72.125 160 160 0 37.375 19.125 63.125 44 105s52 98.125 52 183c0 141.75-114.25 256-256 256zM544 704c-87.875 0-160-72.125-160-160h64c0 53 43 96 96 96s96-43 96-96h64c0 87.875-72.125 160-160 160zM544 544c-17.625 0-32-14.375-32-32s14.375-32 32-32c17.625 0 32 14.375 32 32s-14.375 32-32 32zM448 448c-17.625 0-32-14.375-32-32s14.375-32 32-32c17.625 0 32 14.375 32 32s-14.375 32-32 32zM327 386l-38-39 90-90 39 38zM256 256c-17.625 0-32-14.375-32-32s14.375-32 32-32c17.625 0 32 14.375 32 32s-14.375 32-32 32zM160 160c-17.625 0-32-14.375-32-32s14.375-32 32-32c17.625 0 32 14.375 32 32s-14.375 32-32 32z" />
<glyph unicode="&#xe949;" glyph-name="asterisk-solid" d="M566.375 416l198.375-268.75-76.75-51.25-176 278.375-176-278.375-73.625 51.25 198.375 268.75-297.5 76.75 28.75 83.25 291.25-102.375-19.25 326.375h96l-16-326.375 288 102.375 25.625-86.375z" />
<glyph unicode="&#xe94a;" glyph-name="asymmetrik" d="M578.875 765.312c-173.981 2.996-365.609-40.734-514.875-125.312 85.824 33.44 172.268 57.616 264.813 78 117.376 25.856 237.947 39.542 344.187 23.062 237.216-37.024 306.198-198.418 153.75-360.562-15.872-16.8-37.589-35.278-57.813-50.062l-229.688 338.312-294.625-428.937-2.937 1.125c-136.928 47.264-138.922 127.666-50.25 228.562 32.352 34.56 76.039 63.527 123.687 90.375 31.744 17.888 65.5 35.204 100.188 47.812-101.28-31.584-194.613-82.29-255.125-144.562-43.104-44.48-63.708-88.84-64.188-129-0.768-54.624 58.766-95.753 128.75-123.625l-55.938-82.5h158l0.125 0.25 0.438-0.25 37.375 56.75c33.504-1.28 69.9 0.186 104.812 4.25l-37.25-61h210.312l-51.375 85.562c27.936 7.968 56.221 17.593 82.813 28.313l59.375-90.125 14.687-23.75h158l-117.125 172.813c28.768 18.816 57.65 41.853 79.25 64.125 60.352 62.24 90.36 124.495 91 180.687 1.248 101.92-92.364 183.919-263.5 210.063-37.536 5.742-76.726 8.934-116.875 9.625zM537.875 447.313l22.5-32.75 96.375-146.313c-25.856-10.944-52.857-20.658-80.313-28.562l-38.875 63.188-49.313-82.938c-34.912-5.216-69.898-5.866-103.562-4.938l153.188 232.313z" />
<glyph unicode="&#xe94b;" glyph-name="atlassian" d="M509.813 832c-6.848 0-13.892-3.817-18.5-11.625-167.264-275.68-11.897-501.141 90.375-712.437 3.552-7.072 10.688-11.938 18.688-11.938h242.875c15.456 0 25.574 16.881 18.438 31.313 0 0-326.655 676.511-334.687 693.375-3.712 7.488-10.371 11.312-17.187 11.312zM508.25 712.188c67.84-140.608 205.731-426.236 266.563-552.188h-147.375c-9.28 18.592-18.836 37.278-28.5 56.062-83.136 161.92-162.208 315.901-90.688 496.125zM330.125 512c-7.264 0-14.155-4.022-18.187-12.438l-181.688-371.687c-7.072-14.848 3.726-31.875 19.438-31.875h253.5c8 0 15.079 4.985 18.375 12.313 54.816 115.264 21.869 290.48-73.875 395.312-5.088 5.504-11.45 8.375-17.562 8.375zM338.25 407.687c42.816-75.968 57.534-173.927 34.75-247.687h-155.812l121.062 247.687z" />
<glyph unicode="&#xe94c;" glyph-name="atlas-solid" d="M288 832c-52.64 0-96-43.36-96-96v-576c0-52.64 43.36-96 96-96h544v768h-544zM288 768h480v-512h-480c-11.264 0-21.888-2.352-32-6v486c0 18.112 13.888 32 32 32zM512 704c-105.632 0-192-86.368-192-192s86.368-192 192-192c105.632 0 192 86.368 192 192s-86.368 192-192 192zM534 637c15.488-2.624 30.008-7.352 43-15l2.062-23-15 6-12-10 2-29 31 9 38-12-10-17-23.062 14-25-4-24-18-14-42 27-22c0 0 28.558 5 30.062 5s12-26.062 12-26.062l-16-49c-19.648-12.224-42.942-19.938-68.062-19.938-7.488 0-14.864 1.752-22 3l-6.062 10 15.062 56-57 43h-53l-4 8c-0.16 2.752-1 5.248-1 8 0 6.88 0.976 13.504 2 20l27 21 57 27-9 37 25 5 11-16 43.062 8-6.062 23zM418 425h10.062l19-23c-10.912 6.4-20.582 13.88-29.062 23zM288 192h480v-64h-480c-18.112 0-32 13.888-32 32s13.888 32 32 32z" />
<glyph unicode="&#xe94d;" glyph-name="atom-solid" d="M512 864c-99 0-175.75-146.5-189.5-350 17.75-18.875 38.625-37.625 61.75-55.875 0.25 21.25 1.5 41.5 3.25 61.375 18.625 12.875 42 28.625 60.5 39.375 85.125 49.125 172.75 81.5 246.625 91.125 14.5 1.875 28.125 2.75 40.5 2.75 41.5 0 70.875-10 81.75-28.75 9.75-17 5.375-44-11-75.625 16.75-15.5 32.625-31.25 46.75-47.125 36 59.625 43.375 113.75 19.625 154.75-28.25 48.875-94.125 69.375-185.75 57.5-82.125-10.625-178.125-45.875-270.5-99.25-5.875-3.375-11.375-7.125-17.125-10.75 23 118.375 69.75 196.5 113.125 196.5 20.25 0 41.25-17.25 60.25-47.25 21.75 6.75 43.25 12.625 64.125 17-33.125 59.375-76.125 94.25-124.375 94.25zM295 716.375c-69.375 1.25-119.625-19.5-143.25-60.375-25.75-44.5-15-104.25 29.25-169.875 4-6.125 8.375-12.625 13.875-19.75 50.25-65.75 128.75-131.25 221.125-184.625 5.875-3.375 12-6.375 18-9.75-36.625-12.625-72.125-21.75-104.75-26-62.375-8.125-108 1.625-122 26-9.875 17-5.5 44 10.875 75.625-16.75 15.5-32.625 31.25-46.875 47-35.875-59.5-43.25-113.625-19.5-154.625 23-39.875 71-60.875 137.5-60.875 15.125 0 31.375 1.125 48.25 3.375 9.75 1.25 19.5 2.875 29.5 4.875l7 1.5c0.5 0 0.875 0.125 1.375 0.25 17 3.625 35.75 8.625 57.25 15.375l21.125 6.5c31.375 10.75 63.5 24.125 95.625 39.75 7 23.25 13.25 50.375 18 81.625-18.5-10.375-37.125-19.75-55.625-28.5-21.375 10-42.875 21.125-63.75 33.25-85.25 49.25-157.125 108.875-202.25 168-38.25 50.125-52.625 94.5-38.5 118.875 9.625 16.75 35.125 26.25 70.25 28 5 22.625 10.75 44.125 17.5 64.375zM663.75 579.25c-25.25-5.875-52-14.5-79.375-25.375 18.125-10.75 35.375-22.25 52.125-33.75 2-23.25 3.5-47 3.5-72.125 0-188.75-59.375-332.75-116.5-350.125-3.875-1.25-7.875-1.875-11.5-1.875-20.25 0-41.25 17.125-60.25 47.375-21.75-6.875-43.25-12.75-64.125-17.125 33.125-59.375 76.125-94.25 124.375-94.25 6.375 0 12.5 0.625 18.5 1.875 100.125 19 173.5 190.5 173.5 414.125 0 6.875-0.5 13.5-0.625 20.375 29.25-25.375 55-51.5 75-77.5 38.125-50.125 52.5-94.5 38.5-118.875-9.875-16.875-35-26.625-70.375-28.375-5-22.375-10.625-44-17.375-64.125 1.75 0 3.875-0.375 5.625-0.375 66.5 0 114.5 21 137.5 60.875 28.25 48.875 13 116.25-43.125 189.625-39.75 52-97.375 103.75-165.375 149.625zM512 512c-35.375 0-64-28.625-64-64s28.625-64 64-64c35.375 0 64 28.625 64 64s-28.625 64-64 64z" />
<glyph unicode="&#xe94e;" glyph-name="at-solid" d="M518 832c-235.625 3.5-424.75-207.5-385-449 27-163.875 161.5-292.75 326-315 110.875-15 214.5 17 293 80l-40 50c-65.5-52.5-151.625-79.625-245-67-136.125 18.375-247.75 126.5-270 262-33.5 203.875 122.75 377.875 320 375 168.125-2.5 309.875-141.875 315-310 0.125-3.625 0-7.125 0-11-0.25-70.5-57.375-127-128-127-35.75 0-64 28.25-64 64v256h-64v-25c-23 15.625-50.375 25-80 25-79.125 0-144-64.875-144-144v-96c0-79.125 64.875-144 144-144 43.125 0 81.5 19.625 108 50 23.5-29.875 59.375-50 100-50 105.125 0 191.625 85.75 192 191 0 4.25 0.125 8.375 0 13-6.125 202.75-175.25 369-378 372zM496 576c44.5 0 80-35.5 80-80v-96c0-44.5-35.5-80-80-80s-80 35.5-80 80v96c0 44.5 35.5 80 80 80z" />
<glyph unicode="&#xe94f;" glyph-name="audible" d="M512 704c-162.5 0-302.875-93.375-371.25-229.125 72.625 99.875 190.25 165.125 323.25 165.125 145.25 0 272.125-77.75 342.125-193.625l73.25 36.625c-69.875 131.375-208.125 221-367.375 221zM512 576c-118.75 0-220.5-71.875-264.625-174.375 49.375 66.875 128.375 110.375 217.625 110.375 94.75 0 178-49 226.5-123l73.5 36.875c-48.875 89.5-143.875 150.125-253 150.125zM32 467.875v-71.625c167.125-83.5 465.625-232.875 465.625-232.875l14.375-7.125 480 240v71.5l-480-240c-265.875 133-406 203-480 240.125zM511 448c-70.25 0-129.125-45.875-150.375-109.25 26.125 27.75 62.875 45.25 103.875 45.25 44.75 0 84.25-20.875 110.5-53.125l73.5 36.75c-27.5 47.75-78.375 80.375-137.5 80.375z" />
<glyph unicode="&#xe950;" glyph-name="audio-description-solid" d="M179 736l-10-9c0 0-105-106.25-105-279s105-279 105-279l10-9h666l10 9c0 0 105 106.25 105 279s-105 279-105 279l-10 9zM209 672h606c10.75-11.375 81-87.375 81-224s-70.25-212.625-81-224h-606c-10.75 11.375-81 87.375-81 224s70.25 212.625 81 224zM332 576l-128-256h72l16 32h60v-32h64c70.375 0 128 57.625 128 128s-57.625 128-128 128zM511 576c39.25-29.125 65-75.5 65-128s-25.75-98.875-65-128h89c25.375 36.375 40 80.375 40 128s-14.625 91.625-40 128zM637 576c21.875-37.75 35-81.375 35-128s-13.125-90.25-35-128h72c17.125 39.25 27 82.5 27 128s-9.75 88.75-27 128zM744 576c15.625-39.75 24-82.875 24-128s-8.375-88.25-24-128h68c13.125 40.375 20 83.375 20 128s-6.875 87.625-20 128zM416 512c35.75 0 64-28.25 64-64s-28.25-64-64-64zM352 472v-56h-28z" />
<glyph unicode="&#xe951;" glyph-name="autoprefixer" d="M509.687 800l-232.312-704h111.875l39.563 128h166.562l39.438-128h111.875l-237 704zM511 489.938h2.313l62.25-201.938h-127l62.438 201.938zM296.5 288l-249.438-17.875-15.062-35.5 241.875-10.625 22.625 64zM726.313 288l23.062-64 242.625 10.625-15.062 35.5-250.625 17.875z" />
<glyph unicode="&#xe952;" glyph-name="avianex" d="M339.625 831.938c-74.176 0-142.901-57.406-156.437-130.75l-84.875-462.812c-6.944-37.536 1.657-73.175 24.312-100.375 22.528-27.072 55.8-42 93.688-42h468c74.176 0 142.839 57.437 156.375 130.813l85.063 462.75c6.816 37.664-1.937 73.363-24.625 100.562-22.528 26.976-55.77 41.813-93.562 41.813h-467.938zM339.625 768h467.938c18.496 0 34.292-6.714 44.5-18.938 10.336-12.352 14.173-29.408 10.813-48l-85.062-462.687c-7.84-42.496-50.684-78.375-93.5-78.375h-468c-18.528 0-34.325 6.746-44.437 18.938-10.272 12.32-14.049 29.315-10.625 47.875l84.875 462.812c7.872 42.496 50.652 78.375 93.5 78.375zM365.313 704.812l-13.438-7.188-28.375-43.625 103.813-150.625 30.937-44.688c-18.112-18.56-35.452-36.847-49.5-52.687l-87.563 46.938-23.687-23.187 79.125-72.625 61.25-92.062 27 19.187-33.313 96.875c18.88 11.456 40.762 25.771 62.938 40.875l174.187-166 48.25 20.375 9.5 11.875-143.188 180.25-6.812 11c29.888 21.408 50.592 36.673 53.313 38.625 11.936 9.952 9.537 31.41-4.063 47.25-13.888 16.32-34.759 21.699-46.375 11.875 0 0-21.72-20.491-51-48.875l-7.375 6.812-155.625 169.625z" />
<glyph unicode="&#xe953;" glyph-name="aviato" d="M99.5 608l-99.5-210.25h27.188l30.437 66.875h83.5l30.063-66.875h27.875l-99.562 210.25zM560 608l-99.813-209.938h27.813l30.375 66.875h38.625l-2.75-61.75c0 0-36.145-10.542-40.625-38.062-0.32-0.64-0.375-1.298-0.375-1.938l-103.625 3.188 103.625-13.125c0-3.52 0.36-6.667 1-10.187 0.32-4.16 0.978-7.722 1.938-11.562l-388.187 20.5 141.75-14.75v-10.187c-9.28-1.28-16.625-9.642-16.625-19.562 0-10.88 8.933-19.813 19.813-19.813s19.875 8.933 19.875 19.813c0 9.92-7.4 18.282-17 19.562v9.25l128.688-14.375v-8.688c-8.96-1.6-16-9.9-16-19.5 0-10.88 8.933-16.313 19.813-16.313s19.875 5.433 19.875 16.313c0 9.6-6.727 17.9-15.687 19.5v8l45.438-5.062v-38.125h-9.625v-22.062h9.625v10.25h8v-10.25h9.25v21.75h-9.25v37.437l61.438-7c12.8-18.24 30.062-21.812 30.062-21.812v-10.562l-8-0.313-0.313-19.5h6.375l0.313 8h8.375l0.313-8h6.375l-0.313 19.5-8 0.313-0.313 10.562c0 0 17.575 3.572 30.375 21.812l61.438 7v-37.437h-9.562v-21.75h9.562v10.25h8v-10.25h9.625v21.75h-9.625v38.062l45.438 5.125v-8c-8.96-1.6-15.687-9.908-15.687-19.187 0-10.88 8.675-16.313 19.875-16.313 10.88 0 19.5 5.433 19.5 16.313 0 9.6-6.727 17.587-15.687 19.187v9l128.313 14.375v-9.25c-9.28-1.6-16.625-9.635-16.625-19.875 0-10.56 8.995-19.812 19.875-19.812s19.813 9.252 19.813 19.812c-0.32 10.24-7.658 18.595-16.938 19.875v10.187l142.062 14.75-388.813-20.187c1.28 3.52 1.922 7.090 2.563 11.25 0.32 3.52 0.625 6.722 0.625 10.562l103.687 13.125-103.687-3.25v1.625c-4.8 27.84-40.938 38.062-40.938 38.062l-2.625 61.75h38.812l30.375-66.875h27.5l-99.5 209.938zM912 603.5c-14.72 0-28.45-2.56-41.25-8-12.8-5.76-24.025-9.587-33.625-19.187s-17.622-20.818-23.062-33.938c-5.44-12.48-8-26.53-8-41.25s2.56-28.192 8-41.312c5.44-12.8 13.462-23.97 23.062-33.25 9.6-9.92 20.825-17.622 33.625-23.062s26.53-8.313 41.25-8.313c14.72 0 28.45 2.873 41.25 8.313s24.018 13.142 33.938 23.062c9.6 9.28 16.998 20.77 22.438 33.25 5.44 13.12 8.313 26.592 8.313 41.312s-2.873 28.77-8.313 41.25c-5.44 13.12-12.838 24.338-22.438 33.938-9.92 9.92-21.137 13.427-33.938 19.187-12.8 5.44-26.53 8-41.25 8zM188.5 601.25l99.812-210.187 99.188 210.187h-27.187l-72-153.562-72.312 153.562h-27.5zM419.687 601.187v-203.437h24.625v203.437h-24.625zM640.5 601.187v-18.437h66.187v-185h27.313v185h65.5v18.437h-159zM912 583.687c10.88 0 21.775-1.957 31.375-6.438 10.24-4.48 18.89-9.89 26.25-17.25 7.36-7.68 13.090-16.338 17.25-25.938 4.16-10.24 6.062-21.098 6.062-32.938 0-11.2-1.902-22.072-6.062-32.312-4.16-9.92-9.89-18.898-17.25-25.938-7.36-7.68-16.010-13.465-26.25-17.625-9.6-4.48-20.495-6.375-31.375-6.375-11.2 0-21.767 1.895-31.687 6.375-9.92 4.16-18.898 9.945-25.938 17.625-7.36 7.040-13.41 16.018-17.25 25.938-4.16 10.24-6.375 20.792-6.375 32.312s2.215 22.698 6.375 32.938c3.84 9.6 9.89 18.258 17.25 25.938 7.68 7.040 16.018 12.77 25.938 17.25s20.487 6.438 31.687 6.438zM99.5 554.875l31.375-68.125h-62.688l31.312 68.125zM560 554.875l31.062-68.125h-29.187l-1.875 45.062-2-45.062h-29.375l31.375 68.125z" />
<glyph unicode="&#xe954;" glyph-name="award-solid" d="M512 864c-20 0-39.875-6.75-57-19l-53-37-61-8h-1l-1-1c-40.75-9.125-72.875-41.25-82-82l-1-1v-1l-8-62-37-48-1-1v-1c-22.375-35.75-23.375-81.875 1-116l38-53 10-55-103-157-33-49h153l37-86 23-55 33 50 101 152c27.125-11.125 57.75-12.125 84 0l101-152 33-50 23 55 37 86h153l-33 49-100 152 8 60 37 53 1 1v1c22.375 35.75 23.375 80.875-1 115l-37 53-12 60h1c-0.125 0.75-0.875 1.25-1 2-5.75 41.875-38.875 75.875-81 81h-1l-60 8-53 37c-17.125 12.25-37 19-57 19zM512 799c7.375 0 14.625-2.25 20-6l64-46 8-1 70-10h1c14.375-1.625 24.375-11.625 26-26v-2l13-71 1-7 5-6 41-57c7.625-10.625 8.625-28.625-1-44l-45-63-1-8-10-70v-1c-0.625-5.25-2.375-10.125-5-14l-2-1v-1c-4.625-5.5-11-9.125-19-10h-2l-73-13-8-1-6-5-57-41c-10.625-7.625-29.625-8.625-45 1l-52 40-6 5-9 1-70 10h-1c-9.875 1.125-17.5 6.25-22 14-2 3.5-3.5 7.625-4 12v2l-13 73-1 8-5 6-41 57c-7.625 10.625-8.625 29.625 1 45l40 52 5 6 1 9 9 67c0.125 0.5 0.875 0.5 1 1 4 15.625 16.375 28 32 32 0.5 0.125 0.5 0.875 1 1l75 10 7 5 57 41c5.375 3.75 12.625 6 20 6zM733 312l49-75h-77l-8-20-22-51-68 104 15 11 63 11v-1c0.75 0.125 1.25 0.875 2 1 17.25 2.375 32.875 9.625 46 20zM291 311c13.625-12.25 31-20.75 50-23 0.375 0 0.625 0 1 0l61-8 14-11-68-103-22 51-8 20h-77z" />
<glyph unicode="&#xe955;" glyph-name="aws" d="M210.688 671.688c-43.52 0-87.702-16.97-95.063-26.25-1.92-3.84-6.372-34.875 4.188-34.875 3.52 0 5.135-0.612 15.375 4.188 38.4 15.040 62.73 14.687 66.25 14.687 43.2 4.16 68.152-25.295 64.312-63.375v-22.375c-36.48 8.64-57.322 8.938-67.562 8.938-53.12 3.2-102.188-24.807-102.188-86.375 0-67.52 60.265-81.96 83.625-81 34.88-0.32 68.17 15.363 90.25 42.563 17.6-39.36 28.805-36.75 29.125-36.75 3.2 0 5.752 1.275 8.312 2.875l18.25 12.813c3.2 1.92 5.742 5.097 6.062 8.937-0.32 9.28-16.967 23.68-15.687 56v99.813c1.92 27.52-7.003 54.45-25.562 75.25-22.080 18.56-51.208 27.498-79.688 24.938zM830.625 671.688c-64 0-100.772-39.985-99.812-80.625 0-55.68 56.287-73.33 62.687-75.25 54.080-16.96 61.46-17.575 76.5-30.375 12.8-13.12 11.193-38.738-7.687-49.938-5.44-3.2-28.825-17.255-81.625-6.375-17.6 3.52-26.85 7.67-41.25 13.75-3.84 1.28-12.813 3.527-12.813-8.313v-15.687c0-7.36 4.468-14.050 11.188-17.25 33.6-16.96 73.922-17.625 82.562-17.625 1.28 0 74.86-0.039 99.5 49.625 5.088 10.24 18.265 47.625-6.375 79.625-20.48 24-38.082 26.563-90.562 42.563-4.48 1.28-43.195 11.238-42.875 38.437-1.92 34.88 45.455 36.765 55.375 36.125 40 0.64 59.807-14.353 70.687-15.313 4.8 0 7.062 2.85 7.062 9.25v14.75c0.32 3.52-0.955 6.995-2.875 9.875-12.8 16.64-61.768 22.75-79.688 22.75zM344.875 663.688c-3.52-0.64-6.078-4.168-5.438-7.688 0.64-4.16 1.275-8.34 2.875-12.5l71.687-236.438c1.6-7.68 6.675-16.030 17.875-14.75h26.25c16-1.6 18.242 13.775 18.562 15.375l47.063 197.125 47.687-197.438c0.32-1.6 2.57-16.975 18.25-15.375h26.562c11.52-1.28 16.963 7.070 18.563 14.75 80.64 259.52 75.172 241.877 75.812 244.437 1.28 13.44-6.407 12.507-7.687 12.188h-28.5c-14.4 1.6-17.235-11.55-17.875-14.75l-53.125-205.125-48 205.125c-2.24 15.68-15.050 15.070-18.25 14.75h-24.625c-14.080 1.28-17.602-9.95-18.562-14.75l-47.687-202.25-51.188 202.25c-1.28 6.4-5.458 16.343-17.938 15.063h-32.312zM208.75 515.5c23.040-0.32 42.928-3.8 56.688-7 0-16 0.582-24.975-2.938-39.375-4.48-15.36-24.28-43.235-71-43.875-26.88-1.28-44.475 19.875-42.875 43.875-1.6 38.4 38.045 47.975 60.125 46.375zM929.313 319.938c-29.868-0.416-65.123-7.107-91.875-25.875-8.256-5.728-6.809-13.681 2.375-12.625 30.080 3.616 97.032 11.734 109-3.562 12-15.296-13.27-78.401-24.438-106.625-3.456-8.416 3.85-11.9 11.562-5.5 50.048 41.92 63.053 129.797 52.813 142.437-5.136 6.32-29.57 12.166-59.438 11.75zM38.938 287.938c-6.978-0.96-9.984-9.805-2.688-16.813 125.344-117.568 290.971-175.125 474.875-175.125 131.168 0 283.442 42.798 388.562 123.438 17.376 13.408 2.574 33.498-15.25 25.562-117.856-52-245.863-77.062-362.375-77.062-172.672 0-339.83 36.050-475.062 117.938-2.96 1.792-5.736 2.382-8.062 2.062z" />
<glyph unicode="&#xe956;" glyph-name="baby-carriage-solid" d="M576 832v-288h-266c-7.375 17.375-19.125 40.625-39 67-33.75 44.875-91.625 93-175 93v-64c59.375 0 97.5-31.875 124-67 25.25-33.5 35-65 36-68 2.625-108.5 66.625-202.25 158-249-51.75-1.125-94-44-94-96 0-52.625 43.375-96 96-96s96 43.375 96 96c0 28.375-12.25 54.375-32 72 20.625-4.75 42-8 64-8h96c22 0 43.375 3.25 64 8-19.75-17.625-32-43.625-32-72 0-52.625 43.375-96 96-96s96 43.375 96 96c0 52-42.25 94.875-94 96 84.25 43.125 144.875 126.25 156 224 1 9.25 1.875 18.5 2 28 0 0.625 0 1.375 0 2 0 0 0.25 5.25 0 14v20h-2c-2.375 30.625-8.75 77-32 126-38.125 80.25-124.5 162-286 162zM640 764c115.625-9.5 169.375-63.875 197-122 18.875-39.875 23.125-73.375 25-98h-222zM327 480h530c-16.25-107.625-105-192-217-192h-96c-112 0-200.75 84.375-217 192zM416 192c18 0 32-14 32-32s-14-32-32-32c-18 0-32 14-32 32s14 32 32 32zM768 192c18 0 32-14 32-32s-14-32-32-32c-18 0-32 14-32 32s14 32 32 32z" />
<glyph unicode="&#xe957;" glyph-name="baby-solid" d="M512 896c-70.375 0-128-57.625-128-128s57.625-128 128-128c70.375 0 128 57.625 128 128s-57.625 128-128 128zM512 832c35.75 0 64-28.25 64-64s-28.25-64-64-64c-35.75 0-64 28.25-64 64s28.25 64 64 64zM512 608c-213.375 0-317-210-317-210l58-28c0 0 44.625 87.125 131 138v-195c-13-4.625-30-11.625-49-22-17.25-9.375-34.875-21.5-50-38s-28.125-38.625-29-65c-1.5-49.875 26.625-94.75 52-132s51-66 51-66l48 44c0 0-23.375 24.875-46 58s-41.625 75.375-41 94c0.25 7.75 3.875 15.125 12 24s20.75 17.75 34 25c13.25 7.25 26.125 12.375 36 16 18.125-24.25 53.5-59 110-59 55.625 0 90.5 33.75 109 58 9.625-3.625 21.25-8.5 33-15 13.375-7.25 26.125-16.25 34-25s11-16.25 11-24c0-19.875-19.75-60.875-42-93s-44-56-44-56l46-44c0 0 25.875 27.75 51 64s53 79.875 53 129c0 26.75-12.875 50.25-28 67s-32.625 28.5-50 38c-16.25 8.875-32.375 15.375-45 20v197c86.375-50.875 131-138 131-138l58 28c0 0-103.625 210-317 210zM512 544c22.875 0 44.125-2.625 64-8v-238c-3.5-6.625-22.625-42-64-42s-60.5 35.375-64 42v238c19.875 5.375 41.125 8 64 8z" />
<glyph unicode="&#xe958;" glyph-name="backspace-solid" d="M371 736l-10-9-256-256-22-23 22-23 256-256 10-9h557v576zM398 672h466v-448h-466l-224 224zM485 584l-45-45 91-91-91-91 45-45 91 91 91-91 45 45-91 91 91 91-45 45-91-91z" />
<glyph unicode="&#xe959;" glyph-name="backward-solid" d="M544 800l-51-38-384-288-34-26 34-26 435-326v236l269-198 51-37v702l-51-37-269-198zM800 673v-450l-269 198-36 27 36 27zM480 672v-448l-298 224z" />
<glyph unicode="&#xe95a;" glyph-name="bacon-solid" d="M334 800c-90.25 0-163-72-163-72l-11-10v-238h46l9 7c5.875 4.625 24.5 19.5 48 33s51.375 24 71 24c26.875 0 49.5-6.875 77-15s59.875-17 101-17c41.125 0 72.25 9 99 17s49.25 15 79 15c23.625 0 52-11.25 75-25s38.75-27.375 43-31l9-8h47v238l-11 10c0 0-72.75 72-163 72-40.375 0-71.375-9-98-17s-49.25-15-80-15c-30.75 0-53.375 7-80 15s-57.625 17-98 17zM334 736c30.75 0 53.375-7 80-15s57.625-17 98-17c40.375 0 71.375 9 98 17s49.25 15 80 15c44.75 0 95.125-36.625 110-48v-21c-1.875 1.125-3 1.875-5 3-28.125 16.75-65.375 34-105 34-37.125 0-65.375-9-92-17s-52-15-86-15c-34 0-60.75 7-88 15s-55.125 17-90 17c-37.5 0-74.25-17.375-103-34-3-1.75-4.25-3.25-7-5v23c14.875 11.375 65.25 48 110 48zM334 672c29.5 0 53.625-7 81-15s58.25-17 97-17c38.75 0 68.25 9 95 17s50.75 15 83 15c29.75 0 63.375-14.75 89-30 8.625-5.125 14.75-9.5 21-14v-55c-1 0.625-1 0.375-2 1-28.375 16.875-65.5 34-108 34-39.625 0-70.375-9-97-17s-49.25-15-81-15c-31.75 0-55.875 7.125-83 15s-57.5 17-95 17c-39.5 0-74.625-16.75-103-33-3.625-2.125-3.625-2.875-7-5v57c7 4.625 13.5 9.5 23 15 26.375 15.375 60.125 30 87 30zM334 416c-90.25 0-163-72-163-72l-11-10v-238h46l9 7c5.875 4.625 24.5 19.5 48 33s51.375 24 71 24c26.875 0 49.5-6.875 77-15s59.875-17 101-17c41.125 0 72.25 9 99 17s49.25 15 79 15c23.625 0 52-11.25 75-25s38.75-27.375 43-31l9-8h47v238l-11 10c0 0-72.75 72-163 72-40.375 0-71.375-9-98-17s-49.25-15-80-15c-30.75 0-53.375 7-80 15s-57.625 17-98 17zM334 352c30.75 0 53.375-7 80-15s57.625-17 98-17c40.375 0 71.375 9 98 17s49.25 15 80 15c44.75 0 95.125-36.625 110-48v-53c-1.875 1.125-3 1.875-5 3-28.125 16.75-65.375 34-105 34-37.125 0-65.375-9-92-17s-52-15-86-15c-34 0-60.75 7-88 15s-55.125 17-90 17c-37.5 0-74.25-17.375-103-34-3-1.75-4.25-3.25-7-5v55c14.875 11.375 65.25 48 110 48zM334 256c29.5 0 53.625-7 81-15s58.25-17 97-17c38.75 0 68.25 9 95 17s50.75 15 83 15c29.75 0 63.375-14.75 89-30 8.625-5.125 14.75-9.5 21-14v-23c-1 0.625-1 0.375-2 1-28.375 16.875-65.5 34-108 34-39.625 0-70.375-9-97-17s-49.25-15-81-15c-31.75 0-55.875 7.125-83 15s-57.5 17-95 17c-39.5 0-74.625-16.75-103-33-3.625-2.125-3.625-2.875-7-5v25c7 4.625 13.5 9.5 23 15 26.375 15.375 60.125 30 87 30z" />
<glyph unicode="&#xe95b;" glyph-name="balance-scale-left-solid" d="M752.75 796.5l-167.75-62.938c-17.625 20.866-43.617 34.438-73 34.438-52.928 0-96-43.072-96-96 0-0.685 0.173-1.319 0.187-2l-160.187-62-160-280v-8.5c0-88.192 71.776-159.5 160-159.5s160 71.308 160 159.5v8.5l-127.688 223.5 150.875 58.687c10.834-12.743 24.759-22.585 40.813-28.312v-453.875h192v64h-128v389.875c37.16 13.257 64 48.474 64 90.125 0 0.6-0.176 1.153-0.187 1.75l134.938 50.625-134.75-235.875v-8.5c0-88.224 71.776-160 160-160s160 71.776 160 160v8.5l-143.687 251.438-31.562 56.562zM512 704c17.664 0 32-14.368 32-32s-14.336-32-32-32c-17.664 0-32 14.368-32 32s14.336 32 32 32zM768 639.5l72.875-127.5h-145.75l72.875 127.5zM256 479l72.562-127h-145.125l72.562 127zM677.938 448h180.125c-13.256-37.173-48.393-64-90.062-64s-76.807 26.827-90.062 64zM165.75 288h180.5c-13.129-37.407-48.413-64.5-90.25-64.5s-77.121 27.093-90.25 64.5z" />
<glyph unicode="&#xe95c;" glyph-name="balance-scale-right-solid" d="M271.25 796.5l-31.562-56.562-143.688-251.438v-8.5c0-88.224 71.776-160 160-160s160 71.776 160 160v8.5l-134.75 235.875 134.937-50.625c-0.011-0.597-0.187-1.15-0.187-1.75 0-41.651 26.84-76.868 64-90.125v-389.875h-128v-64h192v453.875c16.054 5.727 29.978 15.57 40.813 28.312l150.875-58.687-127.687-223.5v-8.5c0-88.192 71.776-159.5 160-159.5s160 71.308 160 159.5v8.5l-160 280-160.187 62c0.014 0.681 0.187 1.315 0.187 2 0 52.928-43.072 96-96 96-29.383 0-55.375-13.572-73-34.438l-167.75 62.938zM512 704c17.664 0 32-14.368 32-32s-14.336-32-32-32c-17.664 0-32 14.368-32 32s14.336 32 32 32zM256 639.5l72.875-127.5h-145.75l72.875 127.5zM768 479l72.562-127h-145.125l72.562 127zM165.938 448h180.125c-13.256-37.173-48.393-64-90.062-64s-76.807 26.827-90.062 64zM677.75 288h180.5c-13.113-37.436-48.392-64.5-90.25-64.5s-77.137 27.064-90.25 64.5z" />
<glyph unicode="&#xe95d;" glyph-name="balance-scale-solid" d="M512 800c-41.375 0-76.625-27-90-64h-230v-64h45l-9-16-128-224-4-8v-8c0-88 72-160 160-160s160 72 160 160v8l-4 8-128 224-9 16h147c9.75-27 31-48.25 58-58v-422h-128v-64h320v64h-128v422c26.875 9.75 48.25 31.125 58 58h147l-9-16-128-224-4-8v-8c0-88 72-160 160-160s160 72 160 160v8l-4 8-128 224-9 16h45v64h-230c-13.375 37-48.625 64-90 64zM512 736c18 0 32-14 32-32s-14-32-32-32c-18 0-32 14-32 32s14 32 32 32zM256 575l73-127h-146zM768 575l73-127h-146zM168 384h176c-12.875-37.125-46.25-64-88-64s-75.125 26.875-88 64zM680 384h176c-12.875-37.125-46.25-64-88-64s-75.125 26.875-88 64z" />
<glyph unicode="&#xe95e;" glyph-name="band-aid-solid" d="M635 864c-11.25-0.5-21-3-21-3l-7-3-505-505-3-7c0 0-2.5-9.75-3-21s0.875-27.375 6-46c10.125-37.25 35.75-86.75 95-146s108.75-84.875 146-95c18.625-5.125 34.75-6.5 46-6s21 3 21 3l7 3 505 505 3 7c0 0 2.5 9.75 3 21s-0.875 27.375-6 46c-10.125 37.25-35.75 86.75-95 146s-108.75 84.875-146 95c-18.625 5.125-34.75 6.5-46 6zM638 800h1c5 0.125 13.125-0.75 25-4 24.625-6.75 64.875-24.75 118-78l3-4c49.875-51 68.5-90.125 75-114 3.25-11.875 4.125-20 4-25 0-0.25 0-0.875 0-1l-478-478c-0.125 0-0.75 0-1 0-5-0.125-13.125 0.75-25 4-24.625 6.75-64.875 24.75-118 78l-4 5c-49 50.375-67.5 89.25-74 113-3.25 11.875-4.125 20-4 25 0 0.25 0 0.875 0 1zM608 672c-17.625 0-32-14.375-32-32s14.375-32 32-32c17.625 0 32 14.375 32 32s-14.375 32-32 32zM704 672c-17.625 0-32-14.375-32-32s14.375-32 32-32c17.625 0 32 14.375 32 32s-14.375 32-32 32zM519 583l-46-46 128-128 46 46zM704 576c-17.625 0-32-14.375-32-32s14.375-32 32-32c17.625 0 32 14.375 32 32s-14.375 32-32 32zM423 487l-46-46 128-128 46 46zM320 384c-17.625 0-32-14.375-32-32s14.375-32 32-32c17.625 0 32 14.375 32 32s-14.375 32-32 32zM320 288c-17.625 0-32-14.375-32-32s14.375-32 32-32c17.625 0 32 14.375 32 32s-14.375 32-32 32zM416 288c-17.625 0-32-14.375-32-32s14.375-32 32-32c17.625 0 32 14.375 32 32s-14.375 32-32 32z" />
<glyph unicode="&#xe95f;" glyph-name="bandcamp" d="M512 864c-229.376 0-416-186.624-416-416s186.624-416 416-416c229.376 0 416 186.624 416 416s-186.624 416-416 416zM512 800c194.080 0 352-157.92 352-352s-157.92-352-352-352c-194.080 0-352 157.92-352 352s157.92 352 352 352zM428.25 576l-128-256h295.5l128 256h-295.5zM467.75 512h152.5l-64-128h-152.5l64 128z" />
<glyph unicode="&#xe960;" glyph-name="ban-solid" d="M512 864c-229.375 0-416-186.625-416-416s186.625-416 416-416c229.375 0 416 186.625 416 416s-186.625 416-416 416zM512 800c194.75 0 352-157.25 352-352 0-87.25-31.625-166.625-84-228l-491 501c60.625 49.625 138.25 79 223 79zM244 676l491-501c-60.625-49.625-138.25-79-223-79-194.75 0-352 157.25-352 352 0 87.25 31.625 166.625 84 228z" />
<glyph unicode="&#xe961;" glyph-name="barcode-solid" d="M64 736v-576h64v576zM192 736v-576h192v576zM448 736v-576h64v576zM576 736v-576h128v576zM768 736v-576h64v576zM896 736v-576h64v576z" />
<glyph unicode="&#xe962;" glyph-name="bars-solid" d="M128 736v-64h768v64zM128 480v-64h768v64zM128 224v-64h768v64z" />
<glyph unicode="&#xe963;" glyph-name="baseball-ball-solid" d="M512 864c-229.376 0-416-186.624-416-416s186.624-416 416-416c229.376 0 416 186.624 416 416s-186.624 416-416 416zM512 800c98.897 0 188.242-41.162 252.25-107.062-33.168-23.973-60.934-54.619-82-90.688l55-32.312c16.922 29.055 39.936 53.937 67.375 73.437 37.469-55.936 59.375-123.146 59.375-195.375s-21.906-139.439-59.375-195.375c-27.759 19.82-51.070 45.055-68.312 74.75l-55.375-32c21.068-36.389 49.504-67.7 83.312-92.313-64.008-65.901-153.353-107.062-252.25-107.062s-188.242 41.162-252.25 107.062c33.809 24.612 62.245 55.923 83.312 92.313l-55.375 32c-17.242-29.695-40.553-54.93-68.312-74.75-37.469 55.936-59.375 123.146-59.375 195.375s21.906 139.439 59.375 195.375c27.439-19.501 50.453-44.382 67.375-73.437l55 32.312c-21.066 36.068-48.832 66.714-82 90.688 64.008 65.901 153.353 107.062 252.25 107.062zM370.562 537.25l-61.125-18.875c7.040-23.040 10.562-46.695 10.562-70.375 0-23.36-3.218-46.413-9.938-68.813l61.125-18.25c8.64 28.16 12.813 57.622 12.813 87.062 0 30.080-4.478 60.13-13.438 89.25zM653.438 537.25c-8.96-29.12-13.438-59.17-13.438-89.25 0-29.44 4.173-58.902 12.813-87.062l61.125 18.25c-6.72 22.4-9.938 45.453-9.938 68.813 0 23.68 3.522 47.335 10.562 70.375l-61.125 18.875z" />
<glyph unicode="&#xe964;" glyph-name="basketball-ball-solid" d="M512 864c-229.375 0-416-186.625-416-416s186.625-416 416-416c229.375 0 416 186.625 416 416s-186.625 416-416 416zM476 798c1.375 0.125 2.625-0.125 4 0v-318h-98c-6.875 90-41.875 172.125-97 237 52.625 44.5 118.375 73.625 191 81zM544 798c74.125-6.625 141.375-35.625 195-81-55.125-64.875-90.125-147-97-237h-98zM240 671c43.75-53 71.375-118.625 78-191h-156c6.5 72.375 34.5 138 78 191zM784 671c43.5-53 71.5-118.625 78-191h-156c6.625 72.375 34.25 138 78 191zM162 416h156c-6.625-72.375-34.25-138-78-191-43.5 53-71.5 118.625-78 191zM382 416h98v-318c-74.125 6.625-141.375 35.625-195 81 55.125 64.875 90.125 147 97 237zM544 416h98c6.875-90 41.875-172.125 97-237-53.625-45.375-120.875-74.375-195-81zM706 416h156c-6.5-72.375-34.5-138-78-191-43.75 53-71.375 118.625-78 191z" />
<glyph unicode="&#xe965;" glyph-name="bath-solid" d="M832 832c-70.75 0-128-57.25-128-128h-64v-64h192v64h-64c0 38.125 25.875 64 64 64s64-25.875 64-64v-192h-864v-64h38l49-243v-1c7.375-33 31.875-60.125 64-71l-23-69h64l21 64h534l21-64h64l-23 69c33.5 10.25 59.5 37.125 67 71v1l46 243h38v64h-32v192c0 70.75-57.25 128-128 128zM135 448h755l-45-231c-3.75-13.875-15.5-25-32-25h-599c-17.125 0-28.75 11.375-32 26z" />
<glyph unicode="&#xe966;" glyph-name="battery-empty-solid" d="M96 704v-512h768v160h64v192h-64v160zM160 640h640v-384h-640z" />
<glyph unicode="&#xe967;" glyph-name="battery-full-solid" d="M96 704v-512h768v160h64v192h-64v160zM160 640h640v-384h-640zM224 576v-256h512v256z" />
<glyph unicode="&#xe968;" glyph-name="battery-half-solid" d="M96 704v-512h768v160h64v192h-64v160zM160 640h640v-384h-640zM224 576v-256h256v256z" />
<glyph unicode="&#xe969;" glyph-name="battery-quarter-solid" d="M96 704v-512h768v160h64v192h-64v160zM160 640h640v-384h-640zM224 576v-256h128v256z" />
<glyph unicode="&#xe96a;" glyph-name="battery-three-quarters-solid" d="M96 704v-512h768v160h64v192h-64v160zM160 640h640v-384h-640zM224 576v-256h448v256z" />
<glyph unicode="&#xe96b;" glyph-name="battle-net" d="M850.5 501.125c0 0 73.75-3.75 73.75 39.625 0 56.625-98.25 107.625-98.25 107.625s15.375 32.625 25 50.875c9.625 18.25 36.625 89.25 39 105.5 3 20.5-1.625 26.875-1.625 26.875-6.625-43.75-77.875-169.75-83.625-174-69.5 32.5-165 41.625-165 41.625s-93.5 196.75-181.5 196.75c-87.25 0-86.75-168.5-86.75-168.5s-24.625 47.75-55.625 47.75c-45.25 0-60.125-68.25-60.125-142.375-89.25 0-164.375-20-171.125-21.875-6.625-1.875-27.75-17.25-18.25-15.375 19.625 6.25 111.375 20.5 191.625 13.5 4.5-70.375 45.625-162.125 45.625-162.125s-88.25-127.75-88.25-218.875c0-24 10.5-67.875 73.75-67.875 53.125 0 112.75 31.875 123.875 38.25-9.75-13.875-17-40.5-17-52.75 0-10 6-38.375 46.875-38.375 52.5 0 111.25 40.25 111.25 40.25s55.5-92 102.875-134.125c12.75-11.375 25-13.5 25-13.5s-47.125 45.25-109.125 162c57.625 35.5 117.625 119.5 117.625 119.5s7.125-0.25 61.875-0.25c85.75 0 207.5 18 207.5 86.125 0.125 70.25-109.375 133.75-109.375 133.75zM860 543.5c0-24.875-23.625-24.625-23.625-24.625l-18-1.125c0 0-34.125 17.875-54.875 26.375 0 0 32.125 49.375 39.625 63.125 5.625-3.375 56.875-35.375 56.875-63.75zM501.125 796.875c40.375 0 97.875-95 97.875-95s-89.75 8-163.625-35.375c2 68.375 25 130.375 65.75 130.375zM341.5 719.875c12.75 0 25.25-15.625 30.5-28.75 0-8.75 4.5-59.75 4.5-59.75l-74 2.875c0 66.625 26.125 85.625 39 85.625zM333.75 256.75c-40.5 0-48.75 22.5-48.75 42.75 0 45.875 36.625 110.125 36.625 110.125s41.125-86.375 112.75-122.75c-35.5-20.875-64.875-30.125-100.625-30.125zM465.125 166.375c-28.375 0-31.875 18.375-31.875 22.625 0 13.125 10.375 28.75 10.375 28.75s47.625 32.125 50.625 35.625l35.25-65.75c0 0-36-21.25-64.375-21.25zM553.625 202.125c-17.25 30.125-30 61.625-30 61.625s70.875-4.5 109 34.75c-23.75-10.625-61.625-24.125-105.625-20 92 81 145.75 139.75 191.125 200.375-3.875 4.75-24.625 19.25-29.75 21.625-27.375-33-134-146.875-232.75-203.25-125 68.125-151.25 268.5-153.875 310.125l68.25-6.5c0 0-25.625-45.5-25.625-79 0-33.375 4-35.125 4-35.125s-0.875 58.25 35.125 103.25c27.5-146 56.125-220.75 78.375-265.375 11.375 4.75 32.5 14.125 32.5 14.125s-63 181.625-59.5 304.5c28.625 15.25 71 31 118.75 31 125.75 0 226.875-54 226.875-54l-39.5-55.25c0 0-35.25 63.75-85.125 75.125 26.25-19.5 55.75-45.375 71-82.5-104.25 40.625-230 62.125-270.375 66.875-3.5-14.875-3-36.125-3-36.125s168.625-31.125 291.375-101.25c-0.875-153.5-168.125-271.375-191.25-285zM713.375 316.875c0 0 52.375 68.625 51.5 159.625 0 0 84.625-52.375 84.625-103.5 0-57-136.125-56.125-136.125-56.125z" />
<glyph unicode="&#xe96c;" glyph-name="bed-solid" d="M192 768c-52.625 0-96-43.375-96-96v-217c-19.5-17.625-32-42.875-32-71v-288h160v64h576v-64h160v288c0 28.125-12.5 53.375-32 71v217c0 52.625-43.375 96-96 96zM192 704h640c17.75 0 32-14.25 32-32v-192h-64v32c0 52.625-43.375 96-96 96h-128c-24.5 0-47-9.625-64-25-17 15.375-39.5 25-64 25h-128c-52.625 0-96-43.375-96-96v-32h-64v192c0 17.75 14.25 32 32 32zM320 544h128c17.75 0 32-14.25 32-32v-32h-192v32c0 17.75 14.25 32 32 32zM576 544h128c17.75 0 32-14.25 32-32v-32h-192v32c0 17.75 14.25 32 32 32zM160 416h704c17.75 0 32-14.25 32-32v-224h-32v64h-704v-64h-32v224c0 17.75 14.25 32 32 32z" />
<glyph unicode="&#xe96d;" glyph-name="beer-solid" d="M432 832c-39.875 0-73.875-18.625-100-45-14.25 5.5-27.75 13-44 13-70.375 0-128-57.625-128-128 0-32.875 13.375-62.25 34-85-1.25-3.5-2-7.25-2-11v-416c0-52.625 43.375-96 96-96h384c52.625 0 96 43.375 96 96v64h32c52.625 0 96 43.375 96 96v128c0 52.625-43.375 96-96 96h-32v38c0.25 2.375 0.25 4.625 0 7 19.5 22.5 32 51.125 32 83 0 70.375-57.625 128-128 128-23.875 0-45-8.5-64-20-19 11.5-40.125 20-64 20-8.25 0-14.75-2.5-22-4-24.875 20.875-55 36-90 36zM432 768c23.5 0 44.125-10.625 59-27l14-15 20 6c7.125 2.375 12.875 4 19 4 16.375 0 31.375-6.5 43-17l21-19 21 19c11.625 10.5 26.625 17 43 17 35.75 0 64-28.25 64-64s-28.25-64-64-64c-35.5 0-87 15-87 15l-41 12v-43c0-44.875 9.625-79.125 18-105s14-42.375 14-55c0-26.875-21.125-48-48-48s-48 21.125-48 48c0 12.625 5.625 30.125 14 56s18 59.375 18 104v57l-48-30c0 0-5.75-2.875-13-6s-16.375-5-19-5c-20.625 0-39.5 7.875-54 21l-23 21-21-22c-11.75-12.125-27.75-20-46-20-35.75 0-64 28.25-64 64s28.25 64 64 64c13 0 24.75-4.375 35-11l26-16 18 25c14.5 20.625 37.75 34 65 34zM358 568c21.875-13.625 46.375-24 74-24 3.375 0 4.875 1.625 8 2-2.625-12.375-2.5-28.25-6-39-7.625-23.5-18-46-18-75 0-61.5 50.5-112 112-112s112 50.5 112 112c0 29-10.375 51.625-18 75-4.125 12.75-5.25 30.75-8 46 20.5-4.75 29.75-9 58-9 11 0 21.75 2.375 32 5v-27c-1.875-6.25-1.875-12.75 0-19v-241c-0.875-4.25-0.875-8.75 0-13v-89c0-18.125-13.875-32-32-32h-384c-18.125 0-32 13.875-32 32v389c10.25-2.625 21-5 32-5 26.375 0 49.625 10.25 70 24zM768 480h32c18.125 0 32-13.875 32-32v-128c0-18.125-13.875-32-32-32h-32z" />
<glyph unicode="&#xe96e;" glyph-name="behance" d="M32 744v-592h286c26.5 0 209 5.375 209 172 0 104.125-71.625 139.5-108 150 26.75 12.625 80 42.625 80 123 0 44.75-6.375 147-189 147zM684 689v-54h221v54zM162 643h122c11.5 0 89 6.125 89-68 0-63.375-56-70-79-70h-132zM800 586c-167.125 0-202-145.125-202-208 0-186.625 153-208 202-208 132.125 0 169.625 85.5 185 133h-96c-3.75-12.25-31.75-52-85-52-89.25 0-97 69.75-97 101h284c5.75 108-41.5 234-191 234zM797 505c26.625 0 48.125-7.75 61-22 12.875-14.375 22.375-35.375 25-63h-176c0.5 7.625 2.25 16.375 5 26 2.75 9.875 7 19.25 14 28 7 8.625 16.75 16.125 28 22 11.5 6 25.75 9 43 9zM162 416h141c28 0 94-4.375 94-85 0-78.125-83.125-78-96-78h-139z" />
<glyph unicode="&#xe96f;" glyph-name="behance-square" d="M160 800v-704h704v704h-704zM224 736h576v-576h-576v576zM288 596.187v-275.562h133.75c49.92 0.32 97 24.313 97 80.313 0 34.88-16.65 64.338-50.25 73.938 24.64 12.16 37.438 25.605 37.438 53.125 0 55.040-40.64 68.187-88 68.187h-129.938zM580.5 576v-27.187h111.313v27.187h-111.313zM348.813 553.938h56.938c21.44 0 41.312-6.095 41.312-31.375 0-23.36-15.365-32.938-37.125-32.938h-61.125v64.313zM638.75 530.25c-60.48 0-101.813-45.152-101.813-105.312 0-62.080 38.773-104.938 101.813-104.938 47.68 0 78.717 21.427 93.437 67.187h-48.375c-5.44-16.96-26.548-25.937-43.188-25.938-32.32 0-48.938 18.883-48.938 50.563h143.688c0.32 3.2 0.625 7.042 0.625 10.562 0 58.88-34.85 107.875-97.25 107.875zM636.813 489.25c27.84 0 41.572-16.315 43.812-42.875h-88.938c1.6 26.24 18.885 42.875 45.125 42.875zM348.5 443.813h66.25c26.56 0 43.5-11.145 43.5-39.625 0-27.52-20.172-36.187-44.812-36.187h-64.938v75.813z" />
<glyph unicode="&#xe970;" glyph-name="bell" d="M512 864c-35.375 0-64-28.625-64-64 0-2.75 0.625-5.375 1-8-110.625-28.25-193-128.75-193-248v-288c0-18.125-13.875-32-32-32h-32v-64h230c-3.625-10.125-6-20.75-6-32 0-52.625 43.375-96 96-96s96 43.375 96 96c0 11.25-2.375 21.875-6 32h230v64h-32c-18.125 0-32 13.875-32 32v279c0 120.25-80.375 227.5-193 257 0.375 2.625 1 5.25 1 8 0 35.375-28.625 64-64 64zM498 736c4.625 0.375 9.25 0 14 0 2 0 4 0 6 0 104.5-3.125 186-94.75 186-201v-279c0-11.25 2.375-21.875 6-32h-396c3.625 10.125 6 20.75 6 32v288c0 101.625 78.25 184.75 178 192zM512 160c18 0 32-14 32-32s-14-32-32-32c-18 0-32 14-32 32s14 32 32 32z" />
<glyph unicode="&#xe971;" glyph-name="bell-slash" d="M119 887l-46-46 832-832 46 46-119 119v50h-32c-17.625 0-32 14.375-32 32v279c0 122.5-82.625 226.5-193 256 0.375 3 1 5.875 1 9 0 35.375-28.625 64-64 64s-64-28.625-64-64c0-2.75 0.625-5.375 1-8-42.875-10.875-82.375-32.375-115-64-9.625-9.25-18.125-19.625-26-30zM498 736c6.5 0.5 13.5 0.25 20 0 102.625-3.125 186-93.125 186-201v-233l-350 350c7.125 10.5 14.625 21 24 30 32.875 32 74.875 50.875 120 54zM257 568c-0.75-8.125-1-15.75-1-24v-288c0-17.625-14.375-32-32-32h-32v-64h230c-3.625-10.125-6-20.75-6-32 0-52.625 43.375-96 96-96s96 43.375 96 96c0 11.25-2.375 21.875-6 32h64l-64 64h-288c3.625 10 6 20.75 6 32v250zM512 160c18 0 32-14 32-32s-14-32-32-32c-18 0-32 14-32 32s14 32 32 32z" />
<glyph unicode="&#xe972;" glyph-name="bell-slash-solid" d="M119 887l-46-46 832-832 46 46-119 119v50h-32c-17.625 0-32 14.375-32 32v279c0 122.5-82.625 226.5-193 256 0.375 3 1 5.875 1 9 0 35.375-28.625 64-64 64s-64-28.625-64-64c0-2.75 0.625-5.375 1-8-42.875-10.875-82.375-32.375-115-64-9.625-9.25-18.125-19.625-26-30zM498 736c6.5 0.5 13.5 0.25 20 0 102.625-3.125 186-93.125 186-201v-233l-350 350c7.125 10.5 14.625 21 24 30 32.875 32 74.875 50.875 120 54zM257 568c-0.75-8.125-1-15.75-1-24v-288c0-17.625-14.375-32-32-32h-32v-64h230c-3.625-10.125-6-20.75-6-32 0-52.625 43.375-96 96-96s96 43.375 96 96c0 11.25-2.375 21.875-6 32h64l-64 64h-288c3.625 10 6 20.75 6 32v250zM512 160c18 0 32-14 32-32s-14-32-32-32c-18 0-32 14-32 32s14 32 32 32z" />
<glyph unicode="&#xe973;" glyph-name="bell-solid" d="M512 864c-35.375 0-64-28.625-64-64 0-2.75 0.625-5.375 1-8-110.625-28.25-193-128.75-193-248v-288c0-18.125-13.875-32-32-32h-32v-64h230c-3.625-10.125-6-20.75-6-32 0-52.625 43.375-96 96-96s96 43.375 96 96c0 11.25-2.375 21.875-6 32h230v64h-32c-18.125 0-32 13.875-32 32v279c0 120.25-80.375 227.5-193 257 0.375 2.625 1 5.25 1 8 0 35.375-28.625 64-64 64zM498 736c4.625 0.375 9.25 0 14 0 2 0 4 0 6 0 104.5-3.125 186-94.75 186-201v-279c0-11.25 2.375-21.875 6-32h-396c3.625 10.125 6 20.75 6 32v288c0 101.625 78.25 184.75 178 192zM512 160c18 0 32-14 32-32s-14-32-32-32c-18 0-32 14-32 32s14 32 32 32z" />
<glyph unicode="&#xe974;" glyph-name="bezier-curve-solid" d="M384 768v-96h-198c-13.375 37-48.625 64-90 64-52.625 0-96-43.375-96-96s43.375-96 96-96c41.375 0 76.625 27 90 64h74c-13.125-12.5-24.5-26.125-35-41-37-52.375-58.75-117-64-183h-97v-256h256v256h-94c5.25 53.5 22.75 106 51 146 27.5 39 62.875 66.25 107 75v-93h256v93c44.125-8.75 79.5-36 107-75 28.25-40 45.75-92.5 51-146h-94v-256h256v256h-97c-5.25 66-27 130.625-64 183-10.5 14.875-21.875 28.5-35 41h74c13.375-37 48.625-64 90-64 52.625 0 96 43.375 96 96s-43.375 96-96 96c-41.375 0-76.625-27-90-64h-198v96zM448 704h128v-128h-128zM96 672c18 0 32-14 32-32s-14-32-32-32c-18 0-32 14-32 32s14 32 32 32zM928 672c18 0 32-14 32-32s-14-32-32-32c-18 0-32 14-32 32s14 32 32 32zM128 320h128v-128h-128zM768 320h128v-128h-128z" />
<glyph unicode="&#xe975;" glyph-name="bible-solid" d="M288 832c-52.625 0-96-43.375-96-96v-576c0-52.625 43.375-96 96-96h544v768zM288 768h480v-512h-480c-11.25 0-21.875-2.375-32-6v486c0 18.125 13.875 32 32 32zM480 704v-96h-96v-64h96v-224h64v224h96v64h-96v96zM288 192h480v-64h-480c-18.125 0-32 13.875-32 32s13.875 32 32 32z" />
<glyph unicode="&#xe976;" glyph-name="bicycle-solid" d="M608 768v-46l3-6 33-76h-278l-10-14-87-123c-19.375 6-39.75 9-61 9-114.625 0-208-93.25-208-208s93.25-208 208-208c109.25 0 198.625 84.875 207 192h110l10 14 156 230 21-48c-62.125-36.125-104-103.5-104-180 0-114.25 93.75-208 208-208s208 93.75 208 208c0 114.25-93.75 208-208 208-15.375 0-30.5-1.75-45-5l-86 197h99c9.125 0 16-6.875 16-16s-6.875-16-16-16v-64c43.75 0 80 36.25 80 80s-36.25 80-80 80zM256 736v-64h192l-32 64zM431 576h213l-129-190zM375 544l84-192h-267v-64h158c-8.125-71.75-68.125-128-142-128-79.375 0-144 64.625-144 144s64.625 144 144 144c49.875 0 94.125-25.5 120-64h72c-15.375 36.875-40.625 68.5-73 91zM816 448c79.375 0 144-64.625 144-144s-64.625-144-144-144c-79.375 0-144 64.625-144 144 0 50.375 26.625 94.25 66 120l65-149 58 26-63 145c6 0.75 11.875 2 18 2z" />
<glyph unicode="&#xe977;" glyph-name="biking-solid" d="M624 800c-61.5 0-112-50.5-112-112s50.5-112 112-112c61.5 0 112 50.5 112 112s-50.5 112-112 112zM624 736c26.875 0 48-21.125 48-48s-21.125-48-48-48c-26.875 0-48 21.125-48 48s21.125 48 48 48zM483 623c-16.25-1.625-32-9.625-43-23l-75-91c-25.875-31.5-14.625-81.25 22-99l110-54-29-160 63-11 34 184 4 24-22 11-133 64 76 92 130-105 9-7h171v64h-149l-121 97c-13.5 10.875-30.75 15.625-47 14zM272 384c-79 0-144-65-144-144s65-144 144-144c79 0 144 65 144 144s-65 144-144 144zM752 384c-79 0-144-65-144-144s65-144 144-144c79 0 144 65 144 144s-65 144-144 144zM272 320c44.125 0 80-35.875 80-80s-35.875-80-80-80c-44.125 0-80 35.875-80 80s35.875 80 80 80zM752 320c44.125 0 80-35.875 80-80s-35.875-80-80-80c-44.125 0-80 35.875-80 80s35.875 80 80 80z" />
<glyph unicode="&#xe978;" glyph-name="bimobject" d="M160 800v-704h704v704h-704zM224 736h576v-576h-576v576zM320 640v-346h95.5v51.813h1.375c12-35.424 39.083-57.813 104.875-57.813h25.375c137.6 0 154.625 49.458 154.625 123.25v52.063c0 73.824-17.048 122.938-155 122.937h-25.75c-44.736 0-97.187-12.342-103.875-57.75h-1.625v111.5h-95.5zM481.625 504.375h71.5c52.096 0.32 57.125-17.678 57.125-50.062v-34.063c0-32.384-5.029-50.437-57.125-50.437h-71.5c-43.072 0-65.812 9.733-65.812 53.125v28.375c0 43.744 22.74 53.062 65.812 53.062z" />
<glyph unicode="&#xe979;" glyph-name="binoculars-solid" d="M352 800c-63 0-113.25-46.125-124-106-60.5-15.25-113-54.625-136-117h-1l-68-191c-14.5-29.625-23-62.875-23-98 0-123.375 100.625-224 224-224 111.125 0 203.75 81.625 221 188 17.375-17.125 41-28 67-28s49.625 10.875 67 28c17.25-106.375 109.875-188 221-188 123.375 0 224 100.625 224 224 0 31.125-6.375 61-18 88l-73 204-1 1v1c-23.375 56.75-75.125 96.375-136 112-10.75 59.875-61 106-124 106-59.375 0-107.625-41.125-122-96h-76c-14.375 54.875-62.625 96-122 96zM352 736c38.125 0 64-25.875 64-64v-32h192v32c0 38.125 25.875 64 64 64s64-25.875 64-64v-29l29-3c47.5-5 88.5-38.125 107-81 0.25-0.625 0.75-1.375 1-2l24-68c-29.375 14.25-62.25 23-97 23-93.625 0-173.625-58.125-207-140-17.125 26.625-47.375 44-81 44s-63.875-17.375-81-44c-33.375 81.875-113.375 140-207 140-34.25 0-66.875-8.125-96-22l24 65v1c18.625 49.5 57.875 78.875 107 84l29 3v29c0 38.125 25.875 64 64 64zM224 448c88.75 0 160-71.25 160-160s-71.25-160-160-160c-88.75 0-160 71.25-160 160 0 22.625 5.625 43.5 14 63 0.5 1.25 0.5 2.75 1 4 25.25 54.875 80.375 93 145 93zM800 448c88.75 0 160-71.25 160-160s-71.25-160-160-160c-88.75 0-160 71.25-160 160s71.25 160 160 160zM512 352c18 0 32-14 32-32s-14-32-32-32c-18 0-32 14-32 32s14 32 32 32z" />
<glyph unicode="&#xe97a;" glyph-name="biohazard-solid" d="M435 819c-86.375-28.75-147-105.375-147-195 0-32 9.25-64.25 22-93-32 0-63.25-9-92-25-76.75-44.75-115.25-135.25-96-228l64 13c-12.75 64 12.75 128 64 160 67.25 38.375 159.25 9.75 204-67 22.375-38.375 29.625-80.375 20-122-9.625-38.375-32-69.75-64-89-51.25-28.75-122-19.75-170 25l-42-48c41.625-38.375 96.75-57 148-57 35.25 0 67 9 99 25 28.75 16 51 39.25 67 68 16-28.75 38.25-52 67-68s63.75-25 99-25c51.25 0 106.375 18.625 148 57l-42 48c-48-44.75-118.75-53.75-170-25-32 19.25-54.375 50.625-64 89-9.625 41.625-2.375 83.625 20 122 44.75 76.75 133.625 105.375 204 67 51.25-28.75 76.75-92.75 64-160l64-13c16 92.75-22.25 183.25-99 228-28.75 16-61 25-93 25 16 28.75 23 57.75 23 93 0 89.625-61.375 166.25-151 195l-19-61c64-19.25 106-73.25 106-134 0-80-70.375-144-160-144s-160 64-160 144c0 60.75 41 114.75 105 134zM512 640c-35.25 0-67.25-6-96-22 3.25-22.375 12.75-42.25 32-55 19.25 9.625 41.75 13 61 13s41.75-3.375 61-13c19.25 12.75 32 32.625 32 55-22.375 16-54.75 22-90 22zM512 448c19.25 0 32-12.75 32-32s-12.75-32-32-32c-19.25 0-32 12.75-32 32s12.75 32 32 32zM319 406c-10.75 0.75-21.375-1.25-31-6 6.375-67.25 41.625-127.625 96-166 16 9.625 25.75 24.75 29 44v13c-32 25.625-54.625 61.25-61 106-11.25 4.75-22.25 8.25-33 9zM707 403c-12.75 0-25.375-2.625-35-9-6.375-41.625-28.75-80.375-64-106v-13c3.25-19.25 16.25-35.375 29-45 57.625 38.375 92.625 99.75 99 167-9.625 3.25-19.375 6-29 6z" />
<glyph unicode="&#xe97b;" glyph-name="birthday-cake-solid" d="M512 920l-26-38c0 0-17.25-24.125-34-53-8.375-14.5-16.25-29.625-23-45s-13-29.5-13-48c0-52.625 43.375-96 96-96s96 43.375 96 96c0 18.5-6.25 32.625-13 48s-14.625 30.5-23 45c-16.75 28.875-34 53-34 53zM512 640h-96v-128h-192c-70.75 0-128-57.25-128-128 0-32.5 12-62.375 32-85v-235h768v235c20 22.625 32 52.5 32 85 0 70.75-57.25 128-128 128h-192v128zM512 804c2.125-3.5 1.875-3.25 4-7 7.625-13.125 15.75-27.125 21-39s7-22.875 7-22c0-17.75-14.25-32-32-32s-32 14.25-32 32c0-0.875 1.75 10.125 7 22s13.375 25.875 21 39c2.125 3.75 1.875 3.5 4 7zM480 576h64v-64h-64zM224 448h576c38.125 0 64-25.875 64-64s-25.875-64-64-64c-38.125 0-64 25.875-64 64h-64c0-38.125-25.875-64-64-64s-64 25.875-64 64h-64c0-38.125-25.875-64-64-64s-64 25.875-64 64h-64c0-38.125-25.875-64-64-64s-64 25.875-64 64c0 38.125 25.875 64 64 64zM320 299c23.5-26.5 57.75-43 96-43s72.5 16.5 96 43c23.5-26.5 57.75-43 96-43s72.5 16.5 96 43c23.5-26.5 57.75-43 96-43 11.125 0 21.75 2.375 32 5v-133h-640v133c10.25-2.625 20.875-5 32-5 38.25 0 72.5 16.5 96 43z" />
<glyph unicode="&#xe97c;" glyph-name="bitbucket" d="M512 800c-73.375 0-147-9.5-205-25-29-7.75-53.75-15.875-74-28s-41-30.25-41-59c0-7.125 1.75-14.125 4-20 4.75-24.375 84.875-441.625 93-482 3.875-19.25 16.125-33.5 30-44s29.75-18.375 49-25c38.5-13.25 88-21 144-21s105.25 7.75 144 21c19.375 6.625 36 14.25 50 25s27.125 24.875 30 45c0.625 4.5 6.75 43 16 91s21.25 108.125 33 168c22 112.625 40.5 209.375 43 222 2.25 5.875 4 12.875 4 20 0 28.75-20.75 46.875-41 59s-45 20.25-74 28c-58 15.5-131.625 25-205 25zM512 736c68 0 138.25-8.5 189-22 25.375-6.75 45.25-15 57-22 3.25-2 3.5-2.75 5-4-1.5-1.25-1.75-2-5-4-11.75-7-31.625-15.25-57-22-50.75-13.5-121-22-189-22s-138.25 8.5-189 22c-25.375 6.75-45.25 15-57 22-3.25 2-3.5 2.75-5 4 1.5 1.25 1.75 2 5 4 11.75 7 31.625 15.25 57 22 50.75 13.5 121 22 189 22zM271 612c11.375-4 23-7.5 36-11 58-15.5 131.625-25 205-25s147 9.5 205 25c13 3.5 24.625 7 36 11-8.875-43.5-15.75-75-31-153-7.5-38.25-13.375-72.5-20-108-0.375-0.5-0.75-0.125-4-4-4.5-5.375-12.75-14.5-26-23-26.5-17.125-74.375-36-160-36s-134.375 19-161 36c-13.25 8.5-20.5 16.625-25 22s-5 6-5 6c-21.75 112.25-37.125 193.25-50 260zM512 544c-52.625 0-96-43.375-96-96s43.375-96 96-96c52.625 0 96 43.375 96 96s-43.375 96-96 96zM512 480c18 0 32-14 32-32s-14-32-32-32c-18 0-32 14-32 32s14 32 32 32zM339 259c38.5-19.125 93.375-35 173-35 78.625 0 133.625 14.875 172 34-4.875-24.25-10.875-53-12-61-0.625-0.875-2.375-2-5-4-5.875-4.5-16.25-11-31-16-29.5-10-73.875-17-124-17s-93.75 6.875-123 17c-14.625 5-25.875 11.25-32 16s-6.375 7-6 5c-1 4.75-8.875 45.25-12 61z" />
<glyph unicode="&#xe97d;" glyph-name="bitcoin" d="M384 864v-96h-128v-640h128v-96h64v96h64v-96h64v96h48c96.875 0 176 79.125 176 176 0 66.625-37.125 125.125-92 155 37 32.375 60 80.25 60 133 0 96.875-79.125 176-176 176h-16v96h-64v-96h-64v96zM320 704h272c62.25 0 112-49.75 112-112s-49.75-112-112-112h-272zM320 416h304c62.25 0 112-49.75 112-112s-49.75-112-112-112h-304z" />
</font>
</defs>
</svg>
