<?xml version="1.0" standalone="no"?>
<!DOCTYPE svg PUBLIC "-//W3C//DTD SVG 1.1//EN" "http://www.w3.org/Graphics/SVG/1.1/DTD/svg11.dtd" >
<svg xmlns="http://www.w3.org/2000/svg">
<metadata>Generated by IcoMoon</metadata>
<defs>
<font id="thekoushikdurgas3" horiz-adv-x="1024">
<font-face units-per-em="1024" ascent="960" descent="-64" />
<missing-glyph horiz-adv-x="1024" />
<glyph unicode="&#x20;" horiz-adv-x="512" d="" />
<glyph unicode="&#xe900;" d="M222-48c0 0-20.604 180.622 156.88 200.773 0 0 75.947 0 75.947 0s0 34.987 0 34.987c0 0 53.423-22.947 107.52-2.56 0 0 1.707-32.427 1.707-32.427s88.747 0 88.747 0c0 0 154.547-15.429 145.2-200.773 0 0-576 0-576 0z" />
<glyph unicode="&#xe901;" d="M796.524-51.173c0 0 0 0 0 0s-569.033 0-569.033 0c0 0 0 0 0 0s-11.036 0-11.036 0c0 0 2.755 47.060 2.755 47.060 5.379 91.884 77.774 162.007 160.62 162.007 0 0 74.997 0 74.997 0s0-9.387 0-9.387c0 0-69.967 0-69.967 0-79.847 0-149.621-67.497-154.805-155.941 0 0-1.913-32.646-1.913-32.646s566.879 0 566.879 0c0 0-1.060 32.646-1.060 32.646-5.184 88.444-74.958 155.941-154.805 155.941 0 0-70.835 0-70.835 0s0 9.387 0 9.387c0 0 75.359 0 75.359 0 82.846 0 155.241-70.123 160.62-162.007 0 0 2.755-47.060 2.755-47.060s-10.53 0-10.53 0z" />
<glyph unicode="&#xe902;" d="M460.8 191.708c0 0 0-52.63 0-52.63 0-27.311 22.159-49.451 49.493-49.451s49.493 22.14 49.493 49.451c0 0 0 51.544 0 51.544 2.872 0.874 5.718 1.824 8.533 2.85 0 0 0-54.752 0-54.752 0-32.297-26.17-58.479-58.453-58.479s-58.453 26.182-58.453 58.479c0 0 0 56.373 0 56.373 3.092-1.222 6.223-2.347 9.387-3.385z" />
<glyph unicode="&#xe903;" d="M663.44 45.021c0 0-24.171-50.414-24.171-50.414-1.222-2.55-4.281-3.626-6.83-2.403s-3.626 4.281-2.403 6.83c0 0 23.344 48.69 23.344 48.69s-18.24 31.593-18.24 31.593c-1.414 2.449-0.575 5.58 1.874 6.994s5.58 0.575 6.994-1.874c0 0 19.627-33.994 19.627-33.994 1.011-1.752 0.865-3.85-0.194-5.422z" />
<glyph unicode="&#xe904;" d="M356.725 44.972c0 0 24.3-50.569 24.3-50.569 1.229-2.558 4.303-3.637 6.867-2.411s3.645 4.294 2.416 6.851c0 0-23.469 48.839-23.469 48.839s18.338 31.69 18.338 31.69c1.421 2.456 0.578 5.597-1.884 7.016s-5.61 0.577-7.032-1.88c0 0-19.732-34.099-19.732-34.099-1.017-1.757-0.869-3.862 0.195-5.438z" />
<glyph unicode="&#xe905;" d="M451.413 159.6c0 0 9.387 0 9.387 0s0-207.36 0-207.36c0 0-9.387 0-9.387 0s0 207.36 0 207.36z" />
<glyph unicode="&#xe906;" d="M559.787 157.893c0 0 9.387 0 9.387 0s0-207.36 0-207.36c0 0-9.387 0-9.387 0s0 207.36 0 207.36z" />
<glyph unicode="&#xe907;" d="M486 58c0 0 24 26 24 26s26-26 26-26c0 0-14-14-14-14s22-90 22-90c0 0-68 0-68 0s24 90 24 90c0 0-14 14-14 14z" />
<glyph unicode="&#xe908;" d="M539.399-47.379c0 0-24.188 90.271-24.188 90.271s5.029 1.509 5.029 1.509c0 0 3.335 3.543 3.335 3.543s25.582-95.475 25.582-95.475c0 0-9.759 0.152-9.759 0.152zM471.17-46.313c0 0 25.252 93.818 25.252 93.818s1.631-1.398 1.631-1.398c0 0 5.12-3.413 5.12-3.413s1.688-0.169 1.688-0.169c0 0-23.953-88.99-23.953-88.99s-9.739 0.152-9.739 0.152z" />
<glyph unicode="&#xe909;" d="M568.291 32.424c0 0-6.637-6.637-6.637-6.637s-25.827 25.827-25.827 25.827c-4.984-7.916-13.782-13.187-23.827-13.187-10.451 0-19.552 5.705-24.41 14.16 0 0-26.959-26.959-26.959-26.959s-6.655 6.655-6.655 6.655c0 0 53.078 53.078 53.078 53.078s4.151 3.849 4.151 3.849c0 0 4.151-3.849 4.151-3.849s52.936-52.935 52.936-52.935zM492.811 57.807c3.403-6.929 10.521-11.701 18.762-11.701 8.056 0 15.028 4.566 18.518 11.243 0 0-18.869 18.869-18.869 18.869s-18.411-18.411-18.411-18.411z" />
<glyph unicode="&#xe90a;" d="M512.429 727.067c106.156 0 189.945-99.202 187.22-218.397 0 0-2.896-126.682-2.896-126.682-2.567-112.293-85.063-201.054-184.325-201.054s-181.758 88.762-184.325 201.054c0 0-2.896 126.682-2.896 126.682-2.724 119.194 81.064 218.397 187.22 218.397z" />
<glyph unicode="&#xe90b;" d="M708.179 512.598c0 0-3.034-131.829-3.034-131.829-2.689-116.855-89.132-209.222-193.142-209.222s-190.452 92.368-193.142 209.222c0 0-3.034 131.829-3.034 131.829-2.855 124.036 84.942 227.269 196.176 227.269s199.031-103.233 196.176-227.269zM511.577 726.213c-104.705 0-187.348-98.427-184.661-216.69 0 0 2.856-125.693 2.856-125.693 2.532-111.415 83.9-199.484 181.805-199.484s179.273 88.068 181.805 199.484c0 0 2.856 125.693 2.856 125.693 2.687 118.263-79.956 216.69-184.661 216.69z" />
<glyph unicode="&#xe90c;" d="M604.16 305.348c-15.51-13.468-50.544-26.281-91.307-26.281s-75.796 12.814-91.307 26.281c0 0-1.587 4.367 0.741 6.695 2.371 2.371 6.085 1.855 6.085 1.855 15.494-13.477 43.702-24.592 84.48-24.592s68.986 11.115 84.48 24.592c0 0 3.79 1.408 5.631-0.433 3.546-3.546 1.195-8.117 1.195-8.117z" />
<glyph unicode="&#xe90d;" d="M484.693 258.587c0 0 54.613 0 54.613 0s0-8.533 0-8.533c0 0-54.613 0-54.613 0s0 8.533 0 8.533z" />
<glyph unicode="&#xe90e;" d="M315.614 493.374c-0.024-0.001-2.095 1.653-6.007 2.885-1.955 0.615-4.385 1.12-7.155 1.245-0.692 0.031-1.404 0.039-2.132 0.018s-1.474-0.069-2.231-0.15c-1.514-0.162-3.079-0.453-4.653-0.905-6.302-1.811-12.731-6.215-16.507-15.304-1.895-4.545-3.146-10.261-3.476-17.414-0.083-1.788-0.108-3.666-0.072-5.638s0.134-4.037 0.298-6.201c0.327-4.327 0.917-9.046 1.796-14.189-0.019 0.005-0.82-15.54 4.737-33.402 5.224-17.464 17.77-38.917 40.934-45.047-2.664 44.359-2.747 89.549-5.532 134.103 0 0 0 0 0 0z" />
<glyph unicode="&#xe90f;" d="M318.256 491.585c0 0-40.353 12.503-38.933-28.982 0 0 6.008-60.155 8.617-65.699 0 0 15.848-35.024 42.002-36.576 25.562-1.517 0 0 0 0s0.317-11.289 0.317-11.289c0 0-45.969 5.894-54.848 58.869 0 0-7.008 48.125-7.008 48.125s-5.441 63.689 47.339 47.496c51.419-15.776 0 0 0 0s2.513-11.945 2.513-11.945z" />
<glyph unicode="&#xe910;" d="M304.937 408.010c0 0-2.258-1.707-4.198-1.707s-4.171 1.707-4.171 1.707c0 0-4.164 41.966-4.164 41.966s5.746 20.667 30.128 9.745c0 0 0.576-11.999 0.576-11.999s-21.391 7.586-20.949-1.86c0.426-9.093 2.779-37.851 2.779-37.851z" />
<glyph unicode="&#xe911;" d="M707.627 493.276c0.024-0.001 2.104 1.652 6.034 2.883 1.964 0.614 4.404 1.119 7.186 1.244 0.695 0.031 1.41 0.038 2.141 0.018s1.48-0.069 2.241-0.15c1.521-0.162 3.092-0.452 4.673-0.905 6.33-1.81 12.787-6.21 16.58-15.293 1.904-4.542 3.16-10.254 3.492-17.402 0.083-1.787 0.108-3.664 0.072-5.634s-0.135-4.035-0.299-6.197c-0.328-4.324-0.921-9.040-1.804-14.179 0.019 0.005 0.824-15.529-4.758-33.38-5.247-17.452-17.848-38.89-41.113-45.017 2.676 44.329 2.759 89.488 5.556 134.012 0 0 0 0 0 0z" />
<glyph unicode="&#xe912;" d="M704.965 491.489c0 0 40.53 12.495 39.103-28.962 0 0-6.034-60.114-8.654-65.654 0 0-15.917-35-42.186-36.551-25.674-1.516 0 0 0 0s-0.319-11.281-0.319-11.281c0 0 46.171 5.89 55.088 58.829 0 0 7.038 48.093 7.038 48.093s5.465 63.646-47.546 47.464c-51.644-15.765 0 0 0 0s-2.524-11.937-2.524-11.937z" />
<glyph unicode="&#xe913;" d="M718.343 407.97c0 0 2.268-1.706 4.217-1.706s4.189 1.706 4.189 1.706c0 0 4.183 41.937 4.183 41.937s-5.771 20.653-30.26 9.738c0 0-0.579-11.991-0.579-11.991s21.485 7.581 21.041-1.859c-0.428-9.087-2.791-37.825-2.791-37.825z" />
<glyph unicode="&#xe914;" d="M566.654 507.118c0 0 51.089 29.21 87.586-2.972 0 0 9.654-1.496 9.654-1.496s-12.365 44.995-102.4 15.738c0 0 2.507-8.387 2.507-8.387zM566 510c0 0 51.974 29.853 86.24-7.854 0 0 17.654 0.504 17.654 0.504s-22.017 48.064-112.4 17.738c0 0 8.507-12.387 8.507-12.387z" />
<glyph unicode="&#xe915;" d="M456.877 506.949c0 0-50.919 28.951-87.293-2.946 0 0-9.622-1.483-9.622-1.483s12.324 44.596 102.058 15.598c0 0-2.498-8.313-2.498-8.313zM457.528 509.805c0 0-51.801 29.588-85.952-7.785 0 0-17.595 0.499-17.595 0.499s21.944 47.639 112.025 17.581c0 0-8.478-12.278-8.478-12.278z" />
<glyph unicode="&#xe916;" d="M701.177 492.4c0 0 78.775 206.688-163.797 253.773 0 0-50.773 2.75-90.429 50.014 0 0-28.33-38.837-11.943-68.537 0 0-20.852-18.191-76.78-3.705 0 0-8.464-18.080-1.706-38.899 0 0-70.347-30.417-36.823-166.478 0.321-1.303 0.652-2.616 0.992-3.939 0 0 30.099 120.321 51.186 122.256 0 0 113.628-65.233 209.864 5.557 0 0 47.516-63.395 105.785-66.685 0 0 10.539-40.882 13.65-83.356z" />
<glyph unicode="&#xe917;" d="M706.56 490.693c-2.368-6.425-10.24-4.267-10.24-4.267-3.11 42.474-12.8 83.627-12.8 83.627-59.036 7.439-103.253 64-103.253 64-95.668-65.75-208.213-2.56-208.213-2.56-22.597-18.734-45.227-117.76-45.227-117.76-0.34 1.323-11.625-1.303-11.947 0-33.524 136.061 34.987 174.080 34.987 174.080-6.758 20.82 4.267 42.667 4.267 42.667 55.927-14.486 73.387-1.707 73.387-1.707-14.785 37.035 17.92 75.093 17.92 75.093 39.656-47.264 93.867-52.053 93.867-52.053 223.097-44.708 183.071-218.203 167.253-261.12zM534.187 740.72c0 0-45.66 2.484-86.187 45.227 0 0-23.213-30.886-6.827-60.587 0 0-23.433-23.019-79.36-8.533 0 0-4.423-11.589 0-33.28 0 0-62.721-32.381-40.96-142.507 0.26-1.317-0.34 0.469 0-0.853 0 0 26.236 101.616 50.347 102.4 0 0 117.725-66.648 212.48 7.68 0 0 50.104-66.683 108.373-69.973 0 0 5.055-14.291 11.093-56.32 0 0 51.103 174.811-168.96 216.747z" />
<glyph unicode="&#xe918;" d="M462.183 750.107c1.564-0.030 1.561-1.095 2.018-2.203 0.682-1.654 1.292-3.338 2.081-4.91 1.196-2.383 2.424-4.747 3.847-6.925 1.197-1.831 2.495-3.581 3.784-5.32 0.744-1.004 1.644-1.895 2.397-2.896 0.3-0.399 0.702-0.728 1.009-1.133 0.105-0.094 0.21-0.189 0.315-0.283 0.386-0.509 0.876-0.908 1.261-1.416 0.42-0.409 0.841-0.818 1.261-1.228 0.657-0.655 1.272-1.389 2.018-1.952 0.158-0.168 0.315-0.336 0.473-0.504 0.592-0.447 1.076-1 1.671-1.448 0.095-0.105 0.189-0.21 0.284-0.315 0.859-0.645 1.605-1.437 2.46-2.077 1.388-1.040 2.701-2.142 4.131-3.148 0.948-0.667 1.884-1.407 2.838-2.078 1.698-1.194 3.493-2.263 5.235-3.4 1.060-0.692 2.196-1.22 3.28-1.889 3.067-1.893 6.424-3.508 9.713-5.162 1.062-0.534 2.12-0.968 3.217-1.448 0.7-0.306 1.458-0.668 2.144-1.007 0.38-0.188 0.747-0.272 1.135-0.441 0.841-0.366 1.748-0.758 2.586-1.133 0.775-0.347 1.533-0.575 2.334-0.881 0.863-0.33 1.778-0.742 2.649-1.070 1.513-0.571 3.044-1.074 4.541-1.637 1.555-0.585 3.111-0.974 4.699-1.511 3.077-1.041 6.352-1.808 9.555-2.77 0.959-0.288 1.958-0.425 2.901-0.693 0.471-0.133 1.081-0.108 1.482-0.315 0.164-0.084 0.349-0.261 0.505-0.378 0.25-0.187 0.444-0.501 0.631-0.755 0.299-0.407 0.616-0.809 0.851-1.291 0.244-0.499 0.311-1.191 0.441-1.763 0.105-0.459-0.041-1.033-0.126-1.354-0.072-0.27-0.048-0.456-0.126-0.724-0.204-0.697-0.515-1.373-0.915-1.889-0.414-0.535-1.434-0.548-2.207-0.346-1.353 0.353-2.837 0.505-4.163 0.881-0.283 0.081-0.509 0.045-0.788 0.126-1.537 0.445-3.215 0.698-4.73 1.133-0.346 0.099-0.637 0.085-0.978 0.189-1.196 0.363-2.441 0.571-3.658 0.944-3.050 0.935-6.173 1.712-9.082 2.77-0.68 0.247-1.312 0.375-1.987 0.63-4.774 1.8-9.513 3.535-13.875 5.729-1.148 0.577-2.287 1.034-3.406 1.637-3.177 1.711-6.265 3.483-9.271 5.351-0.395 0.245-0.78 0.561-1.167 0.818-1.746 1.163-3.421 2.346-5.109 3.557-1.702 1.221-3.219 2.684-4.888 3.935-0.352 0.264-0.649 0.61-1.009 0.881-0.105 0.115-0.21 0.231-0.315 0.346-0.39 0.294-0.691 0.688-1.072 0.976-0.914 0.69-1.686 1.588-2.491 2.392-0.76 0.759-1.587 1.499-2.239 2.361-0.147 0.136-0.294 0.273-0.441 0.409-0.424 0.56-0.971 1.021-1.388 1.574-0.727 0.965-1.583 1.834-2.302 2.801-0.894 1.203-1.816 2.394-2.68 3.62-0.866 1.227-1.618 2.494-2.428 3.777-2.194 3.475-3.981 7.267-5.645 11.3-0.604 1.463-1.011 3.026-1.514 4.564-0.346 1.060-0.514 2.2-0.82 3.274-0.080 0.28-0.051 0.501-0.126 0.787-0.162 0.613-0.346 1.379-0.126 2.015 0.099 0.284 0.503 0.688 0.788 0.787 0.198 0.069 0.392 0.017 0.536 0.126zM446.699 702.891c1.122-0.007 1.623-0.831 2.113-1.479 0.507-0.671 1.191-1.212 1.703-1.889 0.42-0.42 0.841-0.839 1.261-1.259 0.286-0.379 0.645-0.675 0.978-1.007 0.343-0.342 0.65-0.713 1.041-1.007 0.378-0.378 0.757-0.755 1.135-1.133 0.388-0.293 0.69-0.688 1.072-0.976 1.181-0.891 2.189-2.011 3.374-2.896 1.257-0.938 2.439-1.992 3.721-2.896 1.68-1.184 3.355-2.386 5.077-3.525 0.88-0.583 1.782-1.071 2.68-1.637 0.687-0.432 1.401-0.928 2.113-1.322 2.956-1.635 5.95-3.241 9.019-4.784 2.43-1.222 4.996-2.212 7.505-3.337 0.774-0.347 1.533-0.577 2.334-0.881 1.807-0.686 3.707-1.385 5.55-2.077 1.742-0.655 3.594-1.103 5.361-1.7 0.289-0.098 0.534-0.086 0.82-0.189 0.914-0.328 1.95-0.533 2.901-0.818 0.479-0.144 0.953-0.141 1.419-0.315 1.020-0.38 2.307-1.528 2.68-2.55 0.647-1.771-0.069-3.785-0.883-4.942-0.246-0.349-0.609-0.922-1.041-1.070-0.681-0.233-1.396 0.011-2.018 0.189-0.805 0.23-1.575 0.265-2.365 0.504-1.46 0.442-2.98 0.683-4.446 1.133-3.071 0.943-6.131 1.79-9.050 2.896-6.759 2.56-12.995 5.564-18.732 9.128-2.381 1.48-4.639 3.147-6.875 4.784-0.796 0.583-1.516 1.3-2.302 1.889-1.077 0.806-1.993 1.777-3.059 2.581-0.116 0.126-0.231 0.252-0.347 0.378-0.218 0.194-0.456 0.361-0.662 0.567-0.168 0.178-0.336 0.357-0.505 0.535-0.402 0.303-0.719 0.687-1.072 1.039-0.343 0.342-0.714 0.649-1.009 1.039-0.231 0.22-0.463 0.441-0.694 0.661-0.773 1.021-1.752 1.862-2.523 2.896-0.182 0.244-0.448 0.45-0.631 0.692-0.741 0.986-1.559 1.921-2.271 2.927-0.811 1.146-1.652 2.3-2.397 3.494-0.294 0.47-0.518 0.951-0.82 1.416-0.331 0.511-0.583 1.047-0.883 1.605-0.178 0.331-0.44 0.698-0.568 1.070-0.13 0.378-0.171 1.109 0.031 1.448 0.138 0.232 0.463 0.596 0.725 0.693 0.197 0.073 0.391 0.016 0.536 0.126zM425.508 679.913c1.266-0.016 1.585-0.949 2.113-1.7 0.849-1.208 1.828-2.32 2.712-3.494 0.705-0.936 1.625-1.709 2.334-2.644 0.273-0.262 0.547-0.525 0.82-0.787 0.392-0.518 0.994-1.119 1.514-1.511 0.105-0.115 0.21-0.231 0.315-0.346 0.258-0.258 0.525-0.502 0.82-0.724 0.137-0.147 0.273-0.294 0.41-0.441 0.701-0.529 1.288-1.211 1.987-1.731 1.672-1.244 3.264-2.601 4.983-3.809 3.724-2.618 7.827-4.803 12.046-6.925 1.379-0.693 2.846-1.207 4.226-1.889 0.589-0.291 1.192-0.436 1.798-0.693 1.654-0.7 3.427-1.31 5.14-1.952 2.37-0.888 4.884-1.445 7.316-2.266 0.852-0.288 1.761-0.417 2.586-0.693 0.733-0.245 1.485-0.285 2.239-0.504 1.494-0.433 3.159-0.674 4.699-1.070 0.889-0.229 1.79-0.283 2.649-0.504 0.96-0.247 1.965-0.274 2.901-0.504 0.21-0.021 0.42-0.042 0.631-0.063 0.962-0.244 2.081-0.271 3.059-0.504 0.417-0.099 0.778-0.028 1.198-0.126 1.367-0.319 2.927-0.254 4.32-0.567 0.398-0.089 0.811-0.046 1.167-0.126 0.126 0 0.252 0 0.378 0 0.48-0.107 1.091-0.082 1.577-0.189 0.137 0 0.273 0 0.41 0 0.794-0.175 1.754-0.077 2.554-0.252 0.179 0 0.357 0 0.536 0 1.020-0.223 2.246-0.028 3.28-0.252 0.399-0.010 0.799-0.021 1.198-0.031 0.226-0.049 0.586 0.026 0.851-0.031 0.704-0.152 1.611-0.018 2.334-0.126 0.427-0.064 0.944 0.051 1.324-0.031 0.336-0.073 0.776 0.033 1.072-0.031 0.82 0 1.64 0 2.46 0 1.941 0 3.836 0.054 5.708 0.063 0.886 0.004 1.851 0.198 2.586-0.063 0.415-0.148 0.798-0.511 1.135-0.755 0.758-0.549 1.47-1.335 1.829-2.266 0.109-0.284 0.1-0.535 0.189-0.85 0.143-0.505 0.349-1.3 0.189-1.983-0.104-0.445-0.158-0.983-0.315-1.416-0.242-0.669-0.886-0.865-1.64-1.039-0.273-0.010-0.547-0.021-0.82-0.031-1.165-0.254-2.582-0.030-3.753-0.283-0.225-0.049-0.539 0.009-0.725-0.031-0.441-0.010-0.883-0.021-1.324-0.031-0.428-0.092-0.967 0.041-1.451-0.063-0.404-0.087-0.898-0.063-1.356-0.063-0.168 0-0.336 0-0.505 0-0.39-0.084-0.937-0.063-1.356-0.063-0.61 0-1.219 0-1.829 0-0.568-0.121-1.358-0.031-1.987-0.031-0.521 0-1.177-0.068-1.64 0.031-0.357 0-0.715 0-1.072 0-0.746 0-1.482 0-2.176 0.063-0.357 0-0.715 0-1.072 0-0.613 0.133-1.411-0.005-2.018 0.126-0.242 0-0.484 0-0.725 0-0.444 0.097-1.044 0.031-1.482 0.126-0.21 0-0.42 0-0.631 0-0.337 0.074-0.829 0.052-1.167 0.126-0.168 0-0.336 0-0.505 0-1.169 0.258-2.514 0.122-3.658 0.378-0.315 0.021-0.631 0.042-0.946 0.063-1.484 0.338-3.128 0.286-4.573 0.63-0.393 0.093-0.716 0.031-1.104 0.126-1.343 0.328-2.823 0.419-4.131 0.755-0.216 0.056-0.352 0.007-0.568 0.063-0.619 0.162-1.344 0.267-1.955 0.441-0.285 0.081-0.504 0.044-0.788 0.126-2.126 0.612-4.339 0.932-6.433 1.574-3.708 1.136-7.456 2.153-10.816 3.651-0.761 0.339-1.52 0.536-2.271 0.881-1.328 0.611-2.697 1.168-4.005 1.826-2.046 1.030-4.046 2.113-6.023 3.211-1.391 0.772-2.729 1.715-4.036 2.581-1.074 0.711-2.11 1.407-3.154 2.14-1.027 0.722-1.985 1.551-2.996 2.298-1.028 0.76-1.91 1.716-2.933 2.487-0.388 0.293-0.717 0.778-1.104 1.070-0.954 0.72-1.745 1.678-2.586 2.518-3.59 3.584-6.64 7.703-9.366 12.15-0.629 1.026-1.087 2.097-1.64 3.211-0.252 0.507-0.516 1.192-0.252 1.889 0.084 0.222 0.534 0.672 0.757 0.755 0.183 0.069 0.398 0.022 0.536 0.126zM634.206 648.876c1.148-0.013 1.502-0.775 1.987-1.448 0.479-0.665 1.022-1.289 1.514-1.952 1.043-1.406 2.352-2.606 3.406-3.998 0.368-0.486 0.889-0.862 1.261-1.354 0.147-0.136 0.294-0.273 0.442-0.409 0.512-0.676 1.2-1.23 1.797-1.826 0.515-0.514 1.030-1.028 1.545-1.542 0.81-0.612 1.467-1.471 2.271-2.078 0.459-0.347 0.84-0.794 1.293-1.133 1.491-1.119 2.846-2.421 4.352-3.525 2.268-1.664 4.54-3.344 6.906-4.91 3.557-2.356 7.333-4.482 11.163-6.547 2.176-1.173 4.457-2.169 6.685-3.274 0.792-0.393 1.623-0.688 2.397-1.070 0.286-0.142 0.565-0.173 0.851-0.315 1.233-0.609 2.608-1.071 3.879-1.637 0.327-0.145 0.611-0.188 0.946-0.315 1.237-0.469 2.547-0.947 3.816-1.417 0.713-0.264 1.56-0.366 2.207-0.724 1.636-0.904 3.144-2.842 2.302-5.414-0.3-0.916-0.808-1.628-1.324-2.329-0.356-0.484-0.802-0.677-1.451-0.881-0.159-0.050-0.866 0.2-1.009 0.252-0.869 0.315-1.743 0.465-2.617 0.755-4.518 1.502-8.857 3.091-13.024 4.91-6.745 2.945-12.79 6.702-18.479 10.702-1.655 1.164-3.15 2.54-4.762 3.746-0.473 0.354-0.878 0.804-1.356 1.165-0.095 0.105-0.189 0.21-0.284 0.315-0.642 0.484-1.158 1.092-1.797 1.574-0.284 0.294-0.568 0.588-0.851 0.881-0.322 0.243-0.57 0.537-0.851 0.818s-0.577 0.529-0.82 0.85c-0.2 0.189-0.399 0.378-0.599 0.567-0.361 0.361-0.732 0.756-1.041 1.165-0.189 0.189-0.378 0.378-0.568 0.567-0.406 0.536-0.925 0.981-1.324 1.511-1.041 1.382-2.176 2.664-3.185 4.092-0.906 1.283-1.902 2.556-2.744 3.903-1.078 1.726-2.066 3.506-3.027 5.351-0.422 0.81-0.901 1.825-1.198 2.707-0.132 0.392-0.171 1.094 0.032 1.448 0.138 0.241 0.456 0.591 0.725 0.693 0.182 0.069 0.398 0.022 0.536 0.126z" />
<glyph unicode="&#xe919;" d="M527.787 411.333c0.995 0 1.991 0 2.987 0 6.175-8.386 8.687-21.273 11.947-32.427 1.010-3.457 0.030-9.503-0.853-11.947-3.236-8.951-13.395-8.79-21.76-12.8-2.246-1.077-3.917-2.936-6.827-3.413-1.897 1.671-4.187 1.999-5.12 4.693-2.305 3.173 0.666 5.155 2.987 6.4 4.212 2.259 17.216 4.486 18.773 8.533 1.926 2.191 0.646 8.78 0 11.093-1.653 5.924-2.447 10.87-4.693 16.213-1.492 3.549-4.112 7.291-2.56 11.52 1.286 0.552 4.067 1.18 5.12 2.133z" />
<glyph unicode="&#xe91a;" d="M418.133 483.867c9.426 0 17.067-7.641 17.067-17.067s-7.641-17.067-17.067-17.067c-9.426 0-17.067 7.641-17.067 17.067s7.641 17.067 17.067 17.067z" />
<glyph unicode="&#xe91b;" d="M607.573 483.867c9.426 0 17.067-7.641 17.067-17.067s-7.641-17.067-17.067-17.067c-9.426 0-17.067 7.641-17.067 17.067s7.641 17.067 17.067 17.067z" />
<glyph unicode="&#xe91c;" d="M615.253 420.72c11.782 0 21.333-9.551 21.333-21.333s-9.551-21.333-21.333-21.333c-11.782 0-21.333 9.551-21.333 21.333s9.551 21.333 21.333 21.333z" />
<glyph unicode="&#xe91d;" d="M408.747 420.72c11.782 0 21.333-9.551 21.333-21.333s-9.551-21.333-21.333-21.333c-11.782 0-21.333 9.551-21.333 21.333s9.551 21.333 21.333 21.333z" />
<glyph unicode="&#xe91e;" d="M222-48c0 0-20.604 180.622 156.88 200.773 0 0 75.947 0 75.947 0s0 34.987 0 34.987c0 0 53.423-22.947 107.52-2.56 0 0 1.707-32.427 1.707-32.427s88.747 0 88.747 0c0 0 154.547-15.429 145.2-200.773 0 0-576 0-576 0z" />
<glyph unicode="&#xe91f;" d="M796.524-51.173c0 0 0 0 0 0s-569.033 0-569.033 0c0 0 0 0 0 0s-11.036 0-11.036 0c0 0 2.755 47.060 2.755 47.060 5.379 91.884 77.774 162.007 160.62 162.007 0 0 63.050 0 63.050 0s0-9.387 0-9.387c0 0-58.021 0-58.021 0-79.847 0-149.621-67.497-154.805-155.941 0 0-1.913-32.646-1.913-32.646s566.879 0 566.879 0c0 0-1.060 32.646-1.060 32.646-5.184 88.444-74.958 155.941-154.805 155.941 0 0-77.662 0-77.662 0s0 9.387 0 9.387c0 0 82.185 0 82.185 0 82.846 0 155.241-70.123 160.62-162.007 0 0 2.755-47.060 2.755-47.060s-10.53 0-10.53 0z" />
<glyph unicode="&#xe920;" d="M463.36 191.708c0 0 0-52.63 0-52.63 0-27.311 22.159-49.451 49.493-49.451s49.493 22.14 49.493 49.451c0 0 0 51.544 0 51.544 2.872 0.874 5.718 1.824 8.533 2.85 0 0 0-54.752 0-54.752 0-32.297-26.17-58.479-58.453-58.479s-58.453 26.182-58.453 58.479c0 0 0 56.373 0 56.373 3.092-1.222 6.223-2.347 9.387-3.385z" />
<glyph unicode="&#xe921;" d="M453.547 90.48c3.063 0 5.547-2.483 5.547-5.547 0 0 0-83.627 0-83.627 0-3.063-2.483-5.547-5.547-5.547s-5.547 2.483-5.547 5.547c0 0 0 83.627 0 83.627 0 3.063 2.483 5.547 5.547 5.547z" />
<glyph unicode="&#xe922;" d="M570.027 91.333c3.299 0 5.973-2.674 5.973-5.973 0 0 0-52.053 0-52.053 0-3.299-2.674-5.973-5.973-5.973s-5.973 2.674-5.973 5.973c0 0 0 52.053 0 52.053 0 3.299 2.674 5.973 5.973 5.973z" />
<glyph unicode="&#xe923;" d="M453.547 1.733c1.649 0 2.987-1.337 2.987-2.987 0 0 0-21.333 0-21.333 0-1.649-1.337-2.987-2.987-2.987s-2.987 1.337-2.987 2.987c0 0 0 21.333 0 21.333 0 1.65 1.337 2.987 2.987 2.987z" />
<glyph unicode="&#xe924;" d="M570.453 33.307c1.65 0 2.987-1.337 2.987-2.987 0 0 0-21.333 0-21.333 0-1.65-1.337-2.987-2.987-2.987s-2.987 1.337-2.987 2.987c0 0 0 21.333 0 21.333 0 1.649 1.337 2.987 2.987 2.987z" />
<glyph unicode="&#xe925;" d="M421.531 212.708c0 0-54.047-12.41-54.047-12.41s-66.186-14.992-22.152-59.599c44.034-44.607 157.282-52.485 157.282-52.485s-29.943 14.182-42.667 34.133c0 0-4.267 71.68-4.267 71.68s-34.149 18.681-34.149 18.681z" />
<glyph unicode="&#xe926;" d="M504.32 83.947c-3.354-4.245-97.653-1.326-162.987 55.467-47.305 41.121 23.893 64.853 23.893 64.853s52.053 11.947 52.053 11.947c0 0 45.227-23.040 45.227-23.040s3.413-69.12 3.413-69.12c19.039-29.853 43.799-33.274 38.4-40.107zM457.387 120.64c0 0-5.12 72.533-5.12 72.533s-27.307 15.36-27.307 15.36c0 0-52.053-12.8-52.053-12.8s-63.050-12.929-23.040-50.347c43.179-40.381 123.057-51.218 131.413-50.347 8.661 0.903-4.854-4.253-23.893 25.6z" />
<glyph unicode="&#xe927;" d="M604.119 210.697c0 0 54.079-12.448 54.079-12.448s66.225-15.037 22.166-59.778c-44.060-44.741-157.375-52.642-157.375-52.642s29.961 14.225 42.692 34.236c0 0 4.269 71.895 4.269 71.895s34.169 18.737 34.169 18.737z" />
<glyph unicode="&#xe928;" d="M521.28 82.404c3.355-4.257 97.711-1.33 163.083 55.633 47.333 41.245-23.907 65.048-23.907 65.048s-52.084 11.982-52.084 11.982c0 0-45.253-23.109-45.253-23.109s-3.415-69.327-3.415-69.327c-19.050-29.942-43.825-33.373-38.423-40.227zM568.242 119.207c0 0 5.123 72.751 5.123 72.751s27.323 15.406 27.323 15.406c0 0 52.084-12.838 52.084-12.838s63.087-12.968 23.054-50.497c-43.204-40.502-123.129-51.371-131.491-50.497-8.667 0.906 4.857-4.265 23.907 25.677z" />
<glyph unicode="&#xe929;" d="M512.429 727.067c106.156 0 189.945-99.202 187.22-218.397 0 0-2.896-126.682-2.896-126.682-2.567-112.293-85.063-201.054-184.325-201.054s-181.758 88.762-184.325 201.054c0 0-2.896 126.682-2.896 126.682-2.724 119.194 81.064 218.397 187.22 218.397z" />
<glyph unicode="&#xe92a;" d="M708.179 512.598c0 0-3.034-131.829-3.034-131.829-2.689-116.855-89.132-209.222-193.142-209.222s-190.452 92.368-193.142 209.222c0 0-3.034 131.829-3.034 131.829-2.855 124.036 84.942 227.269 196.176 227.269s199.031-103.233 196.176-227.269zM511.577 726.213c-104.705 0-187.348-98.427-184.661-216.69 0 0 2.856-125.693 2.856-125.693 2.532-111.415 83.9-199.484 181.805-199.484s179.273 88.068 181.805 199.484c0 0 2.856 125.693 2.856 125.693 2.687 118.263-79.956 216.69-184.661 216.69z" />
<glyph unicode="&#xe92b;" d="M702.853 490.693c0 0-8.533-139.947-8.533-139.947s-37.9-161.542-184.32-180.669c0 0 0-0.237 0-0.237-0.288 0.035-0.566 0.082-0.853 0.119-0.287-0.036-0.566-0.083-0.853-0.119 0 0 0 0.237 0 0.237-146.419 19.128-184.32 180.669-184.32 180.669s-8.533 139.947-8.533 139.947c37.996-168.653 69.973-179.2 69.973-179.2-6.471 51.142 46.080 46.080 46.080 46.080 32.028-5.41 57.525-8.025 77.653-9.002 20.128 0.977 45.625 3.592 77.653 9.002 0 0 52.551 5.062 46.080-46.080 0 0 31.978 10.547 69.973 179.2zM607.966 294.147c-2.484 30.083-20.624 27.532-20.624 27.532-32.249-9.489-57.564-14.761-77.342-17.44 0 0 0 0.197 0 0.197-19.639 2.657-44.777 7.886-76.8 17.297 0 0-18.013 2.53-20.48-27.307 0 0-7.233-29.893 17.067-42.667 0 0 30.72-32.427 30.72-32.427s20.993-6.653 20.48 18.773c0 0-2.137 18.963 10.24 22.187 0 0 18.773 0 18.773 0s0-0.562 0-0.562c0 0 18.906 0 18.906 0 12.464-3.25 10.312-22.37 10.312-22.37-0.517-25.637 20.624-18.928 20.624-18.928s30.937 32.695 30.937 32.695c24.471 12.879 17.187 43.019 17.187 43.019z" />
<glyph unicode="&#xe92c;" d="M604.16 305.348c-15.51-13.468-50.544-26.281-91.307-26.281s-75.796 12.814-91.307 26.281c0 0-1.587 4.367 0.741 6.695 2.371 2.371 6.085 1.855 6.085 1.855 15.494-13.477 43.702-24.592 84.48-24.592s68.986 11.115 84.48 24.592c0 0 3.79 1.408 5.631-0.433 3.546-3.546 1.195-8.117 1.195-8.117z" />
<glyph unicode="&#xe92d;" d="M484.693 258.587c0 0 54.613 0 54.613 0s0-8.533 0-8.533c0 0-54.613 0-54.613 0s0 8.533 0 8.533z" />
<glyph unicode="&#xe92e;" d="M315.614 493.374c-0.024-0.001-2.095 1.653-6.007 2.885-1.955 0.615-4.385 1.12-7.155 1.245-0.692 0.031-1.404 0.039-2.132 0.018s-1.474-0.069-2.231-0.15c-1.514-0.162-3.079-0.453-4.653-0.905-6.302-1.811-12.731-6.215-16.507-15.304-1.895-4.545-3.146-10.261-3.476-17.414-0.083-1.788-0.108-3.666-0.072-5.638s0.134-4.037 0.298-6.201c0.327-4.327 0.917-9.046 1.796-14.189-0.019 0.005-0.82-15.54 4.737-33.402 5.224-17.464 17.77-38.917 40.934-45.047-2.664 44.359-2.747 89.549-5.532 134.103 0 0 0 0 0 0z" />
<glyph unicode="&#xe92f;" d="M318.256 491.585c0 0-40.353 12.503-38.933-28.982 0 0 6.008-60.155 8.617-65.699 0 0 15.848-35.024 42.002-36.576 25.562-1.517 0 0 0 0s0.317-11.289 0.317-11.289c0 0-45.969 5.894-54.848 58.869 0 0-7.008 48.125-7.008 48.125s-5.441 63.689 47.339 47.496c51.419-15.776 0 0 0 0s2.513-11.945 2.513-11.945z" />
<glyph unicode="&#xe930;" d="M304.937 408.010c0 0-2.258-1.707-4.198-1.707s-4.171 1.707-4.171 1.707c0 0-4.164 41.966-4.164 41.966s5.746 20.667 30.128 9.745c0 0 0.576-11.999 0.576-11.999s-21.391 7.586-20.949-1.86c0.426-9.093 2.779-37.851 2.779-37.851z" />
<glyph unicode="&#xe931;" d="M707.627 493.276c0.024-0.001 2.104 1.652 6.034 2.883 1.964 0.614 4.404 1.119 7.186 1.244 0.695 0.031 1.41 0.038 2.141 0.018s1.48-0.069 2.241-0.15c1.521-0.162 3.092-0.452 4.673-0.905 6.33-1.81 12.787-6.21 16.58-15.293 1.904-4.542 3.16-10.254 3.492-17.402 0.083-1.787 0.108-3.664 0.072-5.634s-0.135-4.035-0.299-6.197c-0.328-4.324-0.921-9.040-1.804-14.179 0.019 0.005 0.824-15.529-4.758-33.38-5.247-17.452-17.848-38.89-41.113-45.017 2.676 44.329 2.759 89.488 5.556 134.012 0 0 0 0 0 0z" />
<glyph unicode="&#xe932;" d="M704.965 491.489c0 0 40.53 12.495 39.103-28.962 0 0-6.034-60.114-8.654-65.654 0 0-15.917-35-42.186-36.551-25.674-1.516 0 0 0 0s-0.319-11.281-0.319-11.281c0 0 46.171 5.89 55.088 58.829 0 0 7.038 48.093 7.038 48.093s5.465 63.646-47.546 47.464c-51.644-15.765 0 0 0 0s-2.524-11.937-2.524-11.937z" />
<glyph unicode="&#xe933;" d="M718.343 407.97c0 0 2.268-1.706 4.217-1.706s4.189 1.706 4.189 1.706c0 0 4.183 41.937 4.183 41.937s-5.771 20.653-30.26 9.738c0 0-0.579-11.991-0.579-11.991s21.485 7.581 21.041-1.859c-0.428-9.087-2.791-37.825-2.791-37.825z" />
<glyph unicode="&#xe934;" d="M527.787 411.333c0.995 0 1.991 0 2.987 0 6.175-8.386 8.687-21.273 11.947-32.427 1.010-3.457 0.030-9.503-0.853-11.947-3.236-8.951-13.395-8.79-21.76-12.8-2.246-1.077-3.917-2.936-6.827-3.413-1.897 1.671-4.187 1.999-5.12 4.693-2.305 3.173 0.666 5.155 2.987 6.4 4.212 2.259 17.216 4.486 18.773 8.533 1.926 2.191 0.646 8.78 0 11.093-1.653 5.924-2.447 10.87-4.693 16.213-1.492 3.549-4.112 7.291-2.56 11.52 1.286 0.552 4.067 1.18 5.12 2.133z" />
<glyph unicode="&#xe935;" d="M403.627 471.579c0 0 30.72 0 30.72 0 4.242 0 7.68-4.126 7.68-9.216s-3.438-9.216-7.68-9.216c0 0-30.72 0-30.72 0-4.242 0-7.68 4.126-7.68 9.216s3.438 9.216 7.68 9.216z" />
<glyph unicode="&#xe936;" d="M591.36 473.627c0 0 30.72 0 30.72 0 4.242 0 7.68-4.126 7.68-9.216s-3.438-9.216-7.68-9.216c0 0-30.72 0-30.72 0-4.242 0-7.68 4.126-7.68 9.216s3.438 9.216 7.68 9.216z" />
<glyph unicode="&#xe937;" d="M615.253 420.72c11.782 0 21.333-9.551 21.333-21.333s-9.551-21.333-21.333-21.333c-11.782 0-21.333 9.551-21.333 21.333s9.551 21.333 21.333 21.333z" />
<glyph unicode="&#xe938;" d="M408.747 420.72c11.782 0 21.333-9.551 21.333-21.333s-9.551-21.333-21.333-21.333c-11.782 0-21.333 9.551-21.333 21.333s9.551 21.333 21.333 21.333z" />
<glyph unicode="&#xe939;" d="M697.88 502.241c-1.154-9.86-2.169-21.925-4.3-32.713-6.375-32.257-34.093-62.143-81.42-65.548s-87.608 20.421-89.968 53.217c-0.4 5.561-1.471 11.801-2.292 17.867-6.698 3.713-13.601 3.722-20.71 0.025-0.83-6.204-1.941-12.608-2.351-18.302-2.368-32.905-42.775-56.81-90.252-53.393s-75.282 33.401-81.677 65.765c-2.139 10.823-3.156 22.928-4.314 32.821 0 0-6.977 0.502-6.977 0.502s0.98 13.618 0.98 13.618c0 0 1.702-0.122 1.702-0.122s43.177-3.107 43.177-3.107c0 0 36.446-2.623 36.446-2.623s36.514-2.628 36.514-2.628c0 0 56.873-4.093 56.873-4.093 3.922-0.496 6.531-2.178 8.21-4.69 8.168-3.575 16.1-3.59 23.797-0.042 1.664 2.673 4.308 4.472 8.375 4.987 0 0 56.695 4.079 56.695 4.079s36.399 2.619 36.399 2.619c0 0 36.332 2.614 36.332 2.614s43.041 3.097 43.041 3.097c0 0 1.697 0.122 1.697 0.122s0.977-13.573 0.977-13.573c0 0-6.955-0.5-6.955-0.5zM474.040 487.525c0 0-111.463 8.021-111.463 8.021-14.578 1.257-19.746-15.126-20.644-27.612-1.894-26.324 27.436-49.885 65.512-52.625s70.477 16.378 72.372 42.702c0.899 12.486 4.977 20.197-5.776 29.513zM676.61 468.307c-0.896 12.445-6.047 28.773-20.58 27.52 0 0-111.113-7.995-111.113-7.995-10.719-9.285-6.653-16.971-5.758-29.415 1.888-26.237 34.188-45.292 72.144-42.561s67.194 26.214 65.306 52.451z" />
<glyph unicode="&#xe93a;" d="M326.034 437.787c0 0 23.739 103.992 44.397 132.437s38.534 35.249 47.812 36.119c9.278 0.87 82.344-20.729 182.71 4.013 0 0 39.574 1.579 56.35-38.126 0 0 35.369-63.275 40.982-126.417 0 0 6.83 0 6.83 0s14.474 110.686 8.538 176.583c-5.937 65.897-92.209 98.325-92.209 98.325s18.783 14.046 18.783 14.046c0 0-43.853 13.556-61.473 6.020 0 0 13.661 28.093 13.661 28.093s-88.5-0.176-138.313-40.133c0 0 1.708 20.066 1.708 20.066s-175.58-26.925-138.313-307.014c0 0 8.538-4.013 8.538-4.013z" />
<glyph unicode="&#xe93b;" d="M838.853 173.003c-40.79-178.416-249.578-108.541-320.853-78.898 0 0 0 0.19 0 0.19-71.275-29.666-280.063-99.594-320.853 78.959 0 0 73.16-0.787 51.2 228.693 0 0-79.26 454.6 269.653 416.603 0 0 0-0.745 0-0.745 348.914 37.968 269.653-416.283 269.653-416.283-21.96-229.304 51.2-228.518 51.2-228.518z" />
<glyph unicode="&#xe93c;" d="M228.72-44c0 0-13.23 179.976 156.16 196.773 0 0 75.947 0 75.947 0s0 34.987 0 34.987c0 0 53.423-22.947 107.52-2.56 0 0 1.707-32.427 1.707-32.427s88.747 0 88.747 0c0 0 151.971-5.969 145.067-198.48 0 0-575.147 1.707-575.147 1.707z" />
<glyph unicode="&#xe93d;" d="M802.524-51.173c0 0-569.033 0-569.033 0s-11.036 0-11.036 0c0 0 2.755 47.060 2.755 47.060 5.379 91.884 77.774 162.007 160.62 162.007 0 0 56.967 0 56.967 0-3.696-3.057-6.404-6.227-8.352-9.387 0 0-43.586 0-43.586 0-79.847 0-149.621-67.497-154.805-155.941 0 0-1.913-32.646-1.913-32.646s566.879 0 566.879 0c0 0-1.060 32.646-1.060 32.646-5.184 88.444-74.958 155.941-154.805 155.941 0 0-43.623 0-43.623 0-1.668 3.136-4.040 6.307-7.352 9.387 0 0 55.499 0 55.499 0 82.846 0 155.241-70.123 160.62-162.007 0 0 2.755-47.060 2.755-47.060s-10.53 0-10.53 0zM577.301 148.507c0 0-2.981 0-2.981 0s0 9.387 0 9.387c0 0 3.312 0 3.312 0-0.198-2.44-0.325-5.514-0.331-9.387zM457.279 157.893c0 0 3.548 0 3.548 0s0-9.387 0-9.387c0 0-3.067 0-3.067 0-0.046 3.986-0.229 7.045-0.482 9.387z" />
<glyph unicode="&#xe93e;" d="M544.453 27.333c3.299 0 5.973-2.674 5.973-5.973s-2.674-5.973-5.973-5.973c-3.299 0-5.973 2.674-5.973 5.973s2.674 5.973 5.973 5.973z" />
<glyph unicode="&#xe93f;" d="M544.453-11.92c3.299 0 5.973-2.674 5.973-5.973s-2.674-5.973-5.973-5.973c-3.299 0-5.973 2.674-5.973 5.973s2.674 5.973 5.973 5.973z" />
<glyph unicode="&#xe940;" d="M613.573 107.547c0 0-43.52-64.853-43.52-64.853-11.839 36.695-46.080 23.040-46.080 23.040s0-108.376 0-108.376c0-2.826-2.674-5.117-5.973-5.117s-5.973 2.291-5.973 5.117c0 0 0 108.379 0 108.379-0.277 0.11-34.246 13.502-46.023-23.043 0 0-43.473 64.853-43.473 64.853s-16.816 42.753 34.096 61.44c0 18.645 0 19.627 0 19.627s9.627 0 9.627 0c0 0 0-35.648 0-61.767 1.236-10.633 8.557-40.928 51.746-50.873 43.236 9.944 50.565 40.24 51.802 50.873 0 26.12 0 61.767 0 61.767s9.638 0 9.638 0c0 0 0-0.981 0-19.627 50.968-18.687 34.133-61.44 34.133-61.44zM465.499 101.806c-2.32 2.628-5.663 9.154-5.663 9.154s-3.209 10.68-3.209 15.36c0 5.813 0 13.443 0 21.645-0.726 9.762-2.557 9.929-2.557 9.929-37.988-18.71-21.31-47.787-21.31-47.787s31.539-49.493 31.539-49.493c12.316 20.869 25.572 17.067 25.572 17.067-11.704 5.965-19.38 15.223-24.372 24.126zM582 157.893c0 0-1.833-0.167-2.56-9.929 0-8.202 0-15.832 0-21.645 0-4.68-3.213-15.36-3.213-15.36s-3.346-6.527-5.669-9.154c-4.998-8.903-12.682-18.16-24.399-24.126 0 0 13.27 3.802 25.6-17.067 0 0 31.573 49.493 31.573 49.493s16.695 29.076-21.333 47.787z" />
<glyph unicode="&#xe941;" d="M518.429 727.067c106.156 0 189.945-99.202 187.22-218.397 0 0-2.896-126.682-2.896-126.682-2.567-112.293-85.063-201.054-184.325-201.054s-181.758 88.762-184.325 201.054c0 0-2.896 126.682-2.896 126.682-2.724 119.194 81.064 218.397 187.22 218.397z" />
<glyph unicode="&#xe942;" d="M714.179 512.598c0 0-3.034-131.829-3.034-131.829-2.689-116.855-89.132-209.222-193.142-209.222s-190.452 92.368-193.142 209.222c0 0-3.034 131.829-3.034 131.829-2.855 124.036 84.942 227.269 196.176 227.269s199.031-103.233 196.176-227.269zM517.577 726.213c-104.705 0-187.348-98.427-184.661-216.69 0 0 2.856-125.693 2.856-125.693 2.532-111.415 83.9-199.484 181.805-199.484s179.273 88.068 181.805 199.484c0 0 2.856 125.693 2.856 125.693 2.687 118.263-79.956 216.69-184.661 216.69z" />
<glyph unicode="&#xe943;" d="M610.16 305.348c-15.51-13.468-50.544-26.281-91.307-26.281s-75.796 12.814-91.307 26.281c0 0-1.587 4.367 0.741 6.695 2.371 2.371 6.085 1.855 6.085 1.855 15.494-13.477 43.702-24.592 84.48-24.592s68.986 11.115 84.48 24.592c0 0 3.79 1.408 5.631-0.433 3.546-3.546 1.195-8.117 1.195-8.117z" />
<glyph unicode="&#xe944;" d="M490.693 258.587c0 0 54.613 0 54.613 0s0-8.533 0-8.533c0 0-54.613 0-54.613 0s0 8.533 0 8.533z" />
<glyph unicode="&#xe945;" d="M424.133 483.867c9.426 0 17.067-7.641 17.067-17.067s-7.641-17.067-17.067-17.067c-9.426 0-17.067 7.641-17.067 17.067s7.641 17.067 17.067 17.067z" />
<glyph unicode="&#xe946;" d="M613.573 483.867c9.426 0 17.067-7.641 17.067-17.067s-7.641-17.067-17.067-17.067c-9.426 0-17.067 7.641-17.067 17.067s7.641 17.067 17.067 17.067z" />
<glyph unicode="&#xe947;" d="M423.28 420.72c16.495 0 29.867-0.946 29.867-19.627 0-19.268-13.372-19.627-29.867-19.627s-29.867 3.509-29.867 19.627c0 18.827 13.372 19.627 29.867 19.627z" />
<glyph unicode="&#xe948;" d="M621.253 420.72c16.495 0 29.867-0.946 29.867-19.627 0-19.268-13.372-19.627-29.867-19.627s-29.867 3.509-29.867 19.627c0 18.827 13.372 19.627 29.867 19.627z" />
<glyph unicode="&#xe949;" d="M564 514.78c0 0 4.943-6.278 4.943-6.278s3.067-3.891 3.067-3.891c0 0 54.301 29.984 91.99-4.61 0 0 4.018-1.97 4.018-1.97s-9.285 50.153-90.563 20.817c-4.288-1.163-8.763-2.506-13.455-4.068z" />
<glyph unicode="&#xe94a;" d="M470 514.745c0 0-4.943-6.265-4.943-6.265s-3.067-3.883-3.067-3.883c0 0-54.301 29.922-91.99-4.601 0 0-4.018-1.966-4.018-1.966s9.285 50.048 90.563 20.774c4.288-1.161 8.763-2.5 13.455-4.059z" />
<glyph unicode="&#xe94b;" d="M700.613 587.973c0 0 35.84 0 35.84 0s0-85.333 0-85.333c0 0-35.84 0-35.84 0s0 85.333 0 85.333z" />
<glyph unicode="&#xe94c;" d="M307.557 510.513c0 0 37.695 72.58 109.83 61.035 0 0 2.853-16.532 18.364-34.304 0 0 16.982 41.104 69.348 52.683 41.6 9.199 81.092 42.361 81.092 42.361s6.143-65.902 87.201-84.254c0 0 71.022-8.781 65.867 30.463s-44.568 210.055-233.3 184.197c-188.732-25.858-233.058-94.395-200.079-250.463z" />
<glyph unicode="&#xe94d;" d="M319.614 493.374c-0.024-0.001-2.095 1.653-6.007 2.885-1.955 0.615-4.385 1.12-7.155 1.245-0.692 0.031-1.404 0.039-2.132 0.018s-1.474-0.069-2.231-0.15c-1.514-0.162-3.079-0.453-4.653-0.905-6.302-1.811-12.731-6.215-16.507-15.304-1.895-4.545-3.146-10.261-3.476-17.414-0.083-1.788-0.108-3.666-0.072-5.638s0.134-4.037 0.298-6.201c0.327-4.327 0.917-9.046 1.796-14.189-0.019 0.005-0.82-15.54 4.737-33.402 5.224-17.464 17.77-38.917 40.934-45.047-2.664 44.359-2.747 89.549-5.532 134.103 0 0 0 0 0 0z" />
<glyph unicode="&#xe94e;" d="M324.256 491.585c0 0-40.353 12.503-38.933-28.982 0 0 6.008-60.155 8.617-65.699 0 0 15.848-35.024 42.002-36.576 25.562-1.517 0 0 0 0s0.317-11.289 0.317-11.289c0 0-45.969 5.894-54.848 58.869 0 0-7.008 48.125-7.008 48.125s-5.441 63.689 47.339 47.496c51.419-15.776 0 0 0 0s2.513-11.945 2.513-11.945z" />
<glyph unicode="&#xe94f;" d="M310.937 408.010c0 0-2.258-1.707-4.198-1.707s-4.171 1.707-4.171 1.707c0 0-4.164 41.966-4.164 41.966s5.746 20.667 30.128 9.745c0 0 0.576-11.999 0.576-11.999s-21.391 7.586-20.949-1.86c0.426-9.093 2.779-37.851 2.779-37.851z" />
<glyph unicode="&#xe950;" d="M715.627 493.276c0.024-0.001 2.104 1.652 6.034 2.883 1.964 0.614 4.404 1.119 7.186 1.244 0.695 0.031 1.41 0.038 2.141 0.018s1.48-0.069 2.241-0.15c1.521-0.162 3.092-0.452 4.673-0.905 6.33-1.81 12.787-6.21 16.58-15.293 1.904-4.542 3.16-10.254 3.492-17.402 0.083-1.787 0.108-3.664 0.072-5.634s-0.135-4.035-0.299-6.197c-0.328-4.324-0.921-9.040-1.804-14.179 0.019 0.005 0.824-15.529-4.758-33.38-5.247-17.452-17.848-38.89-41.113-45.017 2.676 44.329 2.759 89.488 5.556 134.012 0 0 0 0 0 0z" />
<glyph unicode="&#xe951;" d="M710.965 491.489c0 0 40.53 12.495 39.103-28.962 0 0-6.034-60.114-8.654-65.654 0 0-15.917-35-42.186-36.551-25.674-1.516 0 0 0 0s-0.319-11.281-0.319-11.281c0 0 46.171 5.89 55.088 58.829 0 0 7.038 48.093 7.038 48.093s5.465 63.646-47.546 47.464c-51.644-15.765 0 0 0 0s-2.524-11.937-2.524-11.937z" />
<glyph unicode="&#xe952;" d="M724.343 407.97c0 0 2.268-1.706 4.217-1.706s4.189 1.706 4.189 1.706c0 0 4.183 41.937 4.183 41.937s-5.771 20.653-30.26 9.738c0 0-0.579-11.991-0.579-11.991s21.485 7.581 21.041-1.859c-0.428-9.087-2.791-37.825-2.791-37.825z" />
<glyph unicode="&#xe953;" d="M533.787 411.333c0.995 0 1.991 0 2.987 0 6.175-8.386 8.687-21.273 11.947-32.427 1.010-3.457 0.030-9.503-0.853-11.947-3.236-8.951-13.395-8.79-21.76-12.8-2.246-1.077-3.917-2.936-6.827-3.413-1.897 1.671-4.187 1.999-5.12 4.693-2.305 3.173 0.666 5.155 2.987 6.4 4.212 2.259 17.216 4.486 18.773 8.533 1.926 2.191 0.646 8.78 0 11.093-1.653 5.924-2.447 10.87-4.693 16.213-1.492 3.549-4.112 7.291-2.56 11.52 1.286 0.552 4.067 1.18 5.12 2.133z" />
<glyph unicode="&#xe954;" d="M224-44c0 0-23.978 184.914 160.853 201.627 0 0 44.373 0 44.373 0s14.523 9.387 24.747 9.387c0 0 0 26.453 0 26.453s55.387-27.617 112.64-0.853c0 0 0-23.893 0-23.893s2.433 4.573 27.307-11.947c0 0 66.56 0 66.56 0s141.52-17.457 141.52-200.773c0 0-578 0-578 0z" />
<glyph unicode="&#xe955;" d="M796.524-51.173c0 0-569.033 0-569.033 0s-11.036 0-11.036 0c0 0 2.755 47.060 2.755 47.060 5.379 91.884 77.774 162.007 160.62 162.007 0 0 56.967 0 56.967 0-3.696-3.057-6.404-6.227-8.352-9.387 0 0-43.586 0-43.586 0-79.847 0-149.621-67.497-154.805-155.941 0 0-1.913-32.646-1.913-32.646s566.879 0 566.879 0c0 0-1.060 32.646-1.060 32.646-5.184 88.444-74.958 155.941-154.805 155.941 0 0-43.623 0-43.623 0-1.668 3.136-4.040 6.307-7.352 9.387 0 0 55.499 0 55.499 0 82.846 0 155.241-70.123 160.62-162.007 0 0 2.755-47.060 2.755-47.060s-10.53 0-10.53 0zM571.301 148.507c0 0-2.981 0-2.981 0s0 9.387 0 9.387c0 0 3.312 0 3.312 0-0.198-2.44-0.325-5.514-0.331-9.387zM451.279 157.893c0 0 3.548 0 3.548 0s0-9.387 0-9.387c0 0-3.067 0-3.067 0-0.046 3.986-0.229 7.045-0.482 9.387z" />
<glyph unicode="&#xe956;" d="M538.453 27.333c3.299 0 5.973-2.674 5.973-5.973s-2.674-5.973-5.973-5.973c-3.299 0-5.973 2.674-5.973 5.973s2.674 5.973 5.973 5.973z" />
<glyph unicode="&#xe957;" d="M538.453-11.92c3.299 0 5.973-2.674 5.973-5.973s-2.674-5.973-5.973-5.973c-3.299 0-5.973 2.674-5.973 5.973s2.674 5.973 5.973 5.973z" />
<glyph unicode="&#xe958;" d="M607.573 107.547c0 0-43.52-64.853-43.52-64.853-11.839 36.695-46.080 23.040-46.080 23.040s0-108.376 0-108.376c0-2.826-2.674-5.117-5.973-5.117s-5.973 2.291-5.973 5.117c0 0 0 108.379 0 108.379-0.277 0.11-34.246 13.502-46.023-23.043 0 0-43.473 64.853-43.473 64.853s-16.816 42.753 34.096 61.44c0 18.645 0 19.627 0 19.627s9.627 0 9.627 0c0 0 0-35.648 0-61.767 1.236-10.633 8.557-40.928 51.746-50.873 43.236 9.944 50.565 40.24 51.802 50.873 0 26.12 0 61.767 0 61.767s9.638 0 9.638 0c0 0 0-0.981 0-19.627 50.968-18.687 34.133-61.44 34.133-61.44zM459.499 101.806c-2.32 2.628-5.663 9.154-5.663 9.154s-3.209 10.68-3.209 15.36c0 5.813 0 13.443 0 21.645-0.726 9.762-2.557 9.929-2.557 9.929-37.988-18.71-21.31-47.787-21.31-47.787s31.539-49.493 31.539-49.493c12.316 20.869 25.572 17.067 25.572 17.067-11.704 5.965-19.38 15.223-24.372 24.126zM576 157.893c0 0-1.833-0.167-2.56-9.929 0-8.202 0-15.832 0-21.645 0-4.68-3.213-15.36-3.213-15.36s-3.346-6.527-5.669-9.154c-4.998-8.903-12.682-18.16-24.399-24.126 0 0 13.27 3.802 25.6-17.067 0 0 31.573 49.493 31.573 49.493s16.695 29.076-21.333 47.787z" />
<glyph unicode="&#xe959;" d="M512.429 727.067c106.156 0 189.945-99.202 187.22-218.397 0 0-2.896-126.682-2.896-126.682-2.567-112.293-85.063-201.054-184.325-201.054s-181.758 88.762-184.325 201.054c0 0-2.896 126.682-2.896 126.682-2.724 119.194 81.064 218.397 187.22 218.397z" />
<glyph unicode="&#xe95a;" d="M708.179 512.598c0 0-3.034-131.829-3.034-131.829-2.689-116.855-89.132-209.222-193.142-209.222s-190.452 92.368-193.142 209.222c0 0-3.034 131.829-3.034 131.829-2.855 124.036 84.942 227.269 196.176 227.269s199.031-103.233 196.176-227.269zM511.577 726.213c-104.705 0-187.348-98.427-184.661-216.69 0 0 2.856-125.693 2.856-125.693 2.532-111.415 83.9-199.484 181.805-199.484s179.273 88.068 181.805 199.484c0 0 2.856 125.693 2.856 125.693 2.687 118.263-79.956 216.69-184.661 216.69z" />
<glyph unicode="&#xe95b;" d="M702.853 490.693c0 0-8.533-139.947-8.533-139.947s-37.9-161.542-184.32-180.669c0 0 0-0.237 0-0.237-0.288 0.035-0.566 0.082-0.853 0.119-0.287-0.036-0.566-0.083-0.853-0.119 0 0 0 0.237 0 0.237-146.419 19.128-184.32 180.669-184.32 180.669s-8.533 139.947-8.533 139.947c37.996-168.653 69.973-179.2 69.973-179.2-6.471 51.142 46.080 46.080 46.080 46.080 32.028-5.41 57.525-8.025 77.653-9.002 20.128 0.977 45.625 3.592 77.653 9.002 0 0 52.551 5.062 46.080-46.080 0 0 31.978 10.547 69.973 179.2zM607.966 294.147c-2.484 30.083-20.624 27.532-20.624 27.532-32.249-9.489-57.564-14.761-77.342-17.44 0 0 0 0.197 0 0.197-19.639 2.657-44.777 7.886-76.8 17.297 0 0-18.013 2.53-20.48-27.307 0 0-7.233-29.893 17.067-42.667 0 0 30.72-32.427 30.72-32.427s20.993-6.653 20.48 18.773c0 0-2.137 18.963 10.24 22.187 0 0 18.773 0 18.773 0s0-0.562 0-0.562c0 0 18.906 0 18.906 0 12.464-3.25 10.312-22.37 10.312-22.37-0.517-25.637 20.624-18.928 20.624-18.928s30.937 32.695 30.937 32.695c24.471 12.879 17.187 43.019 17.187 43.019z" />
<glyph unicode="&#xe95c;" d="M604.16 305.348c-15.51-13.468-50.544-26.281-91.307-26.281s-75.796 12.814-91.307 26.281c0 0-1.587 4.367 0.741 6.695 2.371 2.371 6.085 1.855 6.085 1.855 15.494-13.477 43.702-24.592 84.48-24.592s68.986 11.115 84.48 24.592c0 0 3.79 1.408 5.631-0.433 3.546-3.546 1.195-8.117 1.195-8.117z" />
<glyph unicode="&#xe95d;" d="M484.693 258.587c0 0 54.613 0 54.613 0s0-8.533 0-8.533c0 0-54.613 0-54.613 0s0 8.533 0 8.533z" />
<glyph unicode="&#xe95e;" d="M315.614 493.374c-0.024-0.001-2.095 1.653-6.007 2.885-1.955 0.615-4.385 1.12-7.155 1.245-0.692 0.031-1.404 0.039-2.132 0.018s-1.474-0.069-2.231-0.15c-1.514-0.162-3.079-0.453-4.653-0.905-6.302-1.811-12.731-6.215-16.507-15.304-1.895-4.545-3.146-10.261-3.476-17.414-0.083-1.788-0.108-3.666-0.072-5.638s0.134-4.037 0.298-6.201c0.327-4.327 0.917-9.046 1.796-14.189-0.019 0.005-0.82-15.54 4.737-33.402 5.224-17.464 17.77-38.917 40.934-45.047-2.664 44.359-2.747 89.549-5.532 134.103 0 0 0 0 0 0z" />
<glyph unicode="&#xe95f;" d="M318.256 491.585c0 0-40.353 12.503-38.933-28.982 0 0 6.008-60.155 8.617-65.699 0 0 15.848-35.024 42.002-36.576 25.562-1.517 0 0 0 0s0.317-11.289 0.317-11.289c0 0-45.969 5.894-54.848 58.869 0 0-7.008 48.125-7.008 48.125s-5.441 63.689 47.339 47.496c51.419-15.776 0 0 0 0s2.513-11.945 2.513-11.945z" />
<glyph unicode="&#xe960;" d="M304.937 408.010c0 0-2.258-1.707-4.198-1.707s-4.171 1.707-4.171 1.707c0 0-4.164 41.966-4.164 41.966s5.746 20.667 30.128 9.745c0 0 0.576-11.999 0.576-11.999s-21.391 7.586-20.949-1.86c0.426-9.093 2.779-37.851 2.779-37.851z" />
<glyph unicode="&#xe961;" d="M709.627 493.276c0.024-0.001 2.104 1.652 6.034 2.883 1.964 0.614 4.404 1.119 7.186 1.244 0.695 0.031 1.41 0.038 2.141 0.018s1.48-0.069 2.241-0.15c1.521-0.162 3.092-0.452 4.673-0.905 6.33-1.81 12.787-6.21 16.58-15.293 1.904-4.542 3.16-10.254 3.492-17.402 0.083-1.787 0.108-3.664 0.072-5.634s-0.135-4.035-0.299-6.197c-0.328-4.324-0.921-9.040-1.804-14.179 0.019 0.005 0.824-15.529-4.758-33.38-5.247-17.452-17.848-38.89-41.113-45.017 2.676 44.329 2.759 89.488 5.556 134.012 0 0 0 0 0 0z" />
<glyph unicode="&#xe962;" d="M704.965 491.489c0 0 40.53 12.495 39.103-28.962 0 0-6.034-60.114-8.654-65.654 0 0-15.917-35-42.186-36.551-25.674-1.516 0 0 0 0s-0.319-11.281-0.319-11.281c0 0 46.171 5.89 55.088 58.829 0 0 7.038 48.093 7.038 48.093s5.465 63.646-47.546 47.464c-51.644-15.765 0 0 0 0s-2.524-11.937-2.524-11.937z" />
<glyph unicode="&#xe963;" d="M718.343 407.97c0 0 2.268-1.706 4.217-1.706s4.189 1.706 4.189 1.706c0 0 4.183 41.937 4.183 41.937s-5.771 20.653-30.26 9.738c0 0-0.579-11.991-0.579-11.991s21.485 7.581 21.041-1.859c-0.428-9.087-2.791-37.825-2.791-37.825z" />
<glyph unicode="&#xe964;" d="M706.685 493.301c0.024-0.001 2.098 1.661 6.014 2.898 1.957 0.617 4.39 1.125 7.163 1.25 0.692 0.031 1.405 0.039 2.134 0.018s1.475-0.070 2.233-0.151c1.516-0.163 3.082-0.455 4.658-0.91 6.309-1.82 12.746-6.243 16.526-15.374 1.898-4.566 3.149-10.309 3.48-17.494 0.083-1.796 0.108-3.683 0.072-5.664s-0.134-4.056-0.298-6.23c-0.327-4.347-0.918-9.088-1.798-14.254 0.019 0.005 0.821-15.612-4.742-33.557-5.23-17.545-17.79-39.097-40.979-45.256 2.667 44.564 2.75 89.964 5.538 134.723 0 0 0 0 0 0z" />
<glyph unicode="&#xe965;" d="M705.845 491.489c0 0 40.529 12.495 39.103-28.962 0 0-6.034-60.114-8.654-65.654 0 0-15.917-35-42.186-36.551-25.674-1.516 0 0 0 0s-0.319-11.281-0.319-11.281c0 0 46.171 5.89 55.088 58.829 0 0 7.038 48.093 7.038 48.093s5.465 63.646-47.546 47.464c-51.644-15.765 0 0 0 0s-2.524-11.937-2.524-11.937z" />
<glyph unicode="&#xe966;" d="M719.223 407.97c0 0 8.406 0 8.406 0s4.183 41.937 4.183 41.937c0 0-5.771 20.653-30.26 9.738 0 0-0.579-11.991-0.579-11.991s21.485 7.581 21.041-1.859c-0.428-9.087-2.791-37.825-2.791-37.825z" />
<glyph unicode="&#xe967;" d="M527.787 411.333c0.995 0 1.991 0 2.987 0 6.175-8.386 8.687-21.273 11.947-32.427 1.010-3.457 0.030-9.503-0.853-11.947-3.236-8.951-13.395-8.79-21.76-12.8-2.246-1.077-3.917-2.936-6.827-3.413-1.897 1.671-4.187 1.999-5.12 4.693-2.305 3.173 0.666 5.155 2.987 6.4 4.212 2.259 17.216 4.486 18.773 8.533 1.926 2.191 0.646 8.78 0 11.093-1.653 5.924-2.447 10.87-4.693 16.213-1.492 3.549-4.112 7.291-2.56 11.52 1.286 0.552 4.067 1.18 5.12 2.133z" />
<glyph unicode="&#xe968;" d="M409.6 477.040c0 0 11.947 0 11.947 0 6.598 0 11.947-5.349 11.947-11.947s-5.349-11.947-11.947-11.947c0 0-11.947 0-11.947 0-6.598 0-11.947 5.349-11.947 11.947s5.349 11.947 11.947 11.947z" />
<glyph unicode="&#xe969;" d="M604.16 477.040c0 0 11.947 0 11.947 0 6.598 0 11.947-5.349 11.947-11.947s-5.349-11.947-11.947-11.947c0 0-11.947 0-11.947 0-6.598 0-11.947 5.349-11.947 11.947s5.349 11.947 11.947 11.947z" />
<glyph unicode="&#xe96a;" d="M361.813 507.76c0 0 114.347 0 114.347 0 6.598 0 11.947-5.349 11.947-11.947 0 0 0-73.387 0-73.387 0-6.598-5.349-11.947-11.947-11.947 0 0-114.347 0-114.347 0-6.598 0-11.947 5.349-11.947 11.947 0 0 0 73.387 0 73.387 0 6.598 5.349 11.947 11.947 11.947z" />
<glyph unicode="&#xe96b;" d="M546.133 507.76c0 0 114.347 0 114.347 0 6.598 0 11.947-5.349 11.947-11.947 0 0 0-73.387 0-73.387 0-6.598-5.349-11.947-11.947-11.947 0 0-114.347 0-114.347 0-6.598 0-11.947 5.349-11.947 11.947 0 0 0 73.387 0 73.387 0 6.598 5.349 11.947 11.947 11.947z" />
<glyph unicode="&#xe96c;" d="M682.667 499.227c0 0 0-63.147 0-63.147 0-15.431-15.053-39.511-39.581-40.89-3.603 0.172-76.472-0.070-76.472-0.070-32.757 0-39.253 39.253-39.253 39.253s0 42.667 0 42.667c0 0-30.72 0-30.72 0s0-42.667 0-42.667c0 0-6.497-39.253-39.253-39.253 0 0-72.869 0.242-76.472 0.070-24.528 1.379-39.581 25.458-39.581 40.89 0 0 0 63.147 0 63.147s-27.307 0-27.307 0c0 0 0 17.067 0 17.067s158.72 0 158.72 0c0 0 23.893-3.86 23.893-20.48 0 0 30.72 0 30.72 0 0 16.62 23.893 20.48 23.893 20.48s158.72 0 158.72 0c0 0 0-17.067 0-17.067s-27.307 0-27.307 0zM479.573 490.693c0 6.083-6.827 6.827-6.827 6.827s-114.347 0-114.347 0c0 0 0-59.733 0-59.733 0-18.612 25.6-25.6 25.6-25.6s69.973 0 69.973 0c24.075 0 25.6 25.6 25.6 25.6s0 46.823 0 52.907zM665.6 497.52c0 0-114.347 0-114.347 0s-6.827-0.743-6.827-6.827c0-6.083 0-52.907 0-52.907s1.525-25.6 25.6-25.6c0 0 69.973 0 69.973 0s25.6 6.988 25.6 25.6c0 0 0 59.733 0 59.733zM641.707 395.12c0.465 0.010 0.92 0.044 1.379 0.070 0.386-0.018-0.002-0.041-1.379-0.070zM380.914 395.19c0.459-0.026 0.914-0.060 1.379-0.070-1.377 0.029-1.765 0.052-1.379 0.070z" />
<glyph unicode="&#xe96d;" d="M645.147 347.333c0 0-92.72 111.773 6.827-5.12s179.2-46.080 179.2-46.080c0 0 0 229.267 0 397.653s-104.107 174.080-104.107 174.080c0 0 32.427 8.533 32.427 8.533-128.951 53.27-173.2-39.951-183.479-68.737-1.787-5.005-2.548-8.063-2.548-8.063s-9.235-41.937 7.68-58.027z" />
<glyph unicode="&#xe96e;" d="M513.733 770.587c118.292 0 214.187-95.895 214.187-214.187 0 0 0-44.373 0-44.373 0-118.292-95.895-214.187-214.187-214.187s-214.187 95.895-214.187 214.187c0 0 0 44.373 0 44.373 0 118.292 95.895 214.187 214.187 214.187z" />
<glyph unicode="&#xe96f;" d="M228.72-44c0 0-13.23 179.976 156.16 196.773 0 0 75.947 0 75.947 0s0 34.987 0 34.987c0 0 53.423-22.947 107.52-2.56 0 0 1.707-32.427 1.707-32.427s88.747 0 88.747 0c0 0 151.971-5.969 145.067-198.48 0 0-575.147 1.707-575.147 1.707z" />
<glyph unicode="&#xe970;" d="M802.524-51.173c0 0-569.033 0-569.033 0s-11.036 0-11.036 0c0 0 2.755 47.060 2.755 47.060 5.379 91.884 77.774 162.007 160.62 162.007 0 0 56.967 0 56.967 0-3.696-3.057-6.404-6.227-8.352-9.387 0 0-43.586 0-43.586 0-79.847 0-149.621-67.497-154.805-155.941 0 0-1.913-32.646-1.913-32.646s566.879 0 566.879 0c0 0-1.060 32.646-1.060 32.646-5.184 88.444-74.958 155.941-154.805 155.941 0 0-43.623 0-43.623 0-1.668 3.136-4.040 6.307-7.352 9.387 0 0 55.499 0 55.499 0 82.846 0 155.241-70.123 160.62-162.007 0 0 2.755-47.060 2.755-47.060s-10.53 0-10.53 0zM577.301 148.507c0 0-2.981 0-2.981 0s0 9.387 0 9.387c0 0 3.312 0 3.312 0-0.198-2.44-0.325-5.514-0.331-9.387zM457.279 157.893c0 0 3.548 0 3.548 0s0-9.387 0-9.387c0 0-3.067 0-3.067 0-0.046 3.986-0.229 7.045-0.482 9.387z" />
<glyph unicode="&#xe971;" d="M544.453 27.333c3.299 0 5.973-2.674 5.973-5.973s-2.674-5.973-5.973-5.973c-3.299 0-5.973 2.674-5.973 5.973s2.674 5.973 5.973 5.973z" />
<glyph unicode="&#xe972;" d="M544.453-11.92c3.299 0 5.973-2.674 5.973-5.973s-2.674-5.973-5.973-5.973c-3.299 0-5.973 2.674-5.973 5.973s2.674 5.973 5.973 5.973z" />
<glyph unicode="&#xe973;" d="M613.573 107.547c0 0-43.52-64.853-43.52-64.853-11.839 36.695-46.080 23.040-46.080 23.040s0-108.376 0-108.376c0-2.826-2.674-5.117-5.973-5.117s-5.973 2.291-5.973 5.117c0 0 0 108.379 0 108.379-0.277 0.11-34.246 13.502-46.023-23.043 0 0-43.473 64.853-43.473 64.853s-16.816 42.753 34.096 61.44c0 18.645 0 19.627 0 19.627s9.627 0 9.627 0c0 0 0-35.648 0-61.767 1.236-10.633 8.557-40.928 51.746-50.873 43.236 9.944 50.565 40.24 51.802 50.873 0 26.12 0 61.767 0 61.767s9.638 0 9.638 0c0 0 0-0.981 0-19.627 50.968-18.687 34.133-61.44 34.133-61.44zM465.499 101.806c-2.32 2.628-5.663 9.154-5.663 9.154s-3.209 10.68-3.209 15.36c0 5.813 0 13.443 0 21.645-0.726 9.762-2.557 9.929-2.557 9.929-37.988-18.71-21.31-47.787-21.31-47.787s31.539-49.493 31.539-49.493c12.316 20.869 25.572 17.067 25.572 17.067-11.704 5.965-19.38 15.223-24.372 24.126zM582 157.893c0 0-1.833-0.167-2.56-9.929 0-8.202 0-15.832 0-21.645 0-4.68-3.213-15.36-3.213-15.36s-3.346-6.527-5.669-9.154c-4.998-8.903-12.682-18.16-24.399-24.126 0 0 13.27 3.802 25.6-17.067 0 0 31.573 49.493 31.573 49.493s16.695 29.076-21.333 47.787z" />
<glyph unicode="&#xe974;" d="M518.429 727.067c106.156 0 189.945-99.202 187.22-218.397 0 0-2.896-126.682-2.896-126.682-2.567-112.293-85.063-201.054-184.325-201.054s-181.758 88.762-184.325 201.054c0 0-2.896 126.682-2.896 126.682-2.724 119.194 81.064 218.397 187.22 218.397z" />
<glyph unicode="&#xe975;" d="M714.179 512.598c0 0-3.034-131.829-3.034-131.829-2.689-116.855-89.132-209.222-193.142-209.222s-190.452 92.368-193.142 209.222c0 0-3.034 131.829-3.034 131.829-2.855 124.036 84.942 227.269 196.176 227.269s199.031-103.233 196.176-227.269zM517.577 726.213c-104.705 0-187.348-98.427-184.661-216.69 0 0 2.856-125.693 2.856-125.693 2.532-111.415 83.9-199.484 181.805-199.484s179.273 88.068 181.805 199.484c0 0 2.856 125.693 2.856 125.693 2.687 118.263-79.956 216.69-184.661 216.69z" />
<glyph unicode="&#xe976;" d="M610.16 305.348c-15.51-13.468-50.544-26.281-91.307-26.281s-75.796 12.814-91.307 26.281c0 0-1.587 4.367 0.741 6.695 2.371 2.371 6.085 1.855 6.085 1.855 15.494-13.477 43.702-24.592 84.48-24.592s68.986 11.115 84.48 24.592c0 0 3.79 1.408 5.631-0.433 3.546-3.546 1.195-8.117 1.195-8.117z" />
<glyph unicode="&#xe977;" d="M490.693 258.587c0 0 54.613 0 54.613 0s0-8.533 0-8.533c0 0-54.613 0-54.613 0s0 8.533 0 8.533z" />
<glyph unicode="&#xe978;" d="M321.614 493.374c-0.024-0.001-2.095 1.653-6.007 2.885-1.955 0.615-4.385 1.12-7.155 1.245-0.692 0.031-1.404 0.039-2.132 0.018s-1.474-0.069-2.231-0.15c-1.514-0.162-3.079-0.453-4.653-0.905-6.302-1.811-12.731-6.215-16.507-15.304-1.895-4.545-3.146-10.261-3.476-17.414-0.083-1.788-0.108-3.666-0.072-5.638s0.134-4.037 0.298-6.201c0.327-4.327 0.917-9.046 1.796-14.189-0.019 0.005-0.82-15.54 4.737-33.402 5.224-17.464 17.77-38.917 40.934-45.047-2.664 44.359-2.747 89.549-5.532 134.103 0 0 0 0 0 0z" />
<glyph unicode="&#xe979;" d="M324.256 491.585c0 0-40.353 12.503-38.933-28.982 0 0 6.008-60.155 8.617-65.699 0 0 15.848-35.024 42.002-36.576 25.562-1.517 0 0 0 0s0.317-11.289 0.317-11.289c0 0-45.969 5.894-54.848 58.869 0 0-7.008 48.125-7.008 48.125s-5.441 63.689 47.339 47.496c51.419-15.776 0 0 0 0s2.513-11.945 2.513-11.945z" />
<glyph unicode="&#xe97a;" d="M310.937 408.010c0 0-2.258-1.707-4.198-1.707s-4.171 1.707-4.171 1.707c0 0-4.164 41.966-4.164 41.966s5.746 20.667 30.128 9.745c0 0 0.576-11.999 0.576-11.999s-21.391 7.586-20.949-1.86c0.426-9.093 2.779-37.851 2.779-37.851z" />
<glyph unicode="&#xe97b;" d="M715.627 493.276c0.024-0.001 2.104 1.652 6.034 2.883 1.964 0.614 4.404 1.119 7.186 1.244 0.695 0.031 1.41 0.038 2.141 0.018s1.48-0.069 2.241-0.15c1.521-0.162 3.092-0.452 4.673-0.905 6.33-1.81 12.787-6.21 16.58-15.293 1.904-4.542 3.16-10.254 3.492-17.402 0.083-1.787 0.108-3.664 0.072-5.634s-0.135-4.035-0.299-6.197c-0.328-4.324-0.921-9.040-1.804-14.179 0.019 0.005 0.824-15.529-4.758-33.38-5.247-17.452-17.848-38.89-41.113-45.017 2.676 44.329 2.759 89.488 5.556 134.012 0 0 0 0 0 0z" />
<glyph unicode="&#xe97c;" d="M710.965 491.489c0 0 40.53 12.495 39.103-28.962 0 0-6.034-60.114-8.654-65.654 0 0-15.917-35-42.186-36.551-25.674-1.516 0 0 0 0s-0.319-11.281-0.319-11.281c0 0 46.171 5.89 55.088 58.829 0 0 7.038 48.093 7.038 48.093s5.465 63.646-47.546 47.464c-51.644-15.765 0 0 0 0s-2.524-11.937-2.524-11.937z" />
<glyph unicode="&#xe97d;" d="M724.343 407.97c0 0 2.268-1.706 4.217-1.706s4.189 1.706 4.189 1.706c0 0 4.183 41.937 4.183 41.937s-5.771 20.653-30.26 9.738c0 0-0.579-11.991-0.579-11.991s21.485 7.581 21.041-1.859c-0.428-9.087-2.791-37.825-2.791-37.825z" />
<glyph unicode="&#xe97e;" d="M533.787 411.333c0.995 0 1.991 0 2.987 0 6.175-8.386 8.687-21.273 11.947-32.427 1.010-3.457 0.030-9.503-0.853-11.947-3.236-8.951-13.395-8.79-21.76-12.8-2.246-1.077-3.917-2.936-6.827-3.413-1.897 1.671-4.187 1.999-5.12 4.693-2.305 3.173 0.666 5.155 2.987 6.4 4.212 2.259 17.216 4.486 18.773 8.533 1.926 2.191 0.646 8.78 0 11.093-1.653 5.924-2.447 10.87-4.693 16.213-1.492 3.549-4.112 7.291-2.56 11.52 1.286 0.552 4.067 1.18 5.12 2.133z" />
<glyph unicode="&#xe97f;" d="M415.6 477.040c0 0 11.947 0 11.947 0 6.598 0 11.947-5.349 11.947-11.947s-5.349-11.947-11.947-11.947c0 0-11.947 0-11.947 0-6.598 0-11.947 5.349-11.947 11.947s5.349 11.947 11.947 11.947z" />
<glyph unicode="&#xe980;" d="M610.16 477.040c0 0 11.947 0 11.947 0 6.598 0 11.947-5.349 11.947-11.947s-5.349-11.947-11.947-11.947c0 0-11.947 0-11.947 0-6.598 0-11.947 5.349-11.947 11.947s5.349 11.947 11.947 11.947z" />
<glyph unicode="&#xe981;" d="M621.253 420.72c11.782 0 21.333-9.551 21.333-21.333s-9.551-21.333-21.333-21.333c-11.782 0-21.333 9.551-21.333 21.333s9.551 21.333 21.333 21.333z" />
<glyph unicode="&#xe982;" d="M414.747 420.72c11.782 0 21.333-9.551 21.333-21.333s-9.551-21.333-21.333-21.333c-11.782 0-21.333 9.551-21.333 21.333s9.551 21.333 21.333 21.333z" />
<glyph unicode="&#xe983;" d="M564 514.78c0 0 4.943-6.278 4.943-6.278s3.067-3.891 3.067-3.891c0 0 54.301 29.984 91.99-4.61 0 0 4.018-1.97 4.018-1.97s-9.285 50.153-90.563 20.817c-4.288-1.163-8.763-2.506-13.455-4.068z" />
<glyph unicode="&#xe984;" d="M470 514.745c0 0-4.943-6.265-4.943-6.265s-3.067-3.883-3.067-3.883c0 0-54.301 29.922-91.99-4.601 0 0-4.018-1.966-4.018-1.966s9.285 50.048 90.563 20.774c4.288-1.161 8.763-2.5 13.455-4.059z" />
<glyph unicode="&#xe985;" d="M518 625.981c0 0 0 188.957 0 188.957 0.57 0.004 1.136 0.022 1.707 0.022 119.706 0 216.747-97.041 216.747-216.747 0 0 0-69.66 0-69.66-0.044-2.428-0.046-4.81 0-7.14 0 0-201.297 54.44-218.453 104.568zM299.547 521.413c0.046 2.33 0.044 4.712 0 7.14 0 0 0 69.66 0 69.66 0 119.706 97.041 216.747 216.747 216.747 0.571 0 1.137-0.017 1.707-0.022 0 0 0-188.957 0-188.957-17.156-50.128-218.453-104.568-218.453-104.568z" />
<glyph unicode="&#xe986;" d="M224-48c0 0-20.604 180.622 156.88 200.773 0 0 75.947 0 75.947 0s0 34.987 0 34.987c0 0 53.423-22.947 107.52-2.56 0 0 1.707-32.427 1.707-32.427s88.747 0 88.747 0c0 0 154.547-15.429 145.2-200.773 0 0-576 0-576 0z" />
<glyph unicode="&#xe987;" d="M798.524-51.173c0 0 0 0 0 0s-569.033 0-569.033 0c0 0 0 0 0 0s-11.036 0-11.036 0c0 0 2.755 47.060 2.755 47.060 5.379 91.884 77.774 162.007 160.62 162.007 0 0 63.050 0 63.050 0s0-9.387 0-9.387c0 0-58.021 0-58.021 0-79.847 0-149.621-67.497-154.805-155.941 0 0-1.913-32.646-1.913-32.646s566.879 0 566.879 0c0 0-1.060 32.646-1.060 32.646-5.184 88.444-74.958 155.941-154.805 155.941 0 0-77.662 0-77.662 0s0 9.387 0 9.387c0 0 82.185 0 82.185 0 82.846 0 155.241-70.123 160.62-162.007 0 0 2.755-47.060 2.755-47.060s-10.53 0-10.53 0z" />
<glyph unicode="&#xe988;" d="M465.36 191.708c0 0 0-52.63 0-52.63 0-27.311 22.159-49.451 49.493-49.451s49.493 22.14 49.493 49.451c0 0 0 51.544 0 51.544 2.872 0.874 5.718 1.824 8.533 2.85 0 0 0-54.752 0-54.752 0-32.297-26.17-58.479-58.453-58.479s-58.453 26.182-58.453 58.479c0 0 0 56.373 0 56.373 3.092-1.222 6.223-2.347 9.387-3.385z" />
<glyph unicode="&#xe989;" d="M455.547 90.48c3.063 0 5.547-2.483 5.547-5.547 0 0 0-83.627 0-83.627 0-3.063-2.483-5.547-5.547-5.547s-5.547 2.483-5.547 5.547c0 0 0 83.627 0 83.627 0 3.063 2.483 5.547 5.547 5.547z" />
<glyph unicode="&#xe98a;" d="M572.027 91.333c3.299 0 5.973-2.674 5.973-5.973 0 0 0-52.053 0-52.053 0-3.299-2.674-5.973-5.973-5.973s-5.973 2.674-5.973 5.973c0 0 0 52.053 0 52.053 0 3.299 2.674 5.973 5.973 5.973z" />
<glyph unicode="&#xe98b;" d="M455.547 1.733c1.649 0 2.987-1.337 2.987-2.987 0 0 0-21.333 0-21.333 0-1.649-1.337-2.987-2.987-2.987s-2.987 1.337-2.987 2.987c0 0 0 21.333 0 21.333 0 1.65 1.337 2.987 2.987 2.987z" />
<glyph unicode="&#xe98c;" d="M572.453 33.307c1.65 0 2.987-1.337 2.987-2.987 0 0 0-21.333 0-21.333 0-1.65-1.337-2.987-2.987-2.987s-2.987 1.337-2.987 2.987c0 0 0 21.333 0 21.333 0 1.649 1.337 2.987 2.987 2.987z" />
<glyph unicode="&#xe98d;" d="M423.531 212.708c0 0-54.047-12.41-54.047-12.41s-66.186-14.992-22.152-59.599c44.034-44.607 157.282-52.485 157.282-52.485s-29.943 14.182-42.667 34.133c0 0-4.267 71.68-4.267 71.68s-34.149 18.681-34.149 18.681z" />
<glyph unicode="&#xe98e;" d="M506.32 83.947c-3.354-4.245-97.653-1.326-162.987 55.467-47.305 41.121 23.893 64.853 23.893 64.853s52.053 11.947 52.053 11.947c0 0 45.227-23.040 45.227-23.040s3.413-69.12 3.413-69.12c19.039-29.853 43.799-33.274 38.4-40.107zM459.387 120.64c0 0-5.12 72.533-5.12 72.533s-27.307 15.36-27.307 15.36c0 0-52.053-12.8-52.053-12.8s-63.050-12.929-23.040-50.347c43.179-40.381 123.057-51.218 131.413-50.347 8.661 0.903-4.854-4.253-23.893 25.6z" />
<glyph unicode="&#xe98f;" d="M606.119 210.697c0 0 54.079-12.448 54.079-12.448s66.225-15.037 22.166-59.778c-44.060-44.741-157.375-52.642-157.375-52.642s29.961 14.225 42.692 34.236c0 0 4.269 71.895 4.269 71.895s34.169 18.737 34.169 18.737z" />
<glyph unicode="&#xe990;" d="M523.28 82.404c3.355-4.257 97.711-1.33 163.083 55.633 47.333 41.245-23.907 65.048-23.907 65.048s-52.084 11.982-52.084 11.982c0 0-45.253-23.109-45.253-23.109s-3.415-69.327-3.415-69.327c-19.050-29.942-43.825-33.373-38.423-40.227zM570.242 119.207c0 0 5.123 72.751 5.123 72.751s27.323 15.406 27.323 15.406c0 0 52.084-12.838 52.084-12.838s63.087-12.968 23.054-50.497c-43.204-40.502-123.129-51.371-131.491-50.497-8.667 0.906 4.857-4.265 23.907 25.677z" />
<glyph unicode="&#xe991;" d="M518.429 727.067c106.156 0 189.945-99.202 187.22-218.397 0 0-2.896-126.682-2.896-126.682-2.567-112.293-85.063-201.054-184.325-201.054s-181.758 88.762-184.325 201.054c0 0-2.896 126.682-2.896 126.682-2.724 119.194 81.064 218.397 187.22 218.397z" />
<glyph unicode="&#xe992;" d="M714.179 512.598c0 0-3.034-131.829-3.034-131.829-2.689-116.855-89.132-209.222-193.142-209.222s-190.452 92.368-193.142 209.222c0 0-3.034 131.829-3.034 131.829-2.855 124.036 84.942 227.269 196.176 227.269s199.031-103.233 196.176-227.269zM517.577 726.213c-104.705 0-187.348-98.427-184.661-216.69 0 0 2.856-125.693 2.856-125.693 2.532-111.415 83.9-199.484 181.805-199.484s179.273 88.068 181.805 199.484c0 0 2.856 125.693 2.856 125.693 2.687 118.263-79.956 216.69-184.661 216.69z" />
<glyph unicode="&#xe993;" d="M708.853 490.693c0 0-8.533-139.947-8.533-139.947s-37.9-161.542-184.32-180.669c0 0 0-0.237 0-0.237-0.288 0.035-0.566 0.082-0.853 0.119-0.287-0.036-0.566-0.083-0.853-0.119 0 0 0 0.237 0 0.237-146.419 19.128-184.32 180.669-184.32 180.669s-8.533 139.947-8.533 139.947c37.996-168.653 69.973-179.2 69.973-179.2-6.471 51.142 46.080 46.080 46.080 46.080 32.028-5.41 57.525-8.025 77.653-9.002 20.128 0.977 45.625 3.592 77.653 9.002 0 0 52.551 5.062 46.080-46.080 0 0 31.978 10.547 69.973 179.2zM613.966 294.147c-2.484 30.083-20.624 27.532-20.624 27.532-32.249-9.489-57.564-14.761-77.342-17.44 0 0 0 0.197 0 0.197-19.639 2.657-44.777 7.886-76.8 17.297 0 0-18.013 2.53-20.48-27.307 0 0-7.233-29.893 17.067-42.667 0 0 30.72-32.427 30.72-32.427s20.993-6.653 20.48 18.773c0 0-2.137 18.963 10.24 22.187 0 0 18.773 0 18.773 0s0-0.562 0-0.562c0 0 18.906 0 18.906 0 12.464-3.25 10.312-22.37 10.312-22.37-0.517-25.637 20.624-18.928 20.624-18.928s30.937 32.695 30.937 32.695c24.471 12.879 17.187 43.019 17.187 43.019z" />
<glyph unicode="&#xe994;" d="M610.16 305.348c-15.51-13.468-50.544-26.281-91.307-26.281s-75.796 12.814-91.307 26.281c0 0-1.587 4.367 0.741 6.695 2.371 2.371 6.085 1.855 6.085 1.855 15.494-13.477 43.702-24.592 84.48-24.592s68.986 11.115 84.48 24.592c0 0 3.79 1.408 5.631-0.433 3.546-3.546 1.195-8.117 1.195-8.117z" />
<glyph unicode="&#xe995;" d="M490.693 258.587c0 0 54.613 0 54.613 0s0-8.533 0-8.533c0 0-54.613 0-54.613 0s0 8.533 0 8.533z" />
<glyph unicode="&#xe996;" d="M321.614 493.374c-0.024-0.001-2.095 1.653-6.007 2.885-1.955 0.615-4.385 1.12-7.155 1.245-0.692 0.031-1.404 0.039-2.132 0.018s-1.474-0.069-2.231-0.15c-1.514-0.162-3.079-0.453-4.653-0.905-6.302-1.811-12.731-6.215-16.507-15.304-1.895-4.545-3.146-10.261-3.476-17.414-0.083-1.788-0.108-3.666-0.072-5.638s0.134-4.037 0.298-6.201c0.327-4.327 0.917-9.046 1.796-14.189-0.019 0.005-0.82-15.54 4.737-33.402 5.224-17.464 17.77-38.917 40.934-45.047-2.664 44.359-2.747 89.549-5.532 134.103 0 0 0 0 0 0z" />
<glyph unicode="&#xe997;" d="M324.256 491.585c0 0-40.353 12.503-38.933-28.982 0 0 6.008-60.155 8.617-65.699 0 0 15.848-35.024 42.002-36.576 25.562-1.517 0 0 0 0s0.317-11.289 0.317-11.289c0 0-45.969 5.894-54.848 58.869 0 0-7.008 48.125-7.008 48.125s-5.441 63.689 47.339 47.496c51.419-15.776 0 0 0 0s2.513-11.945 2.513-11.945z" />
<glyph unicode="&#xe998;" d="M310.937 408.010c0 0-2.258-1.707-4.198-1.707s-4.171 1.707-4.171 1.707c0 0-4.164 41.966-4.164 41.966s5.746 20.667 30.128 9.745c0 0 0.576-11.999 0.576-11.999s-21.391 7.586-20.949-1.86c0.426-9.093 2.779-37.851 2.779-37.851z" />
<glyph unicode="&#xe999;" d="M713.627 493.276c0.024-0.001 2.104 1.652 6.034 2.883 1.964 0.614 4.404 1.119 7.186 1.244 0.695 0.031 1.41 0.038 2.141 0.018s1.48-0.069 2.241-0.15c1.521-0.162 3.092-0.452 4.673-0.905 6.33-1.81 12.787-6.21 16.58-15.293 1.904-4.542 3.16-10.254 3.492-17.402 0.083-1.787 0.108-3.664 0.072-5.634s-0.135-4.035-0.299-6.197c-0.328-4.324-0.921-9.040-1.804-14.179 0.019 0.005 0.824-15.529-4.758-33.38-5.247-17.452-17.848-38.89-41.113-45.017 2.676 44.329 2.759 89.488 5.556 134.012 0 0 0 0 0 0z" />
<glyph unicode="&#xe99a;" d="M710.965 491.489c0 0 40.53 12.495 39.103-28.962 0 0-6.034-60.114-8.654-65.654 0 0-15.917-35-42.186-36.551-25.674-1.516 0 0 0 0s-0.319-11.281-0.319-11.281c0 0 46.171 5.89 55.088 58.829 0 0 7.038 48.093 7.038 48.093s5.465 63.646-47.546 47.464c-51.644-15.765 0 0 0 0s-2.524-11.937-2.524-11.937z" />
<glyph unicode="&#xe99b;" d="M724.343 407.97c0 0 2.268-1.706 4.217-1.706s4.189 1.706 4.189 1.706c0 0 4.183 41.937 4.183 41.937s-5.771 20.653-30.26 9.738c0 0-0.579-11.991-0.579-11.991s21.485 7.581 21.041-1.859c-0.428-9.087-2.791-37.825-2.791-37.825z" />
<glyph unicode="&#xe99c;" d="M533.787 411.333c0.995 0 1.991 0 2.987 0 6.175-8.386 8.687-21.273 11.947-32.427 1.010-3.457 0.030-9.503-0.853-11.947-3.236-8.951-13.395-8.79-21.76-12.8-2.246-1.077-3.917-2.936-6.827-3.413-1.897 1.671-4.187 1.999-5.12 4.693-2.305 3.173 0.666 5.155 2.987 6.4 4.212 2.259 17.216 4.486 18.773 8.533 1.926 2.191 0.646 8.78 0 11.093-1.653 5.924-2.447 10.87-4.693 16.213-1.492 3.549-4.112 7.291-2.56 11.52 1.286 0.552 4.067 1.18 5.12 2.133z" />
<glyph unicode="&#xe99d;" d="M409.627 471.579c0 0 30.72 0 30.72 0 4.242 0 7.68-4.126 7.68-9.216s-3.438-9.216-7.68-9.216c0 0-30.72 0-30.72 0-4.242 0-7.68 4.126-7.68 9.216s3.438 9.216 7.68 9.216z" />
<glyph unicode="&#xe99e;" d="M597.36 473.627c0 0 30.72 0 30.72 0 4.242 0 7.68-4.126 7.68-9.216s-3.438-9.216-7.68-9.216c0 0-30.72 0-30.72 0-4.242 0-7.68 4.126-7.68 9.216s3.438 9.216 7.68 9.216z" />
<glyph unicode="&#xe99f;" d="M423.28 420.72c16.495 0 29.867-0.946 29.867-19.627 0-19.268-13.372-19.627-29.867-19.627s-29.867 3.509-29.867 19.627c0 18.827 13.372 19.627 29.867 19.627z" />
<glyph unicode="&#xe9a0;" d="M621.253 420.72c16.495 0 29.867-0.946 29.867-19.627 0-19.268-13.372-19.627-29.867-19.627s-29.867 3.509-29.867 19.627c0 18.827 13.372 19.627 29.867 19.627z" />
<glyph unicode="&#xe9a1;" d="M703.88 502.241c-1.154-9.86-2.169-21.925-4.3-32.713-6.375-32.257-34.093-62.143-81.42-65.548s-87.608 20.421-89.968 53.217c-0.4 5.561-1.471 11.801-2.292 17.867-6.698 3.713-13.601 3.722-20.71 0.025-0.83-6.204-1.941-12.608-2.351-18.302-2.368-32.905-42.775-56.81-90.252-53.393s-75.282 33.401-81.677 65.765c-2.139 10.823-3.156 22.928-4.314 32.821 0 0-6.977 0.502-6.977 0.502s0.98 13.618 0.98 13.618c0 0 1.702-0.122 1.702-0.122s43.177-3.107 43.177-3.107c0 0 36.446-2.623 36.446-2.623s36.514-2.628 36.514-2.628c0 0 56.873-4.093 56.873-4.093 3.922-0.496 6.531-2.178 8.21-4.69 8.168-3.575 16.1-3.59 23.797-0.042 1.664 2.673 4.308 4.472 8.375 4.987 0 0 56.695 4.079 56.695 4.079s36.399 2.619 36.399 2.619c0 0 36.332 2.614 36.332 2.614s43.041 3.097 43.041 3.097c0 0 1.697 0.122 1.697 0.122s0.977-13.573 0.977-13.573c0 0-6.955-0.5-6.955-0.5zM480.040 487.525c0 0-111.463 8.021-111.463 8.021-14.578 1.257-19.746-15.126-20.644-27.612-1.894-26.324 27.436-49.885 65.512-52.625s70.477 16.378 72.372 42.702c0.899 12.486 4.977 20.197-5.776 29.513zM682.61 468.307c-0.896 12.445-6.047 28.773-20.58 27.52 0 0-111.113-7.995-111.113-7.995-10.719-9.285-6.653-16.971-5.758-29.415 1.888-26.237 34.188-45.292 72.144-42.561s67.194 26.214 65.306 52.451z" />
<glyph unicode="&#xe9a2;" d="M327.502 500.933c0 0 6.584 102.793 70.019 148.48 0 0 91.594-62.307 235.675 0 0 0 63.729-29.027 73.435-148.48 0 0 3.421 0 3.421 0s18.246 136.827-29.038 191.147c0 0-11.648 41.6-73.435 71.68 0 0-22.201-13.653-22.201-13.653s-14.917 18.253-54.649 40.96c0 0-29.386-13.093-44.403-35.84 0 0-23.909 15.36-23.909 15.36s-33.409-15.293-52.942-42.667c0 0-35.864-5.12-35.864-5.12s-18.786-34.133-18.786-34.133c0 0-44.842-36.127-30.746-184.32 0 0 3.421-3.413 3.421-3.413z" />
<glyph unicode="&#xe9a3;" d="M716.879 500.933c0 0-16.221 0.853-16.221 0.853-9.706 119.453-67.462 140.8-67.462 140.8-144.082-62.307-235.675 0.853-235.675 0.853-55.406-47.267-64.046-143.36-64.046-143.36s-14.515 4.267-14.515 4.267c-14.096 148.193 30.746 186.88 30.746 186.88s20.492 37.547 20.492 37.547c0 0 37.57 5.12 37.57 5.12 19.533 27.373 55.502 44.373 55.502 44.373s22.303-14.507 22.303-14.507c15.017 22.747 46.080 34.133 46.080 34.133 39.733-22.707 54.613-40.107 54.613-40.107s23.020 12.8 23.020 12.8c61.787-30.080 78.555-77.653 78.555-77.653 47.284-54.32 29.038-192 29.038-192zM676.72 689.52c0 0-7.333 37.333-69.12 67.413 0 0-23.040-13.653-23.040-13.653s-14.88 18.253-54.613 40.96c0 0-26.797-13.947-41.813-36.693 0 0-25.6 16.213-25.6 16.213s-30.814-14.44-50.347-41.813c0 0-34.133-5.12-34.133-5.12s-17.92-32.427-17.92-32.427c0 0-37.22-28.429-33.28-143.36 0 0 0.853 0.853 0.853 0.853s11.842 71.442 69.815 115.2c0 0 94.154-64.013 238.235-1.707 0 0 53.23-25.033 71.683-114.347 0 0 10.953 91.862-30.72 148.48z" />
<glyph unicode="&#xe9a4;" d="M520.278 752.654c1.255-0.934 0.634-1.798 0.361-2.966-0.407-1.742-0.889-3.467-1.161-5.205-0.412-2.634-0.787-5.272-0.895-7.871-0.091-2.186-0.051-4.364-0.013-6.528 0.022-1.25 0.236-2.498 0.267-3.75 0.012-0.499 0.148-1 0.162-1.509 0.031-0.138 0.061-0.276 0.092-0.414 0.018-0.639 0.185-1.248 0.203-1.886 0.104-0.577 0.208-1.155 0.313-1.732 0.153-0.915 0.228-1.87 0.508-2.761 0.031-0.228 0.061-0.457 0.092-0.685 0.222-0.708 0.295-1.439 0.518-2.15 0.016-0.14 0.032-0.281 0.048-0.421 0.324-1.024 0.47-2.102 0.794-3.12 0.525-1.653 0.952-3.313 1.531-4.963 0.384-1.094 0.715-2.24 1.102-3.34 0.688-1.959 1.527-3.872 2.283-5.809 0.46-1.179 1.078-2.269 1.571-3.443 1.395-3.323 3.188-6.589 4.902-9.847 0.554-1.052 1.162-2.020 1.776-3.048 0.392-0.656 0.798-1.391 1.159-2.066 0.2-0.374 0.45-0.656 0.668-1.019 0.471-0.787 0.982-1.633 1.445-2.425 0.429-0.733 0.913-1.359 1.386-2.074 0.51-0.77 1.016-1.637 1.533-2.411 0.899-1.344 1.853-2.644 2.743-3.972 0.925-1.38 1.965-2.601 2.945-3.961 1.899-2.635 4.118-5.163 6.164-7.808 0.613-0.792 1.346-1.484 1.958-2.25 0.305-0.382 0.816-0.716 1.023-1.118 0.084-0.164 0.132-0.416 0.191-0.601 0.094-0.298 0.070-0.666 0.074-0.981 0.006-0.505 0.031-1.017-0.057-1.545-0.092-0.548-0.439-1.15-0.665-1.691-0.182-0.434-0.634-0.817-0.89-1.028-0.215-0.178-0.304-0.343-0.524-0.516-0.571-0.449-1.217-0.818-1.842-1.005-0.648-0.194-1.486 0.388-1.997 1.002-0.895 1.074-2.015 2.060-2.875 3.137-0.184 0.23-0.388 0.332-0.568 0.561-0.992 1.255-2.21 2.437-3.19 3.672-0.224 0.282-0.469 0.44-0.686 0.722-0.762 0.991-1.654 1.884-2.427 2.895-1.938 2.534-4.027 4.982-5.78 7.534-0.41 0.597-0.849 1.068-1.251 1.667-2.838 4.24-5.686 8.407-7.96 12.728-0.598 1.137-1.26 2.171-1.82 3.312-1.59 3.239-3.073 6.477-4.433 9.744-0.179 0.429-0.308 0.909-0.474 1.344-0.745 1.961-1.42 3.898-2.089 5.864-0.675 1.983-1.059 4.055-1.69 6.043-0.133 0.419-0.174 0.874-0.309 1.304-0.018 0.155-0.037 0.31-0.055 0.465-0.146 0.466-0.162 0.962-0.305 1.417-0.343 1.092-0.448 2.272-0.636 3.395-0.177 1.059-0.42 2.142-0.449 3.223-0.040 0.196-0.081 0.393-0.121 0.59-0.019 0.702-0.197 1.395-0.214 2.087-0.030 1.208-0.222 2.412-0.245 3.618-0.028 1.499-0.086 3.003-0.077 4.504 0.009 1.502 0.133 2.97 0.22 4.485 0.235 4.103 0.985 8.227 1.976 12.476 0.359 1.541 0.936 3.050 1.422 4.594 0.334 1.064 0.861 2.089 1.236 3.14 0.098 0.274 0.25 0.438 0.355 0.714 0.225 0.593 0.52 1.323 1.068 1.713 0.246 0.174 0.81 0.267 1.099 0.182 0.201-0.060 0.329-0.214 0.509-0.209zM480.232 723.237c0.909-0.657 0.837-1.62 0.859-2.432 0.022-0.841 0.264-1.679 0.288-2.527 0.098-0.586 0.196-1.172 0.294-1.758 0.013-0.475 0.132-0.925 0.21-1.388 0.080-0.477 0.115-0.958 0.261-1.425 0.088-0.527 0.177-1.055 0.265-1.582 0.146-0.464 0.162-0.961 0.305-1.417 0.443-1.411 0.612-2.909 1.062-4.318 0.477-1.494 0.826-3.039 1.344-4.519 0.679-1.94 1.343-3.892 2.082-5.82 0.378-0.986 0.827-1.908 1.229-2.89 0.308-0.751 0.6-1.57 0.951-2.304 1.455-3.049 2.957-6.096 4.557-9.136 1.267-2.407 2.779-4.704 4.167-7.078 0.428-0.732 0.912-1.361 1.386-2.074 1.071-1.609 2.211-3.282 3.308-4.917 1.037-1.546 2.283-2.986 3.374-4.5 0.178-0.247 0.385-0.381 0.557-0.63 0.553-0.798 1.277-1.567 1.885-2.352 0.306-0.395 0.693-0.669 0.972-1.081 0.609-0.902 0.989-2.584 0.699-3.633-0.503-1.817-2.257-3.040-3.591-3.508-0.403-0.141-1.031-0.397-1.469-0.266-0.69 0.206-1.13 0.82-1.532 1.327-0.521 0.655-1.128 1.131-1.632 1.785-0.931 1.208-2.028 2.288-2.959 3.507-1.951 2.552-3.948 5.021-5.681 7.618-4.011 6.012-7.339 12.081-9.935 18.317-1.077 2.588-1.945 5.258-2.812 7.889-0.309 0.937-0.478 1.94-0.775 2.875-0.407 1.282-0.588 2.604-0.988 3.878-0.021 0.17-0.042 0.339-0.063 0.509-0.065 0.285-0.161 0.559-0.209 0.846-0.033 0.243-0.066 0.486-0.099 0.729-0.151 0.481-0.186 0.977-0.269 1.469-0.080 0.477-0.204 0.943-0.217 1.432-0.060 0.314-0.12 0.628-0.18 0.941-0.036 1.28-0.343 2.534-0.369 3.823-0.006 0.304-0.103 0.626-0.111 0.93-0.030 1.233-0.152 2.469-0.146 3.702 0.007 1.404-0.007 2.832 0.081 4.236 0.035 0.553 0.131 1.075 0.156 1.629 0.027 0.608 0.135 1.191 0.215 1.82 0.048 0.373 0.048 0.824 0.16 1.201 0.114 0.383 0.505 1.001 0.867 1.16 0.247 0.108 0.723 0.216 0.993 0.142 0.202-0.055 0.328-0.214 0.509-0.209zM449.631 716.859c1.021-0.749 0.738-1.694 0.731-2.611-0.011-1.476 0.139-2.95 0.176-4.419 0.029-1.172 0.329-2.335 0.362-3.508 0.070-0.372 0.14-0.745 0.21-1.117 0.018-0.65 0.158-1.489 0.353-2.109 0.018-0.155 0.037-0.31 0.055-0.465 0.060-0.36 0.136-0.714 0.246-1.066 0.026-0.199 0.052-0.398 0.077-0.597 0.263-0.838 0.344-1.734 0.61-2.564 0.637-1.984 1.144-4.014 1.84-5.995 1.509-4.295 3.576-8.459 5.776-12.638 0.719-1.366 1.614-2.637 2.34-3.993 0.31-0.578 0.717-1.048 1.060-1.608 0.939-1.531 2.027-3.059 3.048-4.576 1.413-2.1 3.134-4.015 4.635-6.097 0.526-0.73 1.19-1.363 1.701-2.067 0.454-0.626 1.042-1.095 1.529-1.711 0.964-1.221 2.179-2.384 3.201-3.602 0.59-0.703 1.292-1.271 1.863-1.95 0.638-0.759 1.44-1.365 2.068-2.096 0.159-0.139 0.318-0.279 0.477-0.418 0.641-0.758 1.535-1.43 2.196-2.188 0.282-0.323 0.617-0.475 0.902-0.799 0.927-1.054 2.234-1.908 3.186-2.972 0.272-0.304 0.633-0.509 0.876-0.781 0.103-0.073 0.205-0.147 0.308-0.22 0.328-0.366 0.84-0.701 1.173-1.070 0.111-0.079 0.222-0.159 0.334-0.238 0.544-0.604 1.383-1.082 1.932-1.69 0.145-0.104 0.291-0.208 0.436-0.312 0.7-0.774 1.811-1.328 2.522-2.111 0.319-0.241 0.638-0.482 0.957-0.722 0.156-0.171 0.492-0.319 0.675-0.521 0.484-0.533 1.3-0.951 1.826-1.459 0.31-0.3 0.797-0.507 1.059-0.796 0.231-0.254 0.65-0.424 0.854-0.649 0.667-0.477 1.334-0.953 2.001-1.43 1.579-1.128 3.153-2.186 4.681-3.267 0.723-0.512 1.622-0.915 2.067-1.554 0.252-0.361 0.352-0.88 0.485-1.275 0.298-0.887 0.42-1.941 0.171-2.907-0.076-0.294-0.229-0.493-0.34-0.802-0.177-0.494-0.472-1.26-0.999-1.724-0.343-0.301-0.7-0.708-1.080-0.969-0.585-0.403-1.224-0.188-1.938 0.108-0.228 0.15-0.457 0.301-0.685 0.451-1.095 0.47-2.119 1.477-3.218 1.951-0.212 0.091-0.434 0.321-0.608 0.396-0.365 0.248-0.731 0.496-1.096 0.744-0.402 0.174-0.763 0.596-1.217 0.792-0.379 0.164-0.767 0.471-1.14 0.737-0.137 0.098-0.274 0.196-0.411 0.293-0.366 0.159-0.799 0.494-1.14 0.737-0.496 0.354-0.992 0.709-1.488 1.063-0.533 0.231-1.124 0.764-1.635 1.129-0.424 0.303-0.997 0.629-1.316 0.979-0.291 0.208-0.582 0.416-0.872 0.623-0.607 0.434-1.206 0.862-1.734 1.316-0.291 0.208-0.582 0.416-0.872 0.623-0.421 0.465-1.151 0.816-1.569 1.276-0.197 0.141-0.393 0.281-0.59 0.422-0.305 0.337-0.831 0.632-1.133 0.964-0.171 0.122-0.342 0.244-0.513 0.367-0.231 0.256-0.644 0.525-0.876 0.781-0.137 0.098-0.274 0.196-0.411 0.293-0.801 0.889-1.975 1.561-2.757 2.434-0.244 0.2-0.489 0.401-0.733 0.601-1.011 1.137-2.379 2.051-3.355 3.17-0.265 0.305-0.565 0.442-0.825 0.744-0.902 1.048-2.054 1.982-2.922 3.016-0.143 0.171-0.283 0.21-0.425 0.381-0.409 0.491-0.938 0.998-1.335 1.495-0.185 0.231-0.385 0.329-0.568 0.561-1.374 1.734-2.989 3.281-4.32 5.020-2.357 3.080-4.815 6.086-6.678 9.259-0.422 0.719-0.925 1.32-1.335 2.037-0.725 1.269-1.516 2.518-2.197 3.814-1.066 2.027-2.064 4.072-3.034 6.114-0.683 1.437-1.223 2.982-1.784 4.447-0.46 1.203-0.899 2.372-1.322 3.575-0.416 1.184-0.714 2.416-1.102 3.611-0.395 1.216-0.557 2.506-0.941 3.728-0.146 0.464-0.131 1.050-0.276 1.512-0.358 1.141-0.444 2.38-0.64 3.552-0.838 5.004-0.925 10.127-0.557 15.331 0.085 1.201 0.335 2.338 0.532 3.566 0.090 0.559 0.273 1.269 0.893 1.683 0.197 0.132 0.825 0.236 1.055 0.175 0.188-0.050 0.336-0.213 0.509-0.209z" />
<glyph unicode="&#xe9a5;" d="M234.72-44c0 0-13.23 179.976 156.16 196.773 0 0 75.947 0 75.947 0s0 34.987 0 34.987c0 0 53.423-22.947 107.52-2.56 0 0 1.707-32.427 1.707-32.427s88.747 0 88.747 0c0 0 151.971-5.969 145.067-198.48 0 0-575.147 1.707-575.147 1.707z" />
<glyph unicode="&#xe9a6;" d="M809.351-51.173c0 0 0 0 0 0s-569.033 0-569.033 0c0 0 0 0 0 0s-11.036 0-11.036 0c0 0 2.755 47.060 2.755 47.060 5.379 91.884 77.774 162.007 160.62 162.007 0 0 63.050 0 63.050 0s0-9.387 0-9.387c0 0-58.021 0-58.021 0-79.847 0-149.621-67.497-154.805-155.941 0 0-1.913-32.646-1.913-32.646s566.879 0 566.879 0c0 0-1.060 32.646-1.060 32.646-5.184 88.444-74.958 155.941-154.805 155.941 0 0-77.662 0-77.662 0s0 9.387 0 9.387c0 0 82.185 0 82.185 0 82.846 0 155.241-70.123 160.62-162.007 0 0 2.755-47.060 2.755-47.060s-10.53 0-10.53 0z" />
<glyph unicode="&#xe9a7;" d="M515.44 52.080c-45.714 0-82.773 37.059-82.773 82.773 0 7.999 1.157 15.723 3.274 23.040 0 0 0.139 0 0.139 0s8.784 0 8.784 0c0 0 15.11 0 15.11 0s0-9.387 0-9.387c0 0-17.496 0-17.496 0-0.828-4.426-1.277-8.986-1.277-13.653 0-41.002 33.238-74.24 74.24-74.24s74.24 33.238 74.24 74.24c0 4.667-0.449 9.227-1.277 13.653 0 0-17.496 0-17.496 0s0 9.387 0 9.387c0 0 15.11 0 15.11 0s8.784 0 8.784 0c0 0 0.139 0 0.139 0 2.117-7.317 3.274-15.041 3.274-23.040 0-45.714-37.059-82.773-82.773-82.773z" />
<glyph unicode="&#xe9a8;" d="M466.8 191.708c0 0 0-52.63 0-52.63 0-27.311 22.159-49.451 49.493-49.451s49.493 22.14 49.493 49.451c0 0 0 51.544 0 51.544 2.872 0.874 5.718 1.824 8.533 2.85 0 0 0-54.752 0-54.752 0-32.297-26.17-58.479-58.453-58.479s-58.453 26.182-58.453 58.479c0 0 0 56.373 0 56.373 3.092-1.222 6.223-2.347 9.387-3.385z" />
<glyph unicode="&#xe9a9;" d="M518.429 727.067c106.156 0 189.945-99.202 187.22-218.397 0 0-2.896-126.682-2.896-126.682-2.567-112.293-85.063-201.054-184.325-201.054s-181.758 88.762-184.325 201.054c0 0-2.896 126.682-2.896 126.682-2.724 119.194 81.064 218.397 187.22 218.397z" />
<glyph unicode="&#xe9aa;" d="M714.179 512.598c0 0-3.034-131.829-3.034-131.829-2.689-116.855-89.132-209.222-193.142-209.222s-190.452 92.368-193.142 209.222c0 0-3.034 131.829-3.034 131.829-2.855 124.036 84.942 227.269 196.176 227.269s199.031-103.233 196.176-227.269zM517.577 726.213c-104.705 0-187.348-98.427-184.661-216.69 0 0 2.856-125.693 2.856-125.693 2.532-111.415 83.9-199.484 181.805-199.484s179.273 88.068 181.805 199.484c0 0 2.856 125.693 2.856 125.693 2.687 118.263-79.956 216.69-184.661 216.69z" />
<glyph unicode="&#xe9ab;" d="M708.853 490.693c0 0-8.533-139.947-8.533-139.947s-37.9-161.542-184.32-180.669c0 0 0-0.237 0-0.237-0.288 0.035-0.566 0.082-0.853 0.119-0.287-0.036-0.566-0.083-0.853-0.119 0 0 0 0.237 0 0.237-146.419 19.128-184.32 180.669-184.32 180.669s-8.533 139.947-8.533 139.947c37.996-168.653 69.973-179.2 69.973-179.2-6.471 51.142 46.080 46.080 46.080 46.080 32.028-5.41 57.525-8.025 77.653-9.002 20.128 0.977 45.625 3.592 77.653 9.002 0 0 52.551 5.062 46.080-46.080 0 0 31.978 10.547 69.973 179.2zM613.966 294.147c-2.484 30.083-20.624 27.532-20.624 27.532-32.249-9.489-57.564-14.761-77.342-17.44 0 0 0 0.197 0 0.197-19.639 2.657-44.777 7.886-76.8 17.297 0 0-18.013 2.53-20.48-27.307 0 0-7.233-29.893 17.067-42.667 0 0 30.72-32.427 30.72-32.427s20.993-6.653 20.48 18.773c0 0-2.137 18.963 10.24 22.187 0 0 18.773 0 18.773 0s0-0.562 0-0.562c0 0 18.906 0 18.906 0 12.464-3.25 10.312-22.37 10.312-22.37-0.517-25.637 20.624-18.928 20.624-18.928s30.937 32.695 30.937 32.695c24.471 12.879 17.187 43.019 17.187 43.019z" />
<glyph unicode="&#xe9ac;" d="M610.16 305.348c-15.51-13.468-50.544-26.281-91.307-26.281s-75.796 12.814-91.307 26.281c0 0-1.587 4.367 0.741 6.695 2.371 2.371 6.085 1.855 6.085 1.855 15.494-13.477 43.702-24.592 84.48-24.592s68.986 11.115 84.48 24.592c0 0 3.79 1.408 5.631-0.433 3.546-3.546 1.195-8.117 1.195-8.117z" />
<glyph unicode="&#xe9ad;" d="M490.693 258.587c0 0 54.613 0 54.613 0s0-8.533 0-8.533c0 0-54.613 0-54.613 0s0 8.533 0 8.533z" />
<glyph unicode="&#xe9ae;" d="M321.614 493.374c-0.024-0.001-2.095 1.653-6.007 2.885-1.955 0.615-4.385 1.12-7.155 1.245-0.692 0.031-1.404 0.039-2.132 0.018s-1.474-0.069-2.231-0.15c-1.514-0.162-3.079-0.453-4.653-0.905-6.302-1.811-12.731-6.215-16.507-15.304-1.895-4.545-3.146-10.261-3.476-17.414-0.083-1.788-0.108-3.666-0.072-5.638s0.134-4.037 0.298-6.201c0.327-4.327 0.917-9.046 1.796-14.189-0.019 0.005-0.82-15.54 4.737-33.402 5.224-17.464 17.77-38.917 40.934-45.047-2.664 44.359-2.747 89.549-5.532 134.103 0 0 0 0 0 0z" />
<glyph unicode="&#xe9af;" d="M324.256 491.585c0 0-40.353 12.503-38.933-28.982 0 0 6.008-60.155 8.617-65.699 0 0 15.848-35.024 42.002-36.576 25.562-1.517 0 0 0 0s0.317-11.289 0.317-11.289c0 0-45.969 5.894-54.848 58.869 0 0-7.008 48.125-7.008 48.125s-5.441 63.689 47.339 47.496c51.419-15.776 0 0 0 0s2.513-11.945 2.513-11.945z" />
<glyph unicode="&#xe9b0;" d="M310.937 408.010c0 0-2.258-1.707-4.198-1.707s-4.171 1.707-4.171 1.707c0 0-4.164 41.966-4.164 41.966s5.746 20.667 30.128 9.745c0 0 0.576-11.999 0.576-11.999s-21.391 7.586-20.949-1.86c0.426-9.093 2.779-37.851 2.779-37.851z" />
<glyph unicode="&#xe9b1;" d="M713.627 493.276c0.024-0.001 2.104 1.652 6.034 2.883 1.964 0.614 4.404 1.119 7.186 1.244 0.695 0.031 1.41 0.038 2.141 0.018s1.48-0.069 2.241-0.15c1.521-0.162 3.092-0.452 4.673-0.905 6.33-1.81 12.787-6.21 16.58-15.293 1.904-4.542 3.16-10.254 3.492-17.402 0.083-1.787 0.108-3.664 0.072-5.634s-0.135-4.035-0.299-6.197c-0.328-4.324-0.921-9.040-1.804-14.179 0.019 0.005 0.824-15.529-4.758-33.38-5.247-17.452-17.848-38.89-41.113-45.017 2.676 44.329 2.759 89.488 5.556 134.012 0 0 0 0 0 0z" />
<glyph unicode="&#xe9b2;" d="M710.965 491.489c0 0 40.53 12.495 39.103-28.962 0 0-6.034-60.114-8.654-65.654 0 0-15.917-35-42.186-36.551-25.674-1.516 0 0 0 0s-0.319-11.281-0.319-11.281c0 0 46.171 5.89 55.088 58.829 0 0 7.038 48.093 7.038 48.093s5.465 63.646-47.546 47.464c-51.644-15.765 0 0 0 0s-2.524-11.937-2.524-11.937z" />
<glyph unicode="&#xe9b3;" d="M724.343 407.97c0 0 2.268-1.706 4.217-1.706s4.189 1.706 4.189 1.706c0 0 4.183 41.937 4.183 41.937s-5.771 20.653-30.26 9.738c0 0-0.579-11.991-0.579-11.991s21.485 7.581 21.041-1.859c-0.428-9.087-2.791-37.825-2.791-37.825z" />
<glyph unicode="&#xe9b4;" d="M533.787 411.333c0.995 0 1.991 0 2.987 0 6.175-8.386 8.687-21.273 11.947-32.427 1.010-3.457 0.030-9.503-0.853-11.947-3.236-8.951-13.395-8.79-21.76-12.8-2.246-1.077-3.917-2.936-6.827-3.413-1.897 1.671-4.187 1.999-5.12 4.693-2.305 3.173 0.666 5.155 2.987 6.4 4.212 2.259 17.216 4.486 18.773 8.533 1.926 2.191 0.646 8.78 0 11.093-1.653 5.924-2.447 10.87-4.693 16.213-1.492 3.549-4.112 7.291-2.56 11.52 1.286 0.552 4.067 1.18 5.12 2.133z" />
<glyph unicode="&#xe9b5;" d="M415.6 477.040c0 0 11.947 0 11.947 0 6.598 0 11.947-5.349 11.947-11.947s-5.349-11.947-11.947-11.947c0 0-11.947 0-11.947 0-6.598 0-11.947 5.349-11.947 11.947s5.349 11.947 11.947 11.947z" />
<glyph unicode="&#xe9b6;" d="M610.16 477.040c0 0 11.947 0 11.947 0 6.598 0 11.947-5.349 11.947-11.947s-5.349-11.947-11.947-11.947c0 0-11.947 0-11.947 0-6.598 0-11.947 5.349-11.947 11.947s5.349 11.947 11.947 11.947z" />
<glyph unicode="&#xe9b7;" d="M621.253 420.72c11.782 0 21.333-9.551 21.333-21.333s-9.551-21.333-21.333-21.333c-11.782 0-21.333 9.551-21.333 21.333s9.551 21.333 21.333 21.333z" />
<glyph unicode="&#xe9b8;" d="M414.747 420.72c11.782 0 21.333-9.551 21.333-21.333s-9.551-21.333-21.333-21.333c-11.782 0-21.333 9.551-21.333 21.333s9.551 21.333 21.333 21.333z" />
<glyph unicode="&#xe9b9;" d="M572.654 507.118c0 0 51.089 29.21 87.586-2.972 0 0 9.654-1.496 9.654-1.496s-12.365 44.995-102.4 15.738c0 0 2.507-8.387 2.507-8.387zM572 510c0 0 51.974 29.853 86.24-7.854 0 0 17.654 0.504 17.654 0.504s-22.017 48.064-112.4 17.738c0 0 8.507-12.387 8.507-12.387z" />
<glyph unicode="&#xe9ba;" d="M462.877 506.949c0 0-50.919 28.951-87.293-2.946 0 0-9.622-1.483-9.622-1.483s12.324 44.596 102.058 15.598c0 0-2.498-8.313-2.498-8.313zM463.528 509.805c0 0-51.801 29.588-85.952-7.785 0 0-17.595 0.499-17.595 0.499s21.944 47.639 112.025 17.581c0 0-8.478-12.278-8.478-12.278z" />
<glyph unicode="&#xe9bb;" d="M334 404c0 0-86.113 33.857-97.643 85.019s-1.664 83.365 12.635 93.902c0 0-6.148 78.763 23.465 104.146 0 0 13.359 57.191 81.225 75.122 0 0 105.381 111.153 296.021 34.146 0 0 46.953-45.404 75.249-61.841 0.804-0.467 1.594-0.911 2.367-1.33 27.954-15.148 54.315-46.689 59.565-107.561 0 0-0.526-54.474 27.075-90.488 0 0 30.554-94.845-113.716-128.049 0 0-5.415 131.463-5.415 131.463s-66.743 22.933-74.005 83.659c0 0-97.508-30.732-158.841 1.707 0 0-38.084 11.484-39.71-5.122 0 0-12.757-68.702-81.225-87.073 0 0-7.047-127.702-7.047-127.702z" />
<glyph unicode="&#xe9bc;" d="M232-46c0 0-20.604 180.622 156.88 200.773 0 0 75.947 0 75.947 0s0 34.987 0 34.987c0 0 53.423-22.947 107.52-2.56 0 0 1.707-32.427 1.707-32.427s88.747 0 88.747 0c0 0 154.547-15.429 145.2-200.773 0 0-576 0-576 0z" />
<glyph unicode="&#xe9bd;" d="M809.351-51.173c0 0 0 0 0 0s-569.033 0-569.033 0c0 0 0 0 0 0s-11.036 0-11.036 0c0 0 2.755 47.060 2.755 47.060 5.379 91.884 77.774 162.007 160.62 162.007 0 0 63.050 0 63.050 0s0-9.387 0-9.387c0 0-58.021 0-58.021 0-79.847 0-149.621-67.497-154.805-155.941 0 0-1.913-32.646-1.913-32.646s566.879 0 566.879 0c0 0-1.060 32.646-1.060 32.646-5.184 88.444-74.958 155.941-154.805 155.941 0 0-77.662 0-77.662 0s0 9.387 0 9.387c0 0 82.185 0 82.185 0 82.846 0 155.241-70.123 160.62-162.007 0 0 2.755-47.060 2.755-47.060s-10.53 0-10.53 0z" />
<glyph unicode="&#xe9be;" d="M515.44 52.080c-45.714 0-82.773 37.059-82.773 82.773 0 7.999 1.157 15.723 3.274 23.040 0 0 0.139 0 0.139 0s8.784 0 8.784 0c0 0 15.11 0 15.11 0s0-9.387 0-9.387c0 0-17.496 0-17.496 0-0.828-4.426-1.277-8.986-1.277-13.653 0-41.002 33.238-74.24 74.24-74.24s74.24 33.238 74.24 74.24c0 4.667-0.449 9.227-1.277 13.653 0 0-17.496 0-17.496 0s0 9.387 0 9.387c0 0 15.11 0 15.11 0s8.784 0 8.784 0c0 0 0.139 0 0.139 0 2.117-7.317 3.274-15.041 3.274-23.040 0-45.714-37.059-82.773-82.773-82.773z" />
<glyph unicode="&#xe9bf;" d="M466.8 191.708c0 0 0-52.63 0-52.63 0-27.311 22.159-49.451 49.493-49.451s49.493 22.14 49.493 49.451c0 0 0 51.544 0 51.544 2.872 0.874 5.718 1.824 8.533 2.85 0 0 0-54.752 0-54.752 0-32.297-26.17-58.479-58.453-58.479s-58.453 26.182-58.453 58.479c0 0 0 56.373 0 56.373 3.092-1.222 6.223-2.347 9.387-3.385z" />
<glyph unicode="&#xe9c0;" d="M518.429 727.067c106.156 0 189.945-99.202 187.22-218.397 0 0-2.896-126.682-2.896-126.682-2.567-112.293-85.063-201.054-184.325-201.054s-181.758 88.762-184.325 201.054c0 0-2.896 126.682-2.896 126.682-2.724 119.194 81.064 218.397 187.22 218.397z" />
<glyph unicode="&#xe9c1;" d="M714.179 512.598c0 0-3.034-131.829-3.034-131.829-2.689-116.855-89.132-209.222-193.142-209.222s-190.452 92.368-193.142 209.222c0 0-3.034 131.829-3.034 131.829-2.855 124.036 84.942 227.269 196.176 227.269s199.031-103.233 196.176-227.269zM517.577 726.213c-104.705 0-187.348-98.427-184.661-216.69 0 0 2.856-125.693 2.856-125.693 2.532-111.415 83.9-199.484 181.805-199.484s179.273 88.068 181.805 199.484c0 0 2.856 125.693 2.856 125.693 2.687 118.263-79.956 216.69-184.661 216.69z" />
<glyph unicode="&#xe9c2;" d="M497.52 248.347c0 0 40.96 0 40.96 0 1.885 0 3.413-1.528 3.413-3.413s-1.528-3.413-3.413-3.413c0 0-40.96 0-40.96 0-1.885 0-3.413 1.528-3.413 3.413s1.528 3.413 3.413 3.413z" />
<glyph unicode="&#xe9c3;" d="M461.676 289.187c0 0 4.753 6.653 4.753 6.653 15.28-8.74 33.434-13.807 52.911-13.807 19.693 0 38.033 5.182 53.419 14.103 0 0 4.976-6.872 4.976-6.872-16.737-9.689-36.681-15.317-58.094-15.317-21.357 0-41.254 5.597-57.964 15.24z" />
<glyph unicode="&#xe9c4;" d="M321.614 493.374c-0.024-0.001-2.095 1.653-6.007 2.885-1.955 0.615-4.385 1.12-7.155 1.245-0.692 0.031-1.404 0.039-2.132 0.018s-1.474-0.069-2.231-0.15c-1.514-0.162-3.079-0.453-4.653-0.905-6.302-1.811-12.731-6.215-16.507-15.304-1.895-4.545-3.146-10.261-3.476-17.414-0.083-1.788-0.108-3.666-0.072-5.638s0.134-4.037 0.298-6.201c0.327-4.327 0.917-9.046 1.796-14.189-0.019 0.005-0.82-15.54 4.737-33.402 5.224-17.464 17.77-38.917 40.934-45.047-2.664 44.359-2.747 89.549-5.532 134.103 0 0 0 0 0 0z" />
<glyph unicode="&#xe9c5;" d="M324.256 491.585c0 0-40.353 12.503-38.933-28.982 0 0 6.008-60.155 8.617-65.699 0 0 15.848-35.024 42.002-36.576 25.562-1.517 0 0 0 0s0.317-11.289 0.317-11.289c0 0-45.969 5.894-54.848 58.869 0 0-7.008 48.125-7.008 48.125s-5.441 63.689 47.339 47.496c51.419-15.776 0 0 0 0s2.513-11.945 2.513-11.945z" />
<glyph unicode="&#xe9c6;" d="M310.937 408.010c0 0-2.258-1.707-4.198-1.707s-4.171 1.707-4.171 1.707c0 0-4.164 41.966-4.164 41.966s5.746 20.667 30.128 9.745c0 0 0.576-11.999 0.576-11.999s-21.391 7.586-20.949-1.86c0.426-9.093 2.779-37.851 2.779-37.851z" />
<glyph unicode="&#xe9c7;" d="M713.627 493.276c0.024-0.001 2.104 1.652 6.034 2.883 1.964 0.614 4.404 1.119 7.186 1.244 0.695 0.031 1.41 0.038 2.141 0.018s1.48-0.069 2.241-0.15c1.521-0.162 3.092-0.452 4.673-0.905 6.33-1.81 12.787-6.21 16.58-15.293 1.904-4.542 3.16-10.254 3.492-17.402 0.083-1.787 0.108-3.664 0.072-5.634s-0.135-4.035-0.299-6.197c-0.328-4.324-0.921-9.040-1.804-14.179 0.019 0.005 0.824-15.529-4.758-33.38-5.247-17.452-17.848-38.89-41.113-45.017 2.676 44.329 2.759 89.488 5.556 134.012 0 0 0 0 0 0z" />
<glyph unicode="&#xe9c8;" d="M710.965 491.489c0 0 40.53 12.495 39.103-28.962 0 0-6.034-60.114-8.654-65.654 0 0-15.917-35-42.186-36.551-25.674-1.516 0 0 0 0s-0.319-11.281-0.319-11.281c0 0 46.171 5.89 55.088 58.829 0 0 7.038 48.093 7.038 48.093s5.465 63.646-47.546 47.464c-51.644-15.765 0 0 0 0s-2.524-11.937-2.524-11.937z" />
<glyph unicode="&#xe9c9;" d="M724.343 407.97c0 0 2.268-1.706 4.217-1.706s4.189 1.706 4.189 1.706c0 0 4.183 41.937 4.183 41.937s-5.771 20.653-30.26 9.738c0 0-0.579-11.991-0.579-11.991s21.485 7.581 21.041-1.859c-0.428-9.087-2.791-37.825-2.791-37.825z" />
<glyph unicode="&#xe9ca;" d="M533.787 411.333c0.995 0 1.991 0 2.987 0 6.175-8.386 8.687-21.273 11.947-32.427 1.010-3.457 0.030-9.503-0.853-11.947-3.236-8.951-13.395-8.79-21.76-12.8-2.246-1.077-3.917-2.936-6.827-3.413-1.897 1.671-4.187 1.999-5.12 4.693-2.305 3.173 0.666 5.155 2.987 6.4 4.212 2.259 17.216 4.486 18.773 8.533 1.926 2.191 0.646 8.78 0 11.093-1.653 5.924-2.447 10.87-4.693 16.213-1.492 3.549-4.112 7.291-2.56 11.52 1.286 0.552 4.067 1.18 5.12 2.133z" />
<glyph unicode="&#xe9cb;" d="M409.627 471.579c0 0 30.72 0 30.72 0 4.242 0 7.68-4.126 7.68-9.216s-3.438-9.216-7.68-9.216c0 0-30.72 0-30.72 0-4.242 0-7.68 4.126-7.68 9.216s3.438 9.216 7.68 9.216z" />
<glyph unicode="&#xe9cc;" d="M597.36 473.627c0 0 30.72 0 30.72 0 4.242 0 7.68-4.126 7.68-9.216s-3.438-9.216-7.68-9.216c0 0-30.72 0-30.72 0-4.242 0-7.68 4.126-7.68 9.216s3.438 9.216 7.68 9.216z" />
<glyph unicode="&#xe9cd;" d="M621.253 420.72c11.782 0 21.333-9.551 21.333-21.333s-9.551-21.333-21.333-21.333c-11.782 0-21.333 9.551-21.333 21.333s9.551 21.333 21.333 21.333z" />
<glyph unicode="&#xe9ce;" d="M414.747 420.72c11.782 0 21.333-9.551 21.333-21.333s-9.551-21.333-21.333-21.333c-11.782 0-21.333 9.551-21.333 21.333s9.551 21.333 21.333 21.333z" />
<glyph unicode="&#xe9cf;" d="M688.667 499.227c0 0 0-63.147 0-63.147 0-15.431-15.053-39.511-39.581-40.89-3.603 0.172-76.472-0.070-76.472-0.070-32.757 0-39.253 39.253-39.253 39.253s0 42.667 0 42.667c0 0-30.72 0-30.72 0s0-42.667 0-42.667c0 0-6.497-39.253-39.253-39.253 0 0-72.869 0.242-76.472 0.070-24.528 1.379-39.581 25.458-39.581 40.89 0 0 0 63.147 0 63.147s-27.307 0-27.307 0c0 0 0 17.067 0 17.067s158.72 0 158.72 0c0 0 23.893-3.86 23.893-20.48 0 0 30.72 0 30.72 0 0 16.62 23.893 20.48 23.893 20.48s158.72 0 158.72 0c0 0 0-17.067 0-17.067s-27.307 0-27.307 0zM485.573 490.693c0 6.083-6.827 6.827-6.827 6.827s-114.347 0-114.347 0c0 0 0-59.733 0-59.733 0-18.612 25.6-25.6 25.6-25.6s69.973 0 69.973 0c24.075 0 25.6 25.6 25.6 25.6s0 46.823 0 52.907zM671.6 497.52c0 0-114.347 0-114.347 0s-6.827-0.743-6.827-6.827c0-6.083 0-52.907 0-52.907s1.525-25.6 25.6-25.6c0 0 69.973 0 69.973 0s25.6 6.988 25.6 25.6c0 0 0 59.733 0 59.733zM647.707 395.12c0.465 0.010 0.92 0.044 1.379 0.070 0.386-0.018-0.002-0.041-1.379-0.070zM386.914 395.19c0.459-0.026 0.914-0.060 1.379-0.070-1.377 0.029-1.765 0.052-1.379 0.070z" />
<glyph unicode="&#xe9d0;" d="M332.355 501.259c0 0-7.648 81.274 42.285 124.261 0 0 118.691-116.658 279.893 0 0 0 57.922-57.938 52.907-121.173 0 0 97.677 112.038 22.187 133.12 0 0-18.613-5.42-25.6 22.187s-20.006 116.764-196.267 119.467c-176.261 2.702-163.84-105.813-163.84-105.813 0.56-0.34-97.901-48.219-11.565-172.048z" />
<glyph unicode="&#xe9d1;" d="M708.293 494.96c-2.059 70.165-53.76 122.88-53.76 122.88-161.203-111.673-279.040 0-279.040 0-37.744-28.892-42.667-122.027-42.667-122.027-97.359 124.267 5.68 178.86 5.12 179.2 0 0-9.856 113.1 166.4 110.080 183.579-3.146 196.97-91.54 204.8-122.88 6.244-24.992 28.16-20.48 28.16-20.48 78.417-30.455-29.013-146.773-29.013-146.773zM727.067 632.347c0 0-20.876-5.45-29.013 27.307-6.866 27.637-14.032 110.791-190.293 113.493s-158.72-104.107-158.72-104.107c0.56-0.34-88.585-42.701-23.040-147.627 0 0-2.147 68.8 47.787 111.787 0 0 114.837-121.292 282.453-0.853 0 0 53.111-50.571 57.173-112.64 0 0 78.323 98.455 13.653 112.64z" />
<glyph unicode="&#xe9d2;" d="M222-48c0 0-20.604 180.622 156.88 200.773 0 0 75.947 0 75.947 0s0 34.987 0 34.987c0 0 53.423-22.947 107.52-2.56 0 0 1.707-32.427 1.707-32.427s88.747 0 88.747 0c0 0 154.547-15.429 145.2-200.773 0 0-576 0-576 0z" />
<glyph unicode="&#xe9d3;" d="M486 58c0 0 24 26 24 26s26-26 26-26c0 0-14-14-14-14s22-90 22-90c0 0-68 0-68 0s24 90 24 90c0 0-14 14-14 14z" />
<glyph unicode="&#xe9d4;" d="M796.524-51.173c0 0 0 0 0 0s-569.033 0-569.033 0c0 0 0 0 0 0s-11.036 0-11.036 0c0 0 2.755 47.060 2.755 47.060 5.379 91.884 77.774 162.007 160.62 162.007 0 0 74.997 0 74.997 0s0-9.387 0-9.387c0 0-69.967 0-69.967 0-79.847 0-149.621-67.497-154.805-155.941 0 0-1.913-32.646-1.913-32.646s566.879 0 566.879 0c0 0-1.060 32.646-1.060 32.646-5.184 88.444-74.958 155.941-154.805 155.941 0 0-70.835 0-70.835 0s0 9.387 0 9.387c0 0 75.359 0 75.359 0 82.846 0 155.241-70.123 160.62-162.007 0 0 2.755-47.060 2.755-47.060s-10.53 0-10.53 0z" />
<glyph unicode="&#xe9d5;" d="M460.8 191.708c0 0 0-52.63 0-52.63 0-27.311 22.159-49.451 49.493-49.451s49.493 22.14 49.493 49.451c0 0 0 51.544 0 51.544 2.872 0.874 5.718 1.824 8.533 2.85 0 0 0-54.752 0-54.752 0-32.297-26.17-58.479-58.453-58.479s-58.453 26.182-58.453 58.479c0 0 0 56.373 0 56.373 3.092-1.222 6.223-2.347 9.387-3.385z" />
<glyph unicode="&#xe9d6;" d="M663.44 45.021c0 0-24.171-50.414-24.171-50.414-1.222-2.55-4.281-3.626-6.83-2.403s-3.626 4.281-2.403 6.83c0 0 23.344 48.69 23.344 48.69s-18.24 31.593-18.24 31.593c-1.414 2.449-0.575 5.58 1.874 6.994s5.58 0.575 6.994-1.874c0 0 19.627-33.994 19.627-33.994 1.011-1.752 0.865-3.85-0.194-5.422z" />
<glyph unicode="&#xe9d7;" d="M356.725 44.972c0 0 24.3-50.569 24.3-50.569 1.229-2.558 4.303-3.637 6.867-2.411s3.645 4.294 2.416 6.851c0 0-23.469 48.839-23.469 48.839s18.338 31.69 18.338 31.69c1.421 2.456 0.578 5.597-1.884 7.016s-5.61 0.577-7.032-1.88c0 0-19.732-34.099-19.732-34.099-1.017-1.757-0.869-3.862 0.195-5.438z" />
<glyph unicode="&#xe9d8;" d="M451.413 159.6c0 0 9.387 0 9.387 0s0-207.36 0-207.36c0 0-9.387 0-9.387 0s0 207.36 0 207.36z" />
<glyph unicode="&#xe9d9;" d="M559.787 157.893c0 0 9.387 0 9.387 0s0-207.36 0-207.36c0 0-9.387 0-9.387 0s0 207.36 0 207.36z" />
<glyph unicode="&#xe9da;" d="M541.399-47.379c0 0-24.188 90.271-24.188 90.271s5.029 1.509 5.029 1.509c0 0 3.335 3.543 3.335 3.543s25.582-95.475 25.582-95.475c0 0-9.759 0.152-9.759 0.152zM473.17-46.313c0 0 25.252 93.818 25.252 93.818s1.631-1.398 1.631-1.398c0 0 5.12-3.413 5.12-3.413s1.688-0.169 1.688-0.169c0 0-23.953-88.99-23.953-88.99s-9.739 0.152-9.739 0.152z" />
<glyph unicode="&#xe9db;" d="M568.291 32.424c0 0-6.637-6.637-6.637-6.637s-25.827 25.827-25.827 25.827c-4.984-7.916-13.782-13.187-23.827-13.187-10.451 0-19.552 5.705-24.41 14.16 0 0-26.959-26.959-26.959-26.959s-6.655 6.655-6.655 6.655c0 0 53.078 53.078 53.078 53.078s4.151 3.849 4.151 3.849c0 0 4.151-3.849 4.151-3.849s52.936-52.935 52.936-52.935zM492.811 57.807c3.403-6.929 10.521-11.701 18.762-11.701 8.056 0 15.028 4.566 18.518 11.243 0 0-18.869 18.869-18.869 18.869s-18.411-18.411-18.411-18.411z" />
<glyph unicode="&#xe9dc;" d="M512.014 709.147c108.059 0 190.261-94.767 185.862-203.207 0 0-5.969-147.159-5.969-147.159-16.91-99.91-85.79-172.041-179.139-182.114-91.059 9.569-161.29 82.23-180.648 182.114 0 0-5.969 147.159-5.969 147.159-4.398 108.439 77.804 203.207 185.862 203.207z" />
<glyph unicode="&#xe9dd;" d="M709.813 512.182c0 0-6.353-153.763-6.353-153.763-17.998-104.393-91.306-179.761-190.657-190.286-96.914 9.999-171.66 85.92-192.263 190.286 0 0-6.353 153.763-6.353 153.763-4.681 113.305 82.806 212.325 197.813 212.325s202.494-99.020 197.813-212.325zM512.014 712.56c-108.059 0-190.261-94.767-185.862-203.207 0 0 5.969-147.159 5.969-147.159 19.358-99.884 89.589-172.545 180.648-182.114 93.349 10.073 162.229 82.204 179.139 182.114 0 0 5.969 147.159 5.969 147.159 4.398 108.439-77.804 203.207-185.862 203.207z" />
<glyph unicode="&#xe9de;" d="M604.16 305.348c-15.51-13.468-50.544-26.281-91.307-26.281s-75.796 12.814-91.307 26.281c0 0-1.587 4.367 0.741 6.695 2.371 2.371 6.085 1.855 6.085 1.855 15.494-13.477 43.702-24.592 84.48-24.592s68.986 11.115 84.48 24.592c0 0 3.79 1.408 5.631-0.433 3.546-3.546 1.195-8.117 1.195-8.117z" />
<glyph unicode="&#xe9df;" d="M484.693 258.587c0 0 54.613 0 54.613 0s0-8.533 0-8.533c0 0-54.613 0-54.613 0s0 8.533 0 8.533z" />
<glyph unicode="&#xe9e0;" d="M315.614 493.374c-0.024-0.001-2.095 1.653-6.007 2.885-1.955 0.615-4.385 1.12-7.155 1.245-0.692 0.031-1.404 0.039-2.132 0.018s-1.474-0.069-2.231-0.15c-1.514-0.162-3.079-0.453-4.653-0.905-6.302-1.811-12.731-6.215-16.507-15.304-1.895-4.545-3.146-10.261-3.476-17.414-0.083-1.788-0.108-3.666-0.072-5.638s0.134-4.037 0.298-6.201c0.327-4.327 0.917-9.046 1.796-14.189-0.019 0.005-0.82-15.54 4.737-33.402 5.224-17.464 17.77-38.917 40.934-45.047-2.664 44.359-2.747 89.549-5.532 134.103 0 0 0 0 0 0z" />
<glyph unicode="&#xe9e1;" d="M318.256 491.585c0 0-40.353 12.503-38.933-28.982 0 0 6.008-60.155 8.617-65.699 0 0 15.848-35.024 42.002-36.576 25.562-1.517 0 0 0 0s0.317-11.289 0.317-11.289c0 0-45.969 5.894-54.848 58.869 0 0-7.008 48.125-7.008 48.125s-5.441 63.689 47.339 47.496c51.419-15.776 0 0 0 0s2.513-11.945 2.513-11.945z" />
<glyph unicode="&#xe9e2;" d="M304.937 408.010c0 0-2.258-1.707-4.198-1.707s-4.171 1.707-4.171 1.707c0 0-4.164 41.966-4.164 41.966s5.746 20.667 30.128 9.745c0 0 0.576-11.999 0.576-11.999s-21.391 7.586-20.949-1.86c0.426-9.093 2.779-37.851 2.779-37.851z" />
<glyph unicode="&#xe9e3;" d="M707.627 493.276c0.024-0.001 2.104 1.652 6.034 2.883 1.964 0.614 4.404 1.119 7.186 1.244 0.695 0.031 1.41 0.038 2.141 0.018s1.48-0.069 2.241-0.15c1.521-0.162 3.092-0.452 4.673-0.905 6.33-1.81 12.787-6.21 16.58-15.293 1.904-4.542 3.16-10.254 3.492-17.402 0.083-1.787 0.108-3.664 0.072-5.634s-0.135-4.035-0.299-6.197c-0.328-4.324-0.921-9.040-1.804-14.179 0.019 0.005 0.824-15.529-4.758-33.38-5.247-17.452-17.848-38.89-41.113-45.017 2.676 44.329 2.759 89.488 5.556 134.012 0 0 0 0 0 0z" />
<glyph unicode="&#xe9e4;" d="M704.965 491.489c0 0 40.53 12.495 39.103-28.962 0 0-6.034-60.114-8.654-65.654 0 0-15.917-35-42.186-36.551-25.674-1.516 0 0 0 0s-0.319-11.281-0.319-11.281c0 0 46.171 5.89 55.088 58.829 0 0 7.038 48.093 7.038 48.093s5.465 63.646-47.546 47.464c-51.644-15.765 0 0 0 0s-2.524-11.937-2.524-11.937z" />
<glyph unicode="&#xe9e5;" d="M718.343 407.97c0 0 2.268-1.706 4.217-1.706s4.189 1.706 4.189 1.706c0 0 4.183 41.937 4.183 41.937s-5.771 20.653-30.26 9.738c0 0-0.579-11.991-0.579-11.991s21.485 7.581 21.041-1.859c-0.428-9.087-2.791-37.825-2.791-37.825z" />
</font>
</defs>
</svg>
