<svg xmlns="http://www.w3.org/2000/svg" viewBox="0 0 100 100"><path fill="#2c0101" d="M81.767 35a.499.499 0 01-.366-.841l2.733-2.934a.5.5 0 01.732.682l-2.733 2.934a.504.504 0 01-.366.159zm4.733-5.08a.499.499 0 01-.366-.841l.857-.92a.5.5 0 11.732.682l-.857.92a.5.5 0 01-.366.159zm-6.866 6.135L48.003 69.996l-5.14-5.442a.501.501 0 00-.707-.02.501.501 0 00-.02.707l5.132 5.434a.994.994 0 00.742.325c.259 0 .52-.111.727-.319l31.63-33.944a.5.5 0 00-.733-.682z"/><path fill="#2c0101" d="M92.408 22.342a5.004 5.004 0 00-7.066.25l-37.366 40.1-3.188-3.374 27.87-29.909a5.005 5.005 0 00-.25-7.066 5.004 5.004 0 00-7.066.25l-27.434 29.44-3.272-3.465a5.007 5.007 0 00-7.068-.203 4.966 4.966 0 00-1.565 3.493 4.966 4.966 0 001.363 3.575l3.712 3.93-3.102 3.329-13.34-14.124a5.007 5.007 0 00-7.068-.203 4.966 4.966 0 00-1.565 3.493 4.966 4.966 0 001.363 3.575l16.999 18A5.018 5.018 0 0028 75h.018a5.022 5.022 0 003.641-1.592l6.299-6.76 6.407 6.785A5.028 5.028 0 0048.018 75a5.022 5.022 0 003.641-1.592l41-44a5.006 5.006 0 00-.251-7.066zM28.818 54.06a2.98 2.98 0 01-.817-2.146 2.978 2.978 0 01.939-2.095 3.005 3.005 0 014.241.121l3.36 3.558-4.099 4.399-3.624-3.837zm1.377 17.985a3.01 3.01 0 01-2.182.955H28a3.017 3.017 0 01-2.182-.94l-17-18a2.98 2.98 0 01-.817-2.146 2.978 2.978 0 01.939-2.095 2.986 2.986 0 012.059-.817c.798 0 1.593.314 2.183.938l14.072 14.9c.188.2.451.313.727.313h.003c.276-.001.54-.116.729-.318l38.093-40.88a3.002 3.002 0 014.24-.15 3.004 3.004 0 01.15 4.24l-41.001 44zm61-44l-41 44A3.021 3.021 0 0148 73a3.017 3.017 0 01-2.182-.94l-6.495-6.877 4.099-4.399 3.832 4.057c.188.2.451.313.727.313h.003c.276-.001.54-.116.729-.318l38.093-40.88a3.002 3.002 0 014.24-.15 3.004 3.004 0 01.149 4.239z"/><path fill="#2c0101" d="M31.634 66.104l-.983 1.056a.5.5 0 00.732.681l.983-1.056a.5.5 0 00-.732-.681zm25-26.83L33.445 64.159a.5.5 0 00.733.682l23.188-24.885a.5.5 0 00-.732-.682z"/></svg>