<svg xmlns="http://www.w3.org/2000/svg" viewBox="0 0 48 48"><path fill="#2c0101" d="M23.619 42.638c-.54 0-1.095-.005-1.67-.018-1.88-.041-3.794-.026-5.648-.013-3.072.021-6.25.047-9.376-.179-1.34-.097-2.736-.263-3.787-1.121-1.553-1.27-1.722-3.45-1.673-5.618.083-3.681.123-7.227.162-10.756.049-4.455.101-9.061.244-13.801.102-3.342 2.436-4.528 4.403-4.528 2.493 0 4.732.055 6.896.106 4.125.102 8.021.195 12.998-.104a.459.459 0 01.2.028c4.793-.497 8.211-.729 13.465-.609l.242.005c1.347.026 2.728.082 3.511.449 1.931.905 3.014 2.567 3.05 4.681.063 3.794-.084 6.814-.24 10.012l-.028.564c-.159 3.29-.159 5.826-.16 8.51 0 2.277 0 4.632-.09 7.728a15.16 15.16 0 00-.004.523c.003.771.006 1.646-.475 2.384-1.107 1.703-3.59 1.453-4.921 1.319-3.338-.336-6.089-.138-9.271.092-2.261.164-4.777.346-7.828.346zm-4.467-1.045c.939 0 1.882.007 2.818.027 3.776.086 6.766-.134 9.402-.324 3.231-.233 6.022-.435 9.443-.089 1.551.153 3.268.231 3.983-.87.317-.488.315-1.143.312-1.836-.001-.187-.001-.372.004-.556.09-3.08.09-5.428.09-7.698.001-2.696.001-5.243.162-8.559l.027-.564c.155-3.181.303-6.186.239-9.945-.037-2.194-1.366-3.273-2.474-3.792-.656-.309-2.25-.339-3.106-.355l-.242-.006c-5.237-.121-8.637.115-13.444.615a.488.488 0 01-.231-.03c-4.976.295-8.869.199-12.989.1a271.334 271.334 0 00-6.872-.106c-.773 0-3.303.257-3.403 3.56-.144 4.729-.194 9.331-.244 13.78-.039 3.533-.078 7.083-.162 10.769-.041 1.782.024 3.772 1.306 4.819.826.675 1.997.811 3.227.898 3.087.222 6.243.199 9.297.177.939-.007 1.896-.015 2.857-.015z"/><path fill="#2c0101" d="M23.863 21.029a1.59 1.59 0 01-.194-.012c-.431-.056-.771-.288-1.044-.476A188.457 188.457 0 016.05 7.729a.5.5 0 01.656-.756 187.684 187.684 0 0016.485 12.744c.193.133.414.283.606.308.223.03.487-.088.784-.234A56.485 56.485 0 0041.8 6.729a.5.5 0 11.746.666A57.497 57.497 0 0125.02 20.689c-.284.139-.696.34-1.157.34z"/><path fill="#2c0101" d="M23.88 27.984c-.151 0-.304-.017-.458-.052-.4-.093-.728-.3-1.057-.522-3.316-2.241-6.511-4.7-9.602-7.078-3.351-2.578-6.816-5.245-10.424-7.623a.5.5 0 11.551-.835c3.638 2.398 7.118 5.076 10.483 7.666 3.078 2.368 6.261 4.817 9.552 7.042.257.174.489.322.722.376.485.112 1.046-.163 1.536-.43 1.429-.779 2.779-1.762 4.085-2.712.407-.296.814-.592 1.226-.884.899-.638 1.812-1.317 2.693-1.975a102.892 102.892 0 012.876-2.095c3.812-2.626 6.158-4.53 9.655-7.835a.5.5 0 01.687.727c-3.497 3.304-5.964 5.306-9.776 7.933a99.194 99.194 0 00-2.845 2.072c-.889.662-1.807 1.347-2.713 1.989-.407.288-.812.582-1.215.876-1.332.97-2.71 1.972-4.195 2.781-.562.308-1.161.579-1.781.579z"/><path fill="#2c0101" d="M7.273 41.883a.5.5 0 01-.5-.498l-.042-13.492c-.008-2.34-.016-4.743.188-7.106.163-1.9.265-3.092.208-4.867a.5.5 0 01.483-.516c.252-.024.507.208.516.484.059 1.834-.051 3.114-.203 4.886-.208 2.418-.201 4.798-.193 7.1l.042 13.508a.5.5 0 01-.499.502v-.001zm32.595.023a.5.5 0 01-.496-.443c-.588-5.193-.146-11.357.168-14.569.204-2.07.31-4.735.413-7.312.042-1.054.083-2.093.131-3.071.014-.275.214-.509.523-.475a.5.5 0 01.475.523c-.047.976-.088 2.012-.13 3.062-.104 2.591-.21 5.271-.416 7.37-.312 3.173-.748 9.257-.17 14.358a.502.502 0 01-.498.557z"/></svg>