<svg xmlns="http://www.w3.org/2000/svg" viewBox="0 0 80 80"><path fill="#2c0101" d="M40 14.016c-.512 0-1.023.093-1.508.28L1.57 28.704A2.474 2.474 0 000 31v1h.313c.261.566.652 1.059 1.257 1.297L6 35.023V60.27a2.002 2.002 0 00-.93 2.25C3.844 63.207 3 64.504 3 66c0 .715.238 1.371.535 2.152.297.778.684 1.618 1.067 2.407a62.77 62.77 0 001.527 2.93L7 75.042l.871-1.555s.762-1.355 1.527-2.93c.383-.788.77-1.628 1.067-2.406.297-.78.535-1.437.535-2.152 0-1.496-.844-2.793-2.07-3.48A1.998 1.998 0 008 60.27V35.805l10 3.898V50c0 .629.344 1.164.746 1.54.402.374.902.663 1.492.929 1.188.535 2.778.972 4.727 1.343C28.855 54.551 34.148 55 40 55s11.145-.45 15.035-1.188c1.95-.37 3.54-.808 4.727-1.343.59-.266 1.09-.555 1.492-.93.402-.375.746-.91.746-1.539V39.703l16.434-6.406c.601-.238.992-.73 1.254-1.297H80v-1a2.476 2.476 0 00-1.566-2.297L41.508 14.297A4.177 4.177 0 0040 14.016zm0 2c.266 0 .531.047.781.144l36.922 14.406A.46.46 0 0178 31a.46.46 0 01-.297.434L62 37.559v-1.246a2.993 2.993 0 00-1.875-2.782C57.312 32.398 50.148 30 40 30s-17.313 2.398-20.125 3.527A3.009 3.009 0 0018 36.312v1.247L2.297 31.434A.46.46 0 012 31a.46.46 0 01.297-.434L39.219 16.16c.25-.098.515-.144.781-.144zM40 18c-.55 0-1 .45-1 1s.45 1 1 1 1-.45 1-1-.45-1-1-1zm0 4c-.55 0-1 .45-1 1s.45 1 1 1 1-.45 1-1-.45-1-1-1zm0 4c-.55 0-1 .45-1 1s.45 1 1 1 1-.45 1-1-.45-1-1-1zm0 6c9.832 0 16.746 2.328 19.379 3.387a.982.982 0 01.621.925v11.344c-.082-.039-.152-.086-.238-.125-1.188-.535-2.778-.972-4.727-1.343C51.145 45.449 45.852 45 40 45s-11.145.45-15.035 1.188c-1.95.37-3.54.808-4.727 1.343-.086.04-.156.086-.238.125V36.313c0-.422.238-.774.621-.926C23.254 34.328 30.168 32 40 32zm0 15c5.746 0 10.953.45 14.66 1.156 1.856.352 3.34.778 4.278 1.2.472.21.8.425.953.57.05.043.054.054.07.074-.016.02-.02.031-.07.074-.153.145-.48.36-.953.57-.938.422-2.422.848-4.278 1.2C50.953 52.55 45.746 53 40 53s-10.953-.45-14.66-1.156c-1.856-.352-3.34-.778-4.277-1.2-.473-.21-.801-.425-.954-.57-.05-.043-.054-.054-.07-.074.016-.02.02-.031.07-.074.153-.145.48-.36.953-.57.938-.422 2.422-.848 4.278-1.2C29.047 47.45 34.254 47 40 47zM7 64c1.117 0 2 .883 2 2 0 .113-.137.746-.402 1.438a30.51 30.51 0 01-.996 2.246c-.301.617-.352.68-.602 1.156-.25-.477-.3-.54-.602-1.156a30.51 30.51 0 01-.996-2.246C5.137 66.746 5 66.112 5 66c0-1.117.883-2 2-2z"/></svg>