<svg xmlns="http://www.w3.org/2000/svg" viewBox="0 0 100 100"><path d="M50.2 34.562c-14.481 0-26.263 11.782-26.263 26.263 0 14.482 11.782 26.263 26.263 26.263 14.482 0 26.263-11.782 26.263-26.263 0-14.481-11.782-26.263-26.263-26.263zm0 50.617c-13.428 0-24.353-10.925-24.353-24.353S36.771 36.472 50.2 36.472s24.353 10.925 24.353 24.353S63.628 85.179 50.2 85.179z"/><path d="M84.659 58.004h-1.114a2.77 2.77 0 00-.991.185c-.861-10.652-6.875-19.87-15.55-25.138L53.481 11.512c.036-.165.058-.335.058-.511v-1.91a2.395 2.395 0 00-2.388-2.388h-1.91a2.395 2.395 0 00-2.388 2.388v1.91c0 .133.018.262.04.39L33.226 33.158c-9.289 5.72-15.498 15.981-15.498 27.668 0 17.904 14.566 32.471 32.471 32.471 15.839 0 29.057-11.402 31.898-26.427.422.258.917.41 1.447.41h1.114a2.787 2.787 0 002.784-2.784v-3.707a2.786 2.786 0 00-2.783-2.785zM48.09 13.077c.343.192.733.311 1.152.311h1.91a2.35 2.35 0 001.081-.272l11.403 18.161A32.264 32.264 0 0050.2 28.355a32.271 32.271 0 00-13.577 2.986L48.09 13.077zm2.11 78.309c-16.851 0-30.561-13.709-30.561-30.561 0-16.851 13.709-30.561 30.561-30.561s30.561 13.709 30.561 30.561S67.051 91.386 50.2 91.386zm35.333-26.891a.875.875 0 01-.874.874h-1.114a.875.875 0 01-.874-.874v-3.707c0-.482.392-.874.874-.874h1.114c.482 0 .874.392.874.874v3.707z"/><path d="M65.352 62.084h-14.43v-14.43a.937.937 0 10-1.874 0V63.02c0 .518.419.937.937.937h15.367a.936.936 0 100-1.873z"/></svg>