<svg viewBox="0 0 30 30" xmlns="http://www.w3.org/2000/svg" x="0px" y="0px" width="30px" height="30px">	<g>		<path d="M 17 8 L 20 8 C 20.5522 8 21 8.4477 21 9 L 21 21 C 21 21.5523 20.5522 22 20 22 L 17 22 C 16.4478 22 16 21.5523 16 21 L 16 9 C 16 8.4477 16.4478 8 17 8 ZM 10 8 L 13 8 C 13.5522 8 14 8.4477 14 9 L 14 21 C 14 21.5523 13.5522 22 13 22 L 10 22 C 9.4478 22 9 21.5523 9 21 L 9 9 C 9 8.4477 9.4478 8 10 8 ZM 0 15 C 0 23.2844 6.7157 30 15 30 C 23.2843 30 30 23.2844 30 15 C 30 6.7156 23.2843 0 15 0 C 6.7157 0 0 6.7156 0 15 Z" fill="#ffffff"/>	</g></svg>