<svg xmlns="http://www.w3.org/2000/svg" xmlns:xlink="http://www.w3.org/1999/xlink" width="512" height="512" viewBox="0 0 512 512"><path d="M454.2,477.4c-0.2-0.2-0.5-0.4-0.9-0.8c-1.5-1.4-2.9-2.9-4.4-4.3c-4.3-4.5-8.5-9.2-12.7-13.9c-9-10.1-17.9-20.3-26.9-30.5c-25.4-28.7-55.1-54-78.7-84.3c0.7-3.3-1.4-7.5-5.9-7.5h-3.1c-2.2,0-3.9,1.5-4.8,3.4c-0.2,0.4-0.3,0.8-0.4,1.2c-2.4,9.5-15.1,18.4-12.9,29c-24.6,4.2-51.3-7.1-73.6-16.2c-20.4-8.3-40.3-19.9-54.3-37.3C162,299.4,156,276.8,159,255.2c1.3-9.1,4.2-18,8-26.4c3.7-8.2,8.6-16.8,16.3-21.8c2.3-1.5,4.9-2.1,7.6-2c-0.3,8.1-0.2,16.4,1.2,24.2c4.3,23.9,23.7,39.5,44.3,49.6c28,13.7,58,15.4,88.6,17.3c13.7,0.9,27.3,3,41,1.9c11.7-1,23-4.6,33-10.8c15.7-9.8,25.2-26.6,29.9-44c4.6-16.9,5.5-36.1,1.2-53.3c6.9-29.2-27.2-58.2-56.7-61.5c4.2-7.4,6.1-16.1,6.5-25.7c0.4-10.9-0.5-22-2.2-32.7c-0.8-4.8-1.9-11.9-5-16.8c-0.1-0.2-0.2-0.5-0.3-0.7c-4.4-9.4-14.2-14.6-23.6-17.9c-10.4-3.6-21.4-5.5-32.3-6.3c-14.5-1.1-28.4,0.1-42.2,5c-16.1,5.7-30.8,16-42,28.9c-5.8-2.2-11.6-4.6-17.3-7c-7.7-3.3-15.4-6.8-22.5-11.3c-4.7-2.9-12-7.6-11.7-13.9c0.4-6.2-7.6-6.5-10.5-2.2h-0.4c-2.4,0-4.9,2.3-5.2,4.6c-3.7,33.6,21.1,62.5,47,82.5c-1.9,1.8-3.5,4.1-4.8,6.7c-0.3,0-0.7,0-1.1,0.1c-27.2,5.4-49.7,21.8-64.8,44c-1.1,0.2-2.3,0.7-3.3,1.8c-18.3,19.7-29.7,44.7-37.1,70.4c-7.1,24.6-11.1,51.7-7.8,77.2c6.4,50.4,41.2,92,82.9,118.5c14,8.9,29.3,15.7,44.5,22.5c13.5,6,27.5,11.6,42,14.8c-4.3,7.3-12.5,13.6-18,19c-3.9,3.8,0.1,9.5,4.8,9.5c36.3,0,72.7-2.1,109-1.5c8.5,0.1,17,0.6,25.5,0.6c8,0.1,16-0.7,24-0.7c12.7-0.1,26.7-0.1,38.7-5c2.3-0.9,3.4-2.8,3.6-4.8c0.4,0.2,0.8,0.3,1.2,0.3C457.7,489.5,460.1,479.5,454.2,477.4z M394.9,148.3c9.2,5.3,18.1,13.2,22.5,23c2.2,4.8,2.6,9.7,1.7,14.2c-0.7,1-1.2,2.3-1,3.7c-2.4,6.7-7.6,12.7-13.9,16.7c-10.6,6.8-23.7,9.7-36.4,11.1c0.9-4.9,1.7-9.9,0.9-14.8c-1-6.1-5.5-11.6-10.1-15.5c-9.1-7.9-22.1-10.7-33.4-14.1c-30.5-9.1-61.9-13.6-92.1-1.3c-0.1-3.7,0.3-7.5,2-10.7c2.1-4,5.6-7.4,8.5-10.8c1.3-1.5,2.4-3,3.6-4.5c0.5-0.8,1.1-1.6,1.6-2.4c0.2-0.4,0.5-0.7,0.7-1.1c0.2-0.3,0.4-0.6,0.5-0.7c1.8-0.3,2.9-1.3,3.6-2.7c30.8,10.6,64.7,10,97.4,6.6c1.6,0.9,3.7,1.1,5.7-0.1c0.5-0.3,0.9-0.5,1.3-0.8c1.2-0.3,2.2-1,2.9-1.9c1.3-0.9,2.5-1.9,3.6-2.8c0.6,0.2,1.2,0.2,1.9,0.2C376.4,139,386.3,143.3,394.9,148.3z M356,218c-16.9,1-33.9,0.1-50.6-2.2c-25-3.4-48.3-10.2-69.5-24.6c-0.7-0.5-1.5-1-2.2-1.5c0-2.1-0.1-4.3-0.2-6.4h2.8c2.4,0,3.9-1.2,4.6-2.8c11.2-4,22.8-5.8,34.8-5.6c13.4,0.2,28.4,2.6,41.1,7c9.7,3.3,19.7,5.4,28.9,10c4.7,2.4,8,5.8,10.9,10C359.3,205.8,357.2,213,356,218z M221.7,178.2c-5.7-7.3-9.4-16-9.8-26.2c-0.2-5.5,1.2-11.8,2.6-17.4c0.6-2.2,3.7-12.6,6.2-12.4c0.3,0,0.6,0,0.8,0c1.1,0.7,2.1,1.4,3.2,2.1c5.3,3.5,10.8,6.5,16.4,9.1c-0.9,1.3-1.8,2.7-2.7,4.2c-3.4,5-7.8,9.2-11.3,14.1C221.6,159.6,221.3,168.9,221.7,178.2z M273.4,45.9c11.9-5.2,24.1-6.8,37-6.5c14.7,0.3,33,2.6,45.4,11.2c1.9,1.3,3.4,2.7,4.5,4.2c0,0.4-0.1,0.8-0.1,1.2c-0.1,2.3,0.9,3.8,2.4,4.5c0.2,2,0,4.1-0.7,6.5c-2.6,8.2-11.5,12.2-19.3,13.7c-9.7,2-19.8,1.6-29.5,0.7c-12.1-1.2-24.3-3-36.3-5.6c-11.2-2.4-22.1-5.6-32.9-9.4C252.2,57.7,262.2,50.8,273.4,45.9z M194.5,82.8c-8.8-10.5-16.6-23.4-18.5-37.2c1.9,1.9,4,3.6,6,5.1c8.1,6,17.4,10.3,26.6,14.3C232.9,75.4,258,84.2,284,88.9c20.4,3.7,42.6,7.1,63.1,2.5c7.4-1.7,15-6.1,20.3-12c0.9,7.5,1.1,15.3,1,22.8c-0.1,13.2-4.3,23.6-14.7,30.8c-40.7,4.5-83.2,5.5-119.4-16.2C219.4,107.9,205.6,96.2,194.5,82.8z M204.6,172.1c5.8,13.2,17,23.8,29.5,31.5c29.5,18.4,63.8,24.5,97.9,26c17.6,0.8,35.3-0.1,52.5-4c13.4-3,27.5-8.7,36.8-19.3c1.6,19.3-3,40.1-13,55.8c-13.6,21.4-39.7,26.5-63.2,24c-31.6-3.3-64.3-1.4-94.3-13.6c-20.7-8.5-43.2-21.9-47.5-45.8c-2-11.3-0.8-23.8-0.3-35.1C203.2,185.2,203.7,178.6,204.6,172.1z M135.4,206c7.5-33.4,33.6-63.3,67.2-71.8c-1.1,4.8-1.6,9.6-1.9,13.6c-1.4,0.7-2.6,1.8-3.2,3.7c-4.1,12.7-5.2,26.2-5.9,39.4c0,0.9-0.1,1.8-0.1,2.6c-18.3-0.8-29.9,18.5-36.2,33.5c-6.4,15.2-9.1,31.1-7.9,47.2c-3.5-4.7-6.6-9.5-8.8-15C132,242.2,131.4,223.6,135.4,206z M442.2,482.1c-11.5,4.6-25,4.3-37.2,4.4c-7.5,0.1-15,0.7-22.6,0.7c-8.5,0-17-0.4-25.5-0.6c-31.4-0.7-62.9,0.9-94.3,1.4c4.5-4.6,8.7-9.5,11.2-15.1c1.5-0.2,2.7-0.8,3.5-1.8c5.2-1.8,3.8-11.1-2.8-11.1h-4.7c-0.7,0-1.4,0.2-2.1,0.5c-12.4-2.4-24.2-6.8-35.9-11.6c-13.3-5.6-26.7-11.6-39.4-18.4c-22.2-12-42.3-28.3-58.1-47.9c-15.5-19.3-26.4-42.1-30.1-66.7c-3.9-25.5,0.8-52.6,7.9-77.2c2.7-9.5,6.2-18.9,10.5-27.9c-2.4,14.7-1.5,30,2.4,44.4c2.8,10.3,7.7,19.2,14.3,27.5c4.4,5.5,9.8,11.2,13.5,17.6c0.9,2.5,2,4.8,3.1,7.1c0.2,0.7,0.4,1.4,0.6,2.2c0.4,1.9,1.5,3.2,2.9,4c18.3,30.2,54.2,46.7,86.9,58.7c20,7.3,42.2,12.5,63.4,8c3.4-0.7,4.3-3.5,3.7-6c1.6-1.3,2.4-3.4,1.4-6c-1-2.4,3.9-8.5,5.3-10.7c1-1.6,2-3.1,3-4.7c24,30.1,53.5,55.6,79,84.4c9.3,10.5,18.4,21,27.8,31.4C434,473.2,438.1,477.7,442.2,482.1c0.1-0.1,0.1-0.1,0.1,0C442.3,482.1,442.3,482.1,442.2,482.1z"/></svg>