<svg xmlns="http://www.w3.org/2000/svg" viewBox="0 0 100 100"><path fill="#fff" d="M47.212 60.418H14.734c-3.954 0-7.189-3.235-7.189-7.189v-14.17c0-3.954 3.235-7.189 7.189-7.189h60.811"/><path fill="none" d="M71.31 51.741l.195.455m-4.749-11.095l3.981 8.932"/><path fill="#2c0101" d="M19.504 40.798v3.595c.577-.748 1.286-.971 2.021-.971 1.837 0 2.651 1.247 2.651 3.149v3.412h-1.602v-3.399c0-1.181-.616-1.68-1.47-1.68-.944 0-1.601.801-1.601 1.772v3.307h-1.602v-9.186h1.603zm8.277.892v1.837h1.784v1.377h-1.798V47.7c0 .617.342.918.84.918.25 0 .538-.079.774-.197l.446 1.365c-.459.184-.84.262-1.325.275-1.404.053-2.323-.748-2.323-2.362v-2.795h-1.207v-1.377h1.207V41.86l1.602-.17zm5.235 0v1.837H34.8v1.377h-1.798V47.7c0 .617.342.918.84.918.25 0 .538-.079.774-.197l.446 1.365c-.459.184-.84.262-1.325.275-1.404.053-2.323-.748-2.323-2.362v-2.795h-1.207v-1.377h1.207V41.86l1.602-.17zm2.976 10.996v-9.172h1.495l.105.892c.499-.722 1.364-1.037 2.1-1.037 1.994 0 3.32 1.483 3.32 3.386 0 1.89-1.194 3.385-3.268 3.385-.683 0-1.693-.21-2.152-.918v3.464h-1.6zm5.419-5.931c0-1.011-.683-1.837-1.837-1.837-1.155 0-1.837.827-1.837 1.837s.748 1.837 1.837 1.837 1.837-.826 1.837-1.837zm4.708-1.404c0 1.22-1.863 1.22-1.863 0 0-1.233 1.863-1.233 1.863 0zm0 3.806c0 1.22-1.863 1.22-1.863 0 0-1.234 1.863-1.234 1.863 0zm6.547-9.225L48.283 51.06h-1.666l4.369-11.128h1.68zm5.968 0L54.251 51.06h-1.666l4.369-11.128h1.68z"/><g fill="#2c0101"><path d="M47.929 60H15.118a6.195 6.195 0 01-6.188-6.189V39.189A6.195 6.195 0 0115.118 33H76.93a1 1 0 100-2H15.118c-4.516 0-8.188 3.673-8.188 8.189v14.622c0 4.516 3.673 8.189 8.188 8.189H47.93a1 1 0 10-.001-2z"/><path d="M90.56 61.69L67.612 40.273a1.002 1.002 0 00-1.683.731v31.553a1 1 0 001.689.725l6.803-6.47 5.55 12.836a1 1 0 001.332.513l4.207-1.912a.999.999 0 00.497-1.322l-5.729-12.673 9.685-.835a1.002 1.002 0 00.597-1.729zm-11.86.692a.998.998 0 00-.825 1.408l5.899 13.05-2.371 1.078-5.715-13.216a.998.998 0 00-1.607-.328l-6.151 5.851V45.312l2.4 5.388a.5.5 0 00.914-.407l-2.971-6.666 19.278 17.992-8.851.763z"/><path d="M70.901 52.4l.195.456a.501.501 0 00.92-.394l-.195-.456a.5.5 0 00-.92.394zm-46.698-2.226v-3.412c0-1.902-.814-3.149-2.651-3.149-.734 0-1.443.223-2.021.971v-3.595h-1.602v9.186h1.602v-3.307c0-.971.656-1.772 1.601-1.772.854 0 1.47.499 1.47 1.68v3.399h1.601zm4.327.079a3.586 3.586 0 001.325-.275l-.446-1.365a1.827 1.827 0 01-.774.197c-.498 0-.84-.302-.84-.918v-2.795h1.798V43.72h-1.784v-1.837l-1.602.17v1.667H25v1.377h1.207v2.795c-.001 1.613.918 2.414 2.323 2.361zm5.234 0a3.586 3.586 0 001.325-.275l-.446-1.365a1.827 1.827 0 01-.774.197c-.498 0-.84-.302-.84-.918v-2.795h1.798V43.72h-1.784v-1.837l-1.602.17v1.667h-1.207v1.377h1.207v2.795c0 1.613.919 2.414 2.323 2.361zm3.856-5.656l-.105-.892H36.02v9.172h1.601v-3.464c.459.708 1.47.918 2.152.918 2.073 0 3.268-1.496 3.268-3.385 0-1.903-1.326-3.386-3.32-3.386-.737.001-1.602.315-2.101 1.037zm3.818 2.349c0 1.01-.748 1.837-1.837 1.837s-1.837-.827-1.837-1.837c0-1.011.682-1.837 1.837-1.837 1.154 0 1.837.827 1.837 1.837zm2.845-1.404c0 1.22 1.863 1.22 1.863 0 0-1.233-1.863-1.233-1.863 0zm0 3.806c0 1.22 1.863 1.22 1.863 0 0-1.234-1.863-1.234-1.863 0zm4.027 1.902l4.383-11.127h-1.68L46.644 51.25zm4.302 0h1.666l4.383-11.127h-1.68z"/></g></svg>